SplineFontDB: 3.2
FontName: pixelFont-7-8x14-sproutLands
FullName: pixelFont-7-8x14-sproutLands Regular
FamilyName: pixelFont-7-8x14-sproutLands
Weight: Book
Version: 1.0
ItalicAngle: 0
UnderlinePosition: 173
UnderlineWidth: 115
Ascent: 1843
Descent: 461
InvalidEm: 0
sfntRevision: 0x00010000
LayerCount: 2
Layer: 0 1 "N+HsEA-n" 1
Layer: 1 1 "G+HqcA-n" 0
XUID: [1021 570 -708958134 30662]
StyleMap: 0x0040
FSType: 4
OS2Version: 2
OS2_WeightWidthSlopeOnly: 0
OS2_UseTypoMetrics: 0
CreationTime: 210048
ModificationTime: 1762625783
PfmFamily: 81
TTFWeight: 400
TTFWidth: 5
LineGap: 384
VLineGap: 0
Panose: 0 0 4 0 0 0 0 0 0 0
OS2TypoAscent: 1792
OS2TypoAOffset: 0
OS2TypoDescent: 0
OS2TypoDOffset: 0
OS2TypoLinegap: 384
OS2WinAscent: 1792
OS2WinAOffset: 0
OS2WinDescent: 0
OS2WinDOffset: 0
HheadAscent: 1792
HheadAOffset: 0
HheadDescent: 0
HheadDOffset: 0
OS2SubXSize: 1152
OS2SubYSize: 1152
OS2SubXOff: 0
OS2SubYOff: 0
OS2SupXSize: 1152
OS2SupYSize: 1152
OS2SupXOff: 0
OS2SupYOff: 1152
OS2StrikeYSize: 115
OS2StrikeYPos: 460
OS2CapHeight: 1792
OS2XHeight: 1792
OS2Vendor: 'YAL.'
OS2CodePages: 200101ff.cdff0000
OS2UnicodeRanges: 00000001.00000000.00000000.00000000
DEI: 91125
ShortTable: maxp 16
  1
  0
  82
  312
  78
  0
  0
  2
  0
  0
  0
  0
  0
  0
  0
  0
EndShort
LangName: 1033 "" "" "Regular" "pixelFont-7-8x14-sproutLands" "" "Version 1.0" "" "" "" "Cup Nooble " "" "" "" "" "" "" "" "" "" "ABCDEFGHIJKLM NOPQRSTUVWXYZ 1234567890 ><.:,;'+ACIA(!?)+- -*/+AD0A abcdefghijklm nopqrstuvwxyz"
Encoding: UnicodeBmp
UnicodeInterp: none
NameList: AGL For New Fonts
DisplaySize: -48
AntiAlias: 1
FitToEm: 0
WinInfo: 0 38 12
BeginChars: 65537 83

StartChar: exclam
Encoding: 33 33 3
Width: 896
GlyphClass: 1
Flags: W
LayerCount: 2
Fore
SplineSet
384 1792 m 1,0,-1
 512 1792 l 1,1,-1
 512 1664 l 1,2,-1
 384 1664 l 1,3,-1
 384 1792 l 1,0,-1
512 1792 m 1,4,-1
 640 1792 l 1,5,-1
 640 1664 l 1,6,-1
 512 1664 l 1,7,-1
 512 1792 l 1,4,-1
384 1664 m 1,8,-1
 512 1664 l 1,9,-1
 512 1536 l 1,10,-1
 384 1536 l 1,11,-1
 384 1664 l 1,8,-1
512 1664 m 1,12,-1
 640 1664 l 1,13,-1
 640 1536 l 1,14,-1
 512 1536 l 1,15,-1
 512 1664 l 1,12,-1
384 1536 m 1,16,-1
 512 1536 l 1,17,-1
 512 1408 l 1,18,-1
 384 1408 l 1,19,-1
 384 1536 l 1,16,-1
512 1536 m 1,20,-1
 640 1536 l 1,21,-1
 640 1408 l 1,22,-1
 512 1408 l 1,23,-1
 512 1536 l 1,20,-1
384 1408 m 1,24,-1
 512 1408 l 1,25,-1
 512 1280 l 1,26,-1
 384 1280 l 1,27,-1
 384 1408 l 1,24,-1
512 1408 m 1,28,-1
 640 1408 l 1,29,-1
 640 1280 l 1,30,-1
 512 1280 l 1,31,-1
 512 1408 l 1,28,-1
384 1280 m 1,32,-1
 512 1280 l 1,33,-1
 512 1152 l 1,34,-1
 384 1152 l 1,35,-1
 384 1280 l 1,32,-1
512 1280 m 1,36,-1
 640 1280 l 1,37,-1
 640 1152 l 1,38,-1
 512 1152 l 1,39,-1
 512 1280 l 1,36,-1
384 1152 m 1,40,-1
 512 1152 l 1,41,-1
 512 1024 l 1,42,-1
 384 1024 l 1,43,-1
 384 1152 l 1,40,-1
512 1152 m 1,44,-1
 640 1152 l 1,45,-1
 640 1024 l 1,46,-1
 512 1024 l 1,47,-1
 512 1152 l 1,44,-1
384 1024 m 1,48,-1
 512 1024 l 1,49,-1
 512 896 l 1,50,-1
 384 896 l 1,51,-1
 384 1024 l 1,48,-1
512 1024 m 1,52,-1
 640 1024 l 1,53,-1
 640 896 l 1,54,-1
 512 896 l 1,55,-1
 512 1024 l 1,52,-1
384 896 m 1,56,-1
 512 896 l 1,57,-1
 512 768 l 1,58,-1
 384 768 l 1,59,-1
 384 896 l 1,56,-1
512 896 m 1,60,-1
 640 896 l 1,61,-1
 640 768 l 1,62,-1
 512 768 l 1,63,-1
 512 896 l 1,60,-1
384 768 m 1,64,-1
 512 768 l 1,65,-1
 512 640 l 1,66,-1
 384 640 l 1,67,-1
 384 768 l 1,64,-1
512 768 m 1,68,-1
 640 768 l 1,69,-1
 640 640 l 1,70,-1
 512 640 l 1,71,-1
 512 768 l 1,68,-1
384 640 m 1,72,-1
 512 640 l 1,73,-1
 512 512 l 1,74,-1
 384 512 l 1,75,-1
 384 640 l 1,72,-1
512 640 m 1,76,-1
 640 640 l 1,77,-1
 640 512 l 1,78,-1
 512 512 l 1,79,-1
 512 640 l 1,76,-1
384 512 m 1,80,-1
 512 512 l 1,81,-1
 512 384 l 1,82,-1
 384 384 l 1,83,-1
 384 512 l 1,80,-1
512 512 m 1,84,-1
 640 512 l 1,85,-1
 640 384 l 1,86,-1
 512 384 l 1,87,-1
 512 512 l 1,84,-1
384 256 m 1,88,-1
 512 256 l 1,89,-1
 512 128 l 1,90,-1
 384 128 l 1,91,-1
 384 256 l 1,88,-1
512 256 m 1,92,-1
 640 256 l 1,93,-1
 640 128 l 1,94,-1
 512 128 l 1,95,-1
 512 256 l 1,92,-1
384 128 m 1,96,-1
 512 128 l 1,97,-1
 512 0 l 1,98,-1
 384 0 l 1,99,-1
 384 128 l 1,96,-1
512 128 m 1,100,-1
 640 128 l 1,101,-1
 640 0 l 1,102,-1
 512 0 l 1,103,-1
 512 128 l 1,100,-1
EndSplineSet
EndChar

StartChar: quotedbl
Encoding: 34 34 4
Width: 896
GlyphClass: 1
Flags: W
LayerCount: 2
Fore
SplineSet
0 1792 m 1,0,-1
 128 1792 l 1,1,-1
 128 1664 l 1,2,-1
 0 1664 l 1,3,-1
 0 1792 l 1,0,-1
384 1792 m 1,4,-1
 512 1792 l 1,5,-1
 512 1664 l 1,6,-1
 384 1664 l 1,7,-1
 384 1792 l 1,4,-1
0 1664 m 1,8,-1
 128 1664 l 1,9,-1
 128 1536 l 1,10,-1
 0 1536 l 1,11,-1
 0 1664 l 1,8,-1
128 1664 m 1,12,-1
 256 1664 l 1,13,-1
 256 1536 l 1,14,-1
 128 1536 l 1,15,-1
 128 1664 l 1,12,-1
384 1664 m 1,16,-1
 512 1664 l 1,17,-1
 512 1536 l 1,18,-1
 384 1536 l 1,19,-1
 384 1664 l 1,16,-1
512 1664 m 1,20,-1
 640 1664 l 1,21,-1
 640 1536 l 1,22,-1
 512 1536 l 1,23,-1
 512 1664 l 1,20,-1
0 1536 m 1,24,-1
 128 1536 l 1,25,-1
 128 1408 l 1,26,-1
 0 1408 l 1,27,-1
 0 1536 l 1,24,-1
128 1536 m 1,28,-1
 256 1536 l 1,29,-1
 256 1408 l 1,30,-1
 128 1408 l 1,31,-1
 128 1536 l 1,28,-1
384 1536 m 1,32,-1
 512 1536 l 1,33,-1
 512 1408 l 1,34,-1
 384 1408 l 1,35,-1
 384 1536 l 1,32,-1
512 1536 m 1,36,-1
 640 1536 l 1,37,-1
 640 1408 l 1,38,-1
 512 1408 l 1,39,-1
 512 1536 l 1,36,-1
EndSplineSet
EndChar

StartChar: quotesingle
Encoding: 39 39 5
Width: 512
GlyphClass: 1
Flags: W
LayerCount: 2
Fore
SplineSet
0 1792 m 1,0,-1
 128 1792 l 1,1,-1
 128 1664 l 1,2,-1
 0 1664 l 1,3,-1
 0 1792 l 1,0,-1
0 1664 m 1,4,-1
 128 1664 l 1,5,-1
 128 1536 l 1,6,-1
 0 1536 l 1,7,-1
 0 1664 l 1,4,-1
128 1664 m 1,8,-1
 256 1664 l 1,9,-1
 256 1536 l 1,10,-1
 128 1536 l 1,11,-1
 128 1664 l 1,8,-1
0 1536 m 1,12,-1
 128 1536 l 1,13,-1
 128 1408 l 1,14,-1
 0 1408 l 1,15,-1
 0 1536 l 1,12,-1
128 1536 m 1,16,-1
 256 1536 l 1,17,-1
 256 1408 l 1,18,-1
 128 1408 l 1,19,-1
 128 1536 l 1,16,-1
EndSplineSet
EndChar

StartChar: parenleft
Encoding: 40 40 6
Width: 640
GlyphClass: 1
Flags: W
LayerCount: 2
Fore
SplineSet
128 1792 m 1,0,-1
 256 1792 l 1,1,-1
 256 1664 l 1,2,-1
 128 1664 l 1,3,-1
 128 1792 l 1,0,-1
256 1792 m 1,4,-1
 384 1792 l 1,5,-1
 384 1664 l 1,6,-1
 256 1664 l 1,7,-1
 256 1792 l 1,4,-1
0 1664 m 1,8,-1
 128 1664 l 1,9,-1
 128 1536 l 1,10,-1
 0 1536 l 1,11,-1
 0 1664 l 1,8,-1
128 1664 m 1,12,-1
 256 1664 l 1,13,-1
 256 1536 l 1,14,-1
 128 1536 l 1,15,-1
 128 1664 l 1,12,-1
256 1664 m 1,16,-1
 384 1664 l 1,17,-1
 384 1536 l 1,18,-1
 256 1536 l 1,19,-1
 256 1664 l 1,16,-1
0 1536 m 1,20,-1
 128 1536 l 1,21,-1
 128 1408 l 1,22,-1
 0 1408 l 1,23,-1
 0 1536 l 1,20,-1
128 1536 m 1,24,-1
 256 1536 l 1,25,-1
 256 1408 l 1,26,-1
 128 1408 l 1,27,-1
 128 1536 l 1,24,-1
0 1408 m 1,28,-1
 128 1408 l 1,29,-1
 128 1280 l 1,30,-1
 0 1280 l 1,31,-1
 0 1408 l 1,28,-1
128 1408 m 1,32,-1
 256 1408 l 1,33,-1
 256 1280 l 1,34,-1
 128 1280 l 1,35,-1
 128 1408 l 1,32,-1
0 1280 m 1,36,-1
 128 1280 l 1,37,-1
 128 1152 l 1,38,-1
 0 1152 l 1,39,-1
 0 1280 l 1,36,-1
128 1280 m 1,40,-1
 256 1280 l 1,41,-1
 256 1152 l 1,42,-1
 128 1152 l 1,43,-1
 128 1280 l 1,40,-1
0 1152 m 1,44,-1
 128 1152 l 1,45,-1
 128 1024 l 1,46,-1
 0 1024 l 1,47,-1
 0 1152 l 1,44,-1
128 1152 m 1,48,-1
 256 1152 l 1,49,-1
 256 1024 l 1,50,-1
 128 1024 l 1,51,-1
 128 1152 l 1,48,-1
0 1024 m 1,52,-1
 128 1024 l 1,53,-1
 128 896 l 1,54,-1
 0 896 l 1,55,-1
 0 1024 l 1,52,-1
128 1024 m 1,56,-1
 256 1024 l 1,57,-1
 256 896 l 1,58,-1
 128 896 l 1,59,-1
 128 1024 l 1,56,-1
0 896 m 1,60,-1
 128 896 l 1,61,-1
 128 768 l 1,62,-1
 0 768 l 1,63,-1
 0 896 l 1,60,-1
128 896 m 1,64,-1
 256 896 l 1,65,-1
 256 768 l 1,66,-1
 128 768 l 1,67,-1
 128 896 l 1,64,-1
0 768 m 1,68,-1
 128 768 l 1,69,-1
 128 640 l 1,70,-1
 0 640 l 1,71,-1
 0 768 l 1,68,-1
128 768 m 1,72,-1
 256 768 l 1,73,-1
 256 640 l 1,74,-1
 128 640 l 1,75,-1
 128 768 l 1,72,-1
0 640 m 1,76,-1
 128 640 l 1,77,-1
 128 512 l 1,78,-1
 0 512 l 1,79,-1
 0 640 l 1,76,-1
128 640 m 1,80,-1
 256 640 l 1,81,-1
 256 512 l 1,82,-1
 128 512 l 1,83,-1
 128 640 l 1,80,-1
0 512 m 1,84,-1
 128 512 l 1,85,-1
 128 384 l 1,86,-1
 0 384 l 1,87,-1
 0 512 l 1,84,-1
128 512 m 1,88,-1
 256 512 l 1,89,-1
 256 384 l 1,90,-1
 128 384 l 1,91,-1
 128 512 l 1,88,-1
0 384 m 1,92,-1
 128 384 l 1,93,-1
 128 256 l 1,94,-1
 0 256 l 1,95,-1
 0 384 l 1,92,-1
128 384 m 1,96,-1
 256 384 l 1,97,-1
 256 256 l 1,98,-1
 128 256 l 1,99,-1
 128 384 l 1,96,-1
0 256 m 1,100,-1
 128 256 l 1,101,-1
 128 128 l 1,102,-1
 0 128 l 1,103,-1
 0 256 l 1,100,-1
128 256 m 1,104,-1
 256 256 l 1,105,-1
 256 128 l 1,106,-1
 128 128 l 1,107,-1
 128 256 l 1,104,-1
256 256 m 1,108,-1
 384 256 l 1,109,-1
 384 128 l 1,110,-1
 256 128 l 1,111,-1
 256 256 l 1,108,-1
128 128 m 1,112,-1
 256 128 l 1,113,-1
 256 0 l 1,114,-1
 128 0 l 1,115,-1
 128 128 l 1,112,-1
256 128 m 1,116,-1
 384 128 l 1,117,-1
 384 0 l 1,118,-1
 256 0 l 1,119,-1
 256 128 l 1,116,-1
EndSplineSet
EndChar

StartChar: parenright
Encoding: 41 41 7
Width: 640
GlyphClass: 1
Flags: W
LayerCount: 2
Fore
SplineSet
0 1792 m 1,0,-1
 128 1792 l 1,1,-1
 128 1664 l 1,2,-1
 0 1664 l 1,3,-1
 0 1792 l 1,0,-1
128 1792 m 1,4,-1
 256 1792 l 1,5,-1
 256 1664 l 1,6,-1
 128 1664 l 1,7,-1
 128 1792 l 1,4,-1
0 1664 m 1,8,-1
 128 1664 l 1,9,-1
 128 1536 l 1,10,-1
 0 1536 l 1,11,-1
 0 1664 l 1,8,-1
128 1664 m 1,12,-1
 256 1664 l 1,13,-1
 256 1536 l 1,14,-1
 128 1536 l 1,15,-1
 128 1664 l 1,12,-1
256 1664 m 1,16,-1
 384 1664 l 1,17,-1
 384 1536 l 1,18,-1
 256 1536 l 1,19,-1
 256 1664 l 1,16,-1
128 1536 m 1,20,-1
 256 1536 l 1,21,-1
 256 1408 l 1,22,-1
 128 1408 l 1,23,-1
 128 1536 l 1,20,-1
256 1536 m 1,24,-1
 384 1536 l 1,25,-1
 384 1408 l 1,26,-1
 256 1408 l 1,27,-1
 256 1536 l 1,24,-1
128 1408 m 1,28,-1
 256 1408 l 1,29,-1
 256 1280 l 1,30,-1
 128 1280 l 1,31,-1
 128 1408 l 1,28,-1
256 1408 m 1,32,-1
 384 1408 l 1,33,-1
 384 1280 l 1,34,-1
 256 1280 l 1,35,-1
 256 1408 l 1,32,-1
128 1280 m 1,36,-1
 256 1280 l 1,37,-1
 256 1152 l 1,38,-1
 128 1152 l 1,39,-1
 128 1280 l 1,36,-1
256 1280 m 1,40,-1
 384 1280 l 1,41,-1
 384 1152 l 1,42,-1
 256 1152 l 1,43,-1
 256 1280 l 1,40,-1
128 1152 m 1,44,-1
 256 1152 l 1,45,-1
 256 1024 l 1,46,-1
 128 1024 l 1,47,-1
 128 1152 l 1,44,-1
256 1152 m 1,48,-1
 384 1152 l 1,49,-1
 384 1024 l 1,50,-1
 256 1024 l 1,51,-1
 256 1152 l 1,48,-1
128 1024 m 1,52,-1
 256 1024 l 1,53,-1
 256 896 l 1,54,-1
 128 896 l 1,55,-1
 128 1024 l 1,52,-1
256 1024 m 1,56,-1
 384 1024 l 1,57,-1
 384 896 l 1,58,-1
 256 896 l 1,59,-1
 256 1024 l 1,56,-1
128 896 m 1,60,-1
 256 896 l 1,61,-1
 256 768 l 1,62,-1
 128 768 l 1,63,-1
 128 896 l 1,60,-1
256 896 m 1,64,-1
 384 896 l 1,65,-1
 384 768 l 1,66,-1
 256 768 l 1,67,-1
 256 896 l 1,64,-1
128 768 m 1,68,-1
 256 768 l 1,69,-1
 256 640 l 1,70,-1
 128 640 l 1,71,-1
 128 768 l 1,68,-1
256 768 m 1,72,-1
 384 768 l 1,73,-1
 384 640 l 1,74,-1
 256 640 l 1,75,-1
 256 768 l 1,72,-1
128 640 m 1,76,-1
 256 640 l 1,77,-1
 256 512 l 1,78,-1
 128 512 l 1,79,-1
 128 640 l 1,76,-1
256 640 m 1,80,-1
 384 640 l 1,81,-1
 384 512 l 1,82,-1
 256 512 l 1,83,-1
 256 640 l 1,80,-1
128 512 m 1,84,-1
 256 512 l 1,85,-1
 256 384 l 1,86,-1
 128 384 l 1,87,-1
 128 512 l 1,84,-1
256 512 m 1,88,-1
 384 512 l 1,89,-1
 384 384 l 1,90,-1
 256 384 l 1,91,-1
 256 512 l 1,88,-1
128 384 m 1,92,-1
 256 384 l 1,93,-1
 256 256 l 1,94,-1
 128 256 l 1,95,-1
 128 384 l 1,92,-1
256 384 m 1,96,-1
 384 384 l 1,97,-1
 384 256 l 1,98,-1
 256 256 l 1,99,-1
 256 384 l 1,96,-1
0 256 m 1,100,-1
 128 256 l 1,101,-1
 128 128 l 1,102,-1
 0 128 l 1,103,-1
 0 256 l 1,100,-1
128 256 m 1,104,-1
 256 256 l 1,105,-1
 256 128 l 1,106,-1
 128 128 l 1,107,-1
 128 256 l 1,104,-1
256 256 m 1,108,-1
 384 256 l 1,109,-1
 384 128 l 1,110,-1
 256 128 l 1,111,-1
 256 256 l 1,108,-1
0 128 m 1,112,-1
 128 128 l 1,113,-1
 128 0 l 1,114,-1
 0 0 l 1,115,-1
 0 128 l 1,112,-1
128 128 m 1,116,-1
 256 128 l 1,117,-1
 256 0 l 1,118,-1
 128 0 l 1,119,-1
 128 128 l 1,116,-1
EndSplineSet
EndChar

StartChar: asterisk
Encoding: 42 42 8
Width: 1024
GlyphClass: 1
Flags: W
LayerCount: 2
Fore
SplineSet
0 1280 m 1,0,-1
 128 1280 l 1,1,-1
 128 1152 l 1,2,-1
 0 1152 l 1,3,-1
 0 1280 l 1,0,-1
128 1280 m 1,4,-1
 256 1280 l 1,5,-1
 256 1152 l 1,6,-1
 128 1152 l 1,7,-1
 128 1280 l 1,4,-1
512 1280 m 1,8,-1
 640 1280 l 1,9,-1
 640 1152 l 1,10,-1
 512 1152 l 1,11,-1
 512 1280 l 1,8,-1
640 1280 m 1,12,-1
 768 1280 l 1,13,-1
 768 1152 l 1,14,-1
 640 1152 l 1,15,-1
 640 1280 l 1,12,-1
0 1152 m 1,16,-1
 128 1152 l 1,17,-1
 128 1024 l 1,18,-1
 0 1024 l 1,19,-1
 0 1152 l 1,16,-1
128 1152 m 1,20,-1
 256 1152 l 1,21,-1
 256 1024 l 1,22,-1
 128 1024 l 1,23,-1
 128 1152 l 1,20,-1
256 1152 m 1,24,-1
 384 1152 l 1,25,-1
 384 1024 l 1,26,-1
 256 1024 l 1,27,-1
 256 1152 l 1,24,-1
384 1152 m 1,28,-1
 512 1152 l 1,29,-1
 512 1024 l 1,30,-1
 384 1024 l 1,31,-1
 384 1152 l 1,28,-1
512 1152 m 1,32,-1
 640 1152 l 1,33,-1
 640 1024 l 1,34,-1
 512 1024 l 1,35,-1
 512 1152 l 1,32,-1
640 1152 m 1,36,-1
 768 1152 l 1,37,-1
 768 1024 l 1,38,-1
 640 1024 l 1,39,-1
 640 1152 l 1,36,-1
128 1024 m 1,40,-1
 256 1024 l 1,41,-1
 256 896 l 1,42,-1
 128 896 l 1,43,-1
 128 1024 l 1,40,-1
256 1024 m 1,44,-1
 384 1024 l 1,45,-1
 384 896 l 1,46,-1
 256 896 l 1,47,-1
 256 1024 l 1,44,-1
384 1024 m 1,48,-1
 512 1024 l 1,49,-1
 512 896 l 1,50,-1
 384 896 l 1,51,-1
 384 1024 l 1,48,-1
512 1024 m 1,52,-1
 640 1024 l 1,53,-1
 640 896 l 1,54,-1
 512 896 l 1,55,-1
 512 1024 l 1,52,-1
128 896 m 1,56,-1
 256 896 l 1,57,-1
 256 768 l 1,58,-1
 128 768 l 1,59,-1
 128 896 l 1,56,-1
256 896 m 1,60,-1
 384 896 l 1,61,-1
 384 768 l 1,62,-1
 256 768 l 1,63,-1
 256 896 l 1,60,-1
384 896 m 1,64,-1
 512 896 l 1,65,-1
 512 768 l 1,66,-1
 384 768 l 1,67,-1
 384 896 l 1,64,-1
512 896 m 1,68,-1
 640 896 l 1,69,-1
 640 768 l 1,70,-1
 512 768 l 1,71,-1
 512 896 l 1,68,-1
0 768 m 1,72,-1
 128 768 l 1,73,-1
 128 640 l 1,74,-1
 0 640 l 1,75,-1
 0 768 l 1,72,-1
128 768 m 1,76,-1
 256 768 l 1,77,-1
 256 640 l 1,78,-1
 128 640 l 1,79,-1
 128 768 l 1,76,-1
256 768 m 1,80,-1
 384 768 l 1,81,-1
 384 640 l 1,82,-1
 256 640 l 1,83,-1
 256 768 l 1,80,-1
384 768 m 1,84,-1
 512 768 l 1,85,-1
 512 640 l 1,86,-1
 384 640 l 1,87,-1
 384 768 l 1,84,-1
512 768 m 1,88,-1
 640 768 l 1,89,-1
 640 640 l 1,90,-1
 512 640 l 1,91,-1
 512 768 l 1,88,-1
640 768 m 1,92,-1
 768 768 l 1,93,-1
 768 640 l 1,94,-1
 640 640 l 1,95,-1
 640 768 l 1,92,-1
0 640 m 1,96,-1
 128 640 l 1,97,-1
 128 512 l 1,98,-1
 0 512 l 1,99,-1
 0 640 l 1,96,-1
128 640 m 1,100,-1
 256 640 l 1,101,-1
 256 512 l 1,102,-1
 128 512 l 1,103,-1
 128 640 l 1,100,-1
512 640 m 1,104,-1
 640 640 l 1,105,-1
 640 512 l 1,106,-1
 512 512 l 1,107,-1
 512 640 l 1,104,-1
640 640 m 1,108,-1
 768 640 l 1,109,-1
 768 512 l 1,110,-1
 640 512 l 1,111,-1
 640 640 l 1,108,-1
EndSplineSet
EndChar

StartChar: plus
Encoding: 43 43 9
Width: 1024
GlyphClass: 1
Flags: W
LayerCount: 2
Fore
SplineSet
256 1280 m 1,0,-1
 384 1280 l 1,1,-1
 384 1152 l 1,2,-1
 256 1152 l 1,3,-1
 256 1280 l 1,0,-1
384 1280 m 1,4,-1
 512 1280 l 1,5,-1
 512 1152 l 1,6,-1
 384 1152 l 1,7,-1
 384 1280 l 1,4,-1
256 1152 m 1,8,-1
 384 1152 l 1,9,-1
 384 1024 l 1,10,-1
 256 1024 l 1,11,-1
 256 1152 l 1,8,-1
384 1152 m 1,12,-1
 512 1152 l 1,13,-1
 512 1024 l 1,14,-1
 384 1024 l 1,15,-1
 384 1152 l 1,12,-1
0 1024 m 1,16,-1
 128 1024 l 1,17,-1
 128 896 l 1,18,-1
 0 896 l 1,19,-1
 0 1024 l 1,16,-1
128 1024 m 1,20,-1
 256 1024 l 1,21,-1
 256 896 l 1,22,-1
 128 896 l 1,23,-1
 128 1024 l 1,20,-1
256 1024 m 1,24,-1
 384 1024 l 1,25,-1
 384 896 l 1,26,-1
 256 896 l 1,27,-1
 256 1024 l 1,24,-1
384 1024 m 1,28,-1
 512 1024 l 1,29,-1
 512 896 l 1,30,-1
 384 896 l 1,31,-1
 384 1024 l 1,28,-1
512 1024 m 1,32,-1
 640 1024 l 1,33,-1
 640 896 l 1,34,-1
 512 896 l 1,35,-1
 512 1024 l 1,32,-1
640 1024 m 1,36,-1
 768 1024 l 1,37,-1
 768 896 l 1,38,-1
 640 896 l 1,39,-1
 640 1024 l 1,36,-1
0 896 m 1,40,-1
 128 896 l 1,41,-1
 128 768 l 1,42,-1
 0 768 l 1,43,-1
 0 896 l 1,40,-1
128 896 m 1,44,-1
 256 896 l 1,45,-1
 256 768 l 1,46,-1
 128 768 l 1,47,-1
 128 896 l 1,44,-1
256 896 m 1,48,-1
 384 896 l 1,49,-1
 384 768 l 1,50,-1
 256 768 l 1,51,-1
 256 896 l 1,48,-1
384 896 m 1,52,-1
 512 896 l 1,53,-1
 512 768 l 1,54,-1
 384 768 l 1,55,-1
 384 896 l 1,52,-1
512 896 m 1,56,-1
 640 896 l 1,57,-1
 640 768 l 1,58,-1
 512 768 l 1,59,-1
 512 896 l 1,56,-1
640 896 m 1,60,-1
 768 896 l 1,61,-1
 768 768 l 1,62,-1
 640 768 l 1,63,-1
 640 896 l 1,60,-1
256 768 m 1,64,-1
 384 768 l 1,65,-1
 384 640 l 1,66,-1
 256 640 l 1,67,-1
 256 768 l 1,64,-1
384 768 m 1,68,-1
 512 768 l 1,69,-1
 512 640 l 1,70,-1
 384 640 l 1,71,-1
 384 768 l 1,68,-1
256 640 m 1,72,-1
 384 640 l 1,73,-1
 384 512 l 1,74,-1
 256 512 l 1,75,-1
 256 640 l 1,72,-1
384 640 m 1,76,-1
 512 640 l 1,77,-1
 512 512 l 1,78,-1
 384 512 l 1,79,-1
 384 640 l 1,76,-1
EndSplineSet
EndChar

StartChar: comma
Encoding: 44 44 10
Width: 640
GlyphClass: 1
Flags: W
LayerCount: 2
Fore
SplineSet
128 256 m 1,0,-1
 256 256 l 1,1,-1
 256 128 l 1,2,-1
 128 128 l 1,3,-1
 128 256 l 1,0,-1
256 256 m 1,4,-1
 384 256 l 1,5,-1
 384 128 l 1,6,-1
 256 128 l 1,7,-1
 256 256 l 1,4,-1
0 128 m 1,8,-1
 128 128 l 1,9,-1
 128 0 l 1,10,-1
 0 0 l 1,11,-1
 0 128 l 1,8,-1
128 128 m 1,12,-1
 256 128 l 1,13,-1
 256 0 l 1,14,-1
 128 0 l 1,15,-1
 128 128 l 1,12,-1
256 128 m 1,16,-1
 384 128 l 1,17,-1
 384 0 l 1,18,-1
 256 0 l 1,19,-1
 256 128 l 1,16,-1
EndSplineSet
EndChar

StartChar: hyphen
Encoding: 45 45 11
Width: 1024
GlyphClass: 1
Flags: W
LayerCount: 2
Fore
SplineSet
0 1024 m 1,0,-1
 128 1024 l 1,1,-1
 128 896 l 1,2,-1
 0 896 l 1,3,-1
 0 1024 l 1,0,-1
128 1024 m 1,4,-1
 256 1024 l 1,5,-1
 256 896 l 1,6,-1
 128 896 l 1,7,-1
 128 1024 l 1,4,-1
256 1024 m 1,8,-1
 384 1024 l 1,9,-1
 384 896 l 1,10,-1
 256 896 l 1,11,-1
 256 1024 l 1,8,-1
384 1024 m 1,12,-1
 512 1024 l 1,13,-1
 512 896 l 1,14,-1
 384 896 l 1,15,-1
 384 1024 l 1,12,-1
512 1024 m 1,16,-1
 640 1024 l 1,17,-1
 640 896 l 1,18,-1
 512 896 l 1,19,-1
 512 1024 l 1,16,-1
640 1024 m 1,20,-1
 768 1024 l 1,21,-1
 768 896 l 1,22,-1
 640 896 l 1,23,-1
 640 1024 l 1,20,-1
0 896 m 1,24,-1
 128 896 l 1,25,-1
 128 768 l 1,26,-1
 0 768 l 1,27,-1
 0 896 l 1,24,-1
128 896 m 1,28,-1
 256 896 l 1,29,-1
 256 768 l 1,30,-1
 128 768 l 1,31,-1
 128 896 l 1,28,-1
256 896 m 1,32,-1
 384 896 l 1,33,-1
 384 768 l 1,34,-1
 256 768 l 1,35,-1
 256 896 l 1,32,-1
384 896 m 1,36,-1
 512 896 l 1,37,-1
 512 768 l 1,38,-1
 384 768 l 1,39,-1
 384 896 l 1,36,-1
512 896 m 1,40,-1
 640 896 l 1,41,-1
 640 768 l 1,42,-1
 512 768 l 1,43,-1
 512 896 l 1,40,-1
640 896 m 1,44,-1
 768 896 l 1,45,-1
 768 768 l 1,46,-1
 640 768 l 1,47,-1
 640 896 l 1,44,-1
EndSplineSet
EndChar

StartChar: period
Encoding: 46 46 12
Width: 512
GlyphClass: 1
Flags: W
LayerCount: 2
Fore
SplineSet
0 256 m 1,0,-1
 128 256 l 1,1,-1
 128 128 l 1,2,-1
 0 128 l 1,3,-1
 0 256 l 1,0,-1
128 256 m 1,4,-1
 256 256 l 1,5,-1
 256 128 l 1,6,-1
 128 128 l 1,7,-1
 128 256 l 1,4,-1
0 128 m 1,8,-1
 128 128 l 1,9,-1
 128 0 l 1,10,-1
 0 0 l 1,11,-1
 0 128 l 1,8,-1
128 128 m 1,12,-1
 256 128 l 1,13,-1
 256 0 l 1,14,-1
 128 0 l 1,15,-1
 128 128 l 1,12,-1
EndSplineSet
EndChar

StartChar: slash
Encoding: 47 47 13
Width: 1152
GlyphClass: 1
Flags: W
LayerCount: 2
Fore
SplineSet
640 1792 m 1,0,-1
 768 1792 l 1,1,-1
 768 1664 l 1,2,-1
 640 1664 l 1,3,-1
 640 1792 l 1,0,-1
768 1792 m 1,4,-1
 896 1792 l 1,5,-1
 896 1664 l 1,6,-1
 768 1664 l 1,7,-1
 768 1792 l 1,4,-1
640 1664 m 1,8,-1
 768 1664 l 1,9,-1
 768 1536 l 1,10,-1
 640 1536 l 1,11,-1
 640 1664 l 1,8,-1
768 1664 m 1,12,-1
 896 1664 l 1,13,-1
 896 1536 l 1,14,-1
 768 1536 l 1,15,-1
 768 1664 l 1,12,-1
640 1536 m 1,16,-1
 768 1536 l 1,17,-1
 768 1408 l 1,18,-1
 640 1408 l 1,19,-1
 640 1536 l 1,16,-1
768 1536 m 1,20,-1
 896 1536 l 1,21,-1
 896 1408 l 1,22,-1
 768 1408 l 1,23,-1
 768 1536 l 1,20,-1
640 1408 m 1,24,-1
 768 1408 l 1,25,-1
 768 1280 l 1,26,-1
 640 1280 l 1,27,-1
 640 1408 l 1,24,-1
768 1408 m 1,28,-1
 896 1408 l 1,29,-1
 896 1280 l 1,30,-1
 768 1280 l 1,31,-1
 768 1408 l 1,28,-1
512 1280 m 1,32,-1
 640 1280 l 1,33,-1
 640 1152 l 1,34,-1
 512 1152 l 1,35,-1
 512 1280 l 1,32,-1
640 1280 m 1,36,-1
 768 1280 l 1,37,-1
 768 1152 l 1,38,-1
 640 1152 l 1,39,-1
 640 1280 l 1,36,-1
768 1280 m 1,40,-1
 896 1280 l 1,41,-1
 896 1152 l 1,42,-1
 768 1152 l 1,43,-1
 768 1280 l 1,40,-1
512 1152 m 1,44,-1
 640 1152 l 1,45,-1
 640 1024 l 1,46,-1
 512 1024 l 1,47,-1
 512 1152 l 1,44,-1
640 1152 m 1,48,-1
 768 1152 l 1,49,-1
 768 1024 l 1,50,-1
 640 1024 l 1,51,-1
 640 1152 l 1,48,-1
384 1024 m 1,52,-1
 512 1024 l 1,53,-1
 512 896 l 1,54,-1
 384 896 l 1,55,-1
 384 1024 l 1,52,-1
512 1024 m 1,56,-1
 640 1024 l 1,57,-1
 640 896 l 1,58,-1
 512 896 l 1,59,-1
 512 1024 l 1,56,-1
640 1024 m 1,60,-1
 768 1024 l 1,61,-1
 768 896 l 1,62,-1
 640 896 l 1,63,-1
 640 1024 l 1,60,-1
384 896 m 1,64,-1
 512 896 l 1,65,-1
 512 768 l 1,66,-1
 384 768 l 1,67,-1
 384 896 l 1,64,-1
512 896 m 1,68,-1
 640 896 l 1,69,-1
 640 768 l 1,70,-1
 512 768 l 1,71,-1
 512 896 l 1,68,-1
256 768 m 1,72,-1
 384 768 l 1,73,-1
 384 640 l 1,74,-1
 256 640 l 1,75,-1
 256 768 l 1,72,-1
384 768 m 1,76,-1
 512 768 l 1,77,-1
 512 640 l 1,78,-1
 384 640 l 1,79,-1
 384 768 l 1,76,-1
512 768 m 1,80,-1
 640 768 l 1,81,-1
 640 640 l 1,82,-1
 512 640 l 1,83,-1
 512 768 l 1,80,-1
256 640 m 1,84,-1
 384 640 l 1,85,-1
 384 512 l 1,86,-1
 256 512 l 1,87,-1
 256 640 l 1,84,-1
384 640 m 1,88,-1
 512 640 l 1,89,-1
 512 512 l 1,90,-1
 384 512 l 1,91,-1
 384 640 l 1,88,-1
128 512 m 1,92,-1
 256 512 l 1,93,-1
 256 384 l 1,94,-1
 128 384 l 1,95,-1
 128 512 l 1,92,-1
256 512 m 1,96,-1
 384 512 l 1,97,-1
 384 384 l 1,98,-1
 256 384 l 1,99,-1
 256 512 l 1,96,-1
384 512 m 1,100,-1
 512 512 l 1,101,-1
 512 384 l 1,102,-1
 384 384 l 1,103,-1
 384 512 l 1,100,-1
128 384 m 1,104,-1
 256 384 l 1,105,-1
 256 256 l 1,106,-1
 128 256 l 1,107,-1
 128 384 l 1,104,-1
256 384 m 1,108,-1
 384 384 l 1,109,-1
 384 256 l 1,110,-1
 256 256 l 1,111,-1
 256 384 l 1,108,-1
128 256 m 1,112,-1
 256 256 l 1,113,-1
 256 128 l 1,114,-1
 128 128 l 1,115,-1
 128 256 l 1,112,-1
256 256 m 1,116,-1
 384 256 l 1,117,-1
 384 128 l 1,118,-1
 256 128 l 1,119,-1
 256 256 l 1,116,-1
128 128 m 1,120,-1
 256 128 l 1,121,-1
 256 0 l 1,122,-1
 128 0 l 1,123,-1
 128 128 l 1,120,-1
256 128 m 1,124,-1
 384 128 l 1,125,-1
 384 0 l 1,126,-1
 256 0 l 1,127,-1
 256 128 l 1,124,-1
EndSplineSet
EndChar

StartChar: zero
Encoding: 48 48 14
Width: 1280
GlyphClass: 1
Flags: W
LayerCount: 2
Fore
SplineSet
128 1792 m 1,0,-1
 256 1792 l 1,1,-1
 256 1664 l 1,2,-1
 128 1664 l 1,3,-1
 128 1792 l 1,0,-1
256 1792 m 1,4,-1
 384 1792 l 1,5,-1
 384 1664 l 1,6,-1
 256 1664 l 1,7,-1
 256 1792 l 1,4,-1
384 1792 m 1,8,-1
 512 1792 l 1,9,-1
 512 1664 l 1,10,-1
 384 1664 l 1,11,-1
 384 1792 l 1,8,-1
512 1792 m 1,12,-1
 640 1792 l 1,13,-1
 640 1664 l 1,14,-1
 512 1664 l 1,15,-1
 512 1792 l 1,12,-1
640 1792 m 1,16,-1
 768 1792 l 1,17,-1
 768 1664 l 1,18,-1
 640 1664 l 1,19,-1
 640 1792 l 1,16,-1
768 1792 m 1,20,-1
 896 1792 l 1,21,-1
 896 1664 l 1,22,-1
 768 1664 l 1,23,-1
 768 1792 l 1,20,-1
0 1664 m 1,24,-1
 128 1664 l 1,25,-1
 128 1536 l 1,26,-1
 0 1536 l 1,27,-1
 0 1664 l 1,24,-1
128 1664 m 1,28,-1
 256 1664 l 1,29,-1
 256 1536 l 1,30,-1
 128 1536 l 1,31,-1
 128 1664 l 1,28,-1
256 1664 m 1,32,-1
 384 1664 l 1,33,-1
 384 1536 l 1,34,-1
 256 1536 l 1,35,-1
 256 1664 l 1,32,-1
384 1664 m 1,36,-1
 512 1664 l 1,37,-1
 512 1536 l 1,38,-1
 384 1536 l 1,39,-1
 384 1664 l 1,36,-1
512 1664 m 1,40,-1
 640 1664 l 1,41,-1
 640 1536 l 1,42,-1
 512 1536 l 1,43,-1
 512 1664 l 1,40,-1
640 1664 m 1,44,-1
 768 1664 l 1,45,-1
 768 1536 l 1,46,-1
 640 1536 l 1,47,-1
 640 1664 l 1,44,-1
768 1664 m 1,48,-1
 896 1664 l 1,49,-1
 896 1536 l 1,50,-1
 768 1536 l 1,51,-1
 768 1664 l 1,48,-1
896 1664 m 1,52,-1
 1024 1664 l 1,53,-1
 1024 1536 l 1,54,-1
 896 1536 l 1,55,-1
 896 1664 l 1,52,-1
0 1536 m 1,56,-1
 128 1536 l 1,57,-1
 128 1408 l 1,58,-1
 0 1408 l 1,59,-1
 0 1536 l 1,56,-1
128 1536 m 1,60,-1
 256 1536 l 1,61,-1
 256 1408 l 1,62,-1
 128 1408 l 1,63,-1
 128 1536 l 1,60,-1
768 1536 m 1,64,-1
 896 1536 l 1,65,-1
 896 1408 l 1,66,-1
 768 1408 l 1,67,-1
 768 1536 l 1,64,-1
896 1536 m 1,68,-1
 1024 1536 l 1,69,-1
 1024 1408 l 1,70,-1
 896 1408 l 1,71,-1
 896 1536 l 1,68,-1
0 1408 m 1,72,-1
 128 1408 l 1,73,-1
 128 1280 l 1,74,-1
 0 1280 l 1,75,-1
 0 1408 l 1,72,-1
128 1408 m 1,76,-1
 256 1408 l 1,77,-1
 256 1280 l 1,78,-1
 128 1280 l 1,79,-1
 128 1408 l 1,76,-1
768 1408 m 1,80,-1
 896 1408 l 1,81,-1
 896 1280 l 1,82,-1
 768 1280 l 1,83,-1
 768 1408 l 1,80,-1
896 1408 m 1,84,-1
 1024 1408 l 1,85,-1
 1024 1280 l 1,86,-1
 896 1280 l 1,87,-1
 896 1408 l 1,84,-1
0 1280 m 1,88,-1
 128 1280 l 1,89,-1
 128 1152 l 1,90,-1
 0 1152 l 1,91,-1
 0 1280 l 1,88,-1
128 1280 m 1,92,-1
 256 1280 l 1,93,-1
 256 1152 l 1,94,-1
 128 1152 l 1,95,-1
 128 1280 l 1,92,-1
768 1280 m 1,96,-1
 896 1280 l 1,97,-1
 896 1152 l 1,98,-1
 768 1152 l 1,99,-1
 768 1280 l 1,96,-1
896 1280 m 1,100,-1
 1024 1280 l 1,101,-1
 1024 1152 l 1,102,-1
 896 1152 l 1,103,-1
 896 1280 l 1,100,-1
0 1152 m 1,104,-1
 128 1152 l 1,105,-1
 128 1024 l 1,106,-1
 0 1024 l 1,107,-1
 0 1152 l 1,104,-1
128 1152 m 1,108,-1
 256 1152 l 1,109,-1
 256 1024 l 1,110,-1
 128 1024 l 1,111,-1
 128 1152 l 1,108,-1
512 1152 m 1,112,-1
 640 1152 l 1,113,-1
 640 1024 l 1,114,-1
 512 1024 l 1,115,-1
 512 1152 l 1,112,-1
640 1152 m 1,116,-1
 768 1152 l 1,117,-1
 768 1024 l 1,118,-1
 640 1024 l 1,119,-1
 640 1152 l 1,116,-1
768 1152 m 1,120,-1
 896 1152 l 1,121,-1
 896 1024 l 1,122,-1
 768 1024 l 1,123,-1
 768 1152 l 1,120,-1
896 1152 m 1,124,-1
 1024 1152 l 1,125,-1
 1024 1024 l 1,126,-1
 896 1024 l 1,127,-1
 896 1152 l 1,124,-1
0 1024 m 1,128,-1
 128 1024 l 1,129,-1
 128 896 l 1,130,-1
 0 896 l 1,131,-1
 0 1024 l 1,128,-1
128 1024 m 1,132,-1
 256 1024 l 1,133,-1
 256 896 l 1,134,-1
 128 896 l 1,135,-1
 128 1024 l 1,132,-1
384 1024 m 1,136,-1
 512 1024 l 1,137,-1
 512 896 l 1,138,-1
 384 896 l 1,139,-1
 384 1024 l 1,136,-1
512 1024 m 1,140,-1
 640 1024 l 1,141,-1
 640 896 l 1,142,-1
 512 896 l 1,143,-1
 512 1024 l 1,140,-1
640 1024 m 1,144,-1
 768 1024 l 1,145,-1
 768 896 l 1,146,-1
 640 896 l 1,147,-1
 640 1024 l 1,144,-1
768 1024 m 1,148,-1
 896 1024 l 1,149,-1
 896 896 l 1,150,-1
 768 896 l 1,151,-1
 768 1024 l 1,148,-1
896 1024 m 1,152,-1
 1024 1024 l 1,153,-1
 1024 896 l 1,154,-1
 896 896 l 1,155,-1
 896 1024 l 1,152,-1
0 896 m 1,156,-1
 128 896 l 1,157,-1
 128 768 l 1,158,-1
 0 768 l 1,159,-1
 0 896 l 1,156,-1
128 896 m 1,160,-1
 256 896 l 1,161,-1
 256 768 l 1,162,-1
 128 768 l 1,163,-1
 128 896 l 1,160,-1
256 896 m 1,164,-1
 384 896 l 1,165,-1
 384 768 l 1,166,-1
 256 768 l 1,167,-1
 256 896 l 1,164,-1
384 896 m 1,168,-1
 512 896 l 1,169,-1
 512 768 l 1,170,-1
 384 768 l 1,171,-1
 384 896 l 1,168,-1
512 896 m 1,172,-1
 640 896 l 1,173,-1
 640 768 l 1,174,-1
 512 768 l 1,175,-1
 512 896 l 1,172,-1
768 896 m 1,176,-1
 896 896 l 1,177,-1
 896 768 l 1,178,-1
 768 768 l 1,179,-1
 768 896 l 1,176,-1
896 896 m 1,180,-1
 1024 896 l 1,181,-1
 1024 768 l 1,182,-1
 896 768 l 1,183,-1
 896 896 l 1,180,-1
0 768 m 1,184,-1
 128 768 l 1,185,-1
 128 640 l 1,186,-1
 0 640 l 1,187,-1
 0 768 l 1,184,-1
128 768 m 1,188,-1
 256 768 l 1,189,-1
 256 640 l 1,190,-1
 128 640 l 1,191,-1
 128 768 l 1,188,-1
256 768 m 1,192,-1
 384 768 l 1,193,-1
 384 640 l 1,194,-1
 256 640 l 1,195,-1
 256 768 l 1,192,-1
384 768 m 1,196,-1
 512 768 l 1,197,-1
 512 640 l 1,198,-1
 384 640 l 1,199,-1
 384 768 l 1,196,-1
768 768 m 1,200,-1
 896 768 l 1,201,-1
 896 640 l 1,202,-1
 768 640 l 1,203,-1
 768 768 l 1,200,-1
896 768 m 1,204,-1
 1024 768 l 1,205,-1
 1024 640 l 1,206,-1
 896 640 l 1,207,-1
 896 768 l 1,204,-1
0 640 m 1,208,-1
 128 640 l 1,209,-1
 128 512 l 1,210,-1
 0 512 l 1,211,-1
 0 640 l 1,208,-1
128 640 m 1,212,-1
 256 640 l 1,213,-1
 256 512 l 1,214,-1
 128 512 l 1,215,-1
 128 640 l 1,212,-1
768 640 m 1,216,-1
 896 640 l 1,217,-1
 896 512 l 1,218,-1
 768 512 l 1,219,-1
 768 640 l 1,216,-1
896 640 m 1,220,-1
 1024 640 l 1,221,-1
 1024 512 l 1,222,-1
 896 512 l 1,223,-1
 896 640 l 1,220,-1
0 512 m 1,224,-1
 128 512 l 1,225,-1
 128 384 l 1,226,-1
 0 384 l 1,227,-1
 0 512 l 1,224,-1
128 512 m 1,228,-1
 256 512 l 1,229,-1
 256 384 l 1,230,-1
 128 384 l 1,231,-1
 128 512 l 1,228,-1
768 512 m 1,232,-1
 896 512 l 1,233,-1
 896 384 l 1,234,-1
 768 384 l 1,235,-1
 768 512 l 1,232,-1
896 512 m 1,236,-1
 1024 512 l 1,237,-1
 1024 384 l 1,238,-1
 896 384 l 1,239,-1
 896 512 l 1,236,-1
0 384 m 1,240,-1
 128 384 l 1,241,-1
 128 256 l 1,242,-1
 0 256 l 1,243,-1
 0 384 l 1,240,-1
128 384 m 1,244,-1
 256 384 l 1,245,-1
 256 256 l 1,246,-1
 128 256 l 1,247,-1
 128 384 l 1,244,-1
768 384 m 1,248,-1
 896 384 l 1,249,-1
 896 256 l 1,250,-1
 768 256 l 1,251,-1
 768 384 l 1,248,-1
896 384 m 1,252,-1
 1024 384 l 1,253,-1
 1024 256 l 1,254,-1
 896 256 l 1,255,-1
 896 384 l 1,252,-1
0 256 m 1,256,-1
 128 256 l 1,257,-1
 128 128 l 1,258,-1
 0 128 l 1,259,-1
 0 256 l 1,256,-1
128 256 m 1,260,-1
 256 256 l 1,261,-1
 256 128 l 1,262,-1
 128 128 l 1,263,-1
 128 256 l 1,260,-1
256 256 m 1,264,-1
 384 256 l 1,265,-1
 384 128 l 1,266,-1
 256 128 l 1,267,-1
 256 256 l 1,264,-1
384 256 m 1,268,-1
 512 256 l 1,269,-1
 512 128 l 1,270,-1
 384 128 l 1,271,-1
 384 256 l 1,268,-1
512 256 m 1,272,-1
 640 256 l 1,273,-1
 640 128 l 1,274,-1
 512 128 l 1,275,-1
 512 256 l 1,272,-1
640 256 m 1,276,-1
 768 256 l 1,277,-1
 768 128 l 1,278,-1
 640 128 l 1,279,-1
 640 256 l 1,276,-1
768 256 m 1,280,-1
 896 256 l 1,281,-1
 896 128 l 1,282,-1
 768 128 l 1,283,-1
 768 256 l 1,280,-1
896 256 m 1,284,-1
 1024 256 l 1,285,-1
 1024 128 l 1,286,-1
 896 128 l 1,287,-1
 896 256 l 1,284,-1
128 128 m 1,288,-1
 256 128 l 1,289,-1
 256 0 l 1,290,-1
 128 0 l 1,291,-1
 128 128 l 1,288,-1
256 128 m 1,292,-1
 384 128 l 1,293,-1
 384 0 l 1,294,-1
 256 0 l 1,295,-1
 256 128 l 1,292,-1
384 128 m 1,296,-1
 512 128 l 1,297,-1
 512 0 l 1,298,-1
 384 0 l 1,299,-1
 384 128 l 1,296,-1
512 128 m 1,300,-1
 640 128 l 1,301,-1
 640 0 l 1,302,-1
 512 0 l 1,303,-1
 512 128 l 1,300,-1
640 128 m 1,304,-1
 768 128 l 1,305,-1
 768 0 l 1,306,-1
 640 0 l 1,307,-1
 640 128 l 1,304,-1
768 128 m 1,308,-1
 896 128 l 1,309,-1
 896 0 l 1,310,-1
 768 0 l 1,311,-1
 768 128 l 1,308,-1
EndSplineSet
EndChar

StartChar: one
Encoding: 49 49 15
Width: 1280
GlyphClass: 1
Flags: W
LayerCount: 2
Fore
SplineSet
384 1792 m 1,0,-1
 512 1792 l 1,1,-1
 512 1664 l 1,2,-1
 384 1664 l 1,3,-1
 384 1792 l 1,0,-1
512 1792 m 1,4,-1
 640 1792 l 1,5,-1
 640 1664 l 1,6,-1
 512 1664 l 1,7,-1
 512 1792 l 1,4,-1
256 1664 m 1,8,-1
 384 1664 l 1,9,-1
 384 1536 l 1,10,-1
 256 1536 l 1,11,-1
 256 1664 l 1,8,-1
384 1664 m 1,12,-1
 512 1664 l 1,13,-1
 512 1536 l 1,14,-1
 384 1536 l 1,15,-1
 384 1664 l 1,12,-1
512 1664 m 1,16,-1
 640 1664 l 1,17,-1
 640 1536 l 1,18,-1
 512 1536 l 1,19,-1
 512 1664 l 1,16,-1
128 1536 m 1,20,-1
 256 1536 l 1,21,-1
 256 1408 l 1,22,-1
 128 1408 l 1,23,-1
 128 1536 l 1,20,-1
256 1536 m 1,24,-1
 384 1536 l 1,25,-1
 384 1408 l 1,26,-1
 256 1408 l 1,27,-1
 256 1536 l 1,24,-1
384 1536 m 1,28,-1
 512 1536 l 1,29,-1
 512 1408 l 1,30,-1
 384 1408 l 1,31,-1
 384 1536 l 1,28,-1
512 1536 m 1,32,-1
 640 1536 l 1,33,-1
 640 1408 l 1,34,-1
 512 1408 l 1,35,-1
 512 1536 l 1,32,-1
0 1408 m 1,36,-1
 128 1408 l 1,37,-1
 128 1280 l 1,38,-1
 0 1280 l 1,39,-1
 0 1408 l 1,36,-1
128 1408 m 1,40,-1
 256 1408 l 1,41,-1
 256 1280 l 1,42,-1
 128 1280 l 1,43,-1
 128 1408 l 1,40,-1
256 1408 m 1,44,-1
 384 1408 l 1,45,-1
 384 1280 l 1,46,-1
 256 1280 l 1,47,-1
 256 1408 l 1,44,-1
384 1408 m 1,48,-1
 512 1408 l 1,49,-1
 512 1280 l 1,50,-1
 384 1280 l 1,51,-1
 384 1408 l 1,48,-1
512 1408 m 1,52,-1
 640 1408 l 1,53,-1
 640 1280 l 1,54,-1
 512 1280 l 1,55,-1
 512 1408 l 1,52,-1
0 1280 m 1,56,-1
 128 1280 l 1,57,-1
 128 1152 l 1,58,-1
 0 1152 l 1,59,-1
 0 1280 l 1,56,-1
128 1280 m 1,60,-1
 256 1280 l 1,61,-1
 256 1152 l 1,62,-1
 128 1152 l 1,63,-1
 128 1280 l 1,60,-1
384 1280 m 1,64,-1
 512 1280 l 1,65,-1
 512 1152 l 1,66,-1
 384 1152 l 1,67,-1
 384 1280 l 1,64,-1
512 1280 m 1,68,-1
 640 1280 l 1,69,-1
 640 1152 l 1,70,-1
 512 1152 l 1,71,-1
 512 1280 l 1,68,-1
384 1152 m 1,72,-1
 512 1152 l 1,73,-1
 512 1024 l 1,74,-1
 384 1024 l 1,75,-1
 384 1152 l 1,72,-1
512 1152 m 1,76,-1
 640 1152 l 1,77,-1
 640 1024 l 1,78,-1
 512 1024 l 1,79,-1
 512 1152 l 1,76,-1
384 1024 m 1,80,-1
 512 1024 l 1,81,-1
 512 896 l 1,82,-1
 384 896 l 1,83,-1
 384 1024 l 1,80,-1
512 1024 m 1,84,-1
 640 1024 l 1,85,-1
 640 896 l 1,86,-1
 512 896 l 1,87,-1
 512 1024 l 1,84,-1
384 896 m 1,88,-1
 512 896 l 1,89,-1
 512 768 l 1,90,-1
 384 768 l 1,91,-1
 384 896 l 1,88,-1
512 896 m 1,92,-1
 640 896 l 1,93,-1
 640 768 l 1,94,-1
 512 768 l 1,95,-1
 512 896 l 1,92,-1
384 768 m 1,96,-1
 512 768 l 1,97,-1
 512 640 l 1,98,-1
 384 640 l 1,99,-1
 384 768 l 1,96,-1
512 768 m 1,100,-1
 640 768 l 1,101,-1
 640 640 l 1,102,-1
 512 640 l 1,103,-1
 512 768 l 1,100,-1
384 640 m 1,104,-1
 512 640 l 1,105,-1
 512 512 l 1,106,-1
 384 512 l 1,107,-1
 384 640 l 1,104,-1
512 640 m 1,108,-1
 640 640 l 1,109,-1
 640 512 l 1,110,-1
 512 512 l 1,111,-1
 512 640 l 1,108,-1
384 512 m 1,112,-1
 512 512 l 1,113,-1
 512 384 l 1,114,-1
 384 384 l 1,115,-1
 384 512 l 1,112,-1
512 512 m 1,116,-1
 640 512 l 1,117,-1
 640 384 l 1,118,-1
 512 384 l 1,119,-1
 512 512 l 1,116,-1
384 384 m 1,120,-1
 512 384 l 1,121,-1
 512 256 l 1,122,-1
 384 256 l 1,123,-1
 384 384 l 1,120,-1
512 384 m 1,124,-1
 640 384 l 1,125,-1
 640 256 l 1,126,-1
 512 256 l 1,127,-1
 512 384 l 1,124,-1
0 256 m 1,128,-1
 128 256 l 1,129,-1
 128 128 l 1,130,-1
 0 128 l 1,131,-1
 0 256 l 1,128,-1
128 256 m 1,132,-1
 256 256 l 1,133,-1
 256 128 l 1,134,-1
 128 128 l 1,135,-1
 128 256 l 1,132,-1
256 256 m 1,136,-1
 384 256 l 1,137,-1
 384 128 l 1,138,-1
 256 128 l 1,139,-1
 256 256 l 1,136,-1
384 256 m 1,140,-1
 512 256 l 1,141,-1
 512 128 l 1,142,-1
 384 128 l 1,143,-1
 384 256 l 1,140,-1
512 256 m 1,144,-1
 640 256 l 1,145,-1
 640 128 l 1,146,-1
 512 128 l 1,147,-1
 512 256 l 1,144,-1
640 256 m 1,148,-1
 768 256 l 1,149,-1
 768 128 l 1,150,-1
 640 128 l 1,151,-1
 640 256 l 1,148,-1
768 256 m 1,152,-1
 896 256 l 1,153,-1
 896 128 l 1,154,-1
 768 128 l 1,155,-1
 768 256 l 1,152,-1
896 256 m 1,156,-1
 1024 256 l 1,157,-1
 1024 128 l 1,158,-1
 896 128 l 1,159,-1
 896 256 l 1,156,-1
0 128 m 1,160,-1
 128 128 l 1,161,-1
 128 0 l 1,162,-1
 0 0 l 1,163,-1
 0 128 l 1,160,-1
128 128 m 1,164,-1
 256 128 l 1,165,-1
 256 0 l 1,166,-1
 128 0 l 1,167,-1
 128 128 l 1,164,-1
256 128 m 1,168,-1
 384 128 l 1,169,-1
 384 0 l 1,170,-1
 256 0 l 1,171,-1
 256 128 l 1,168,-1
384 128 m 1,172,-1
 512 128 l 1,173,-1
 512 0 l 1,174,-1
 384 0 l 1,175,-1
 384 128 l 1,172,-1
512 128 m 1,176,-1
 640 128 l 1,177,-1
 640 0 l 1,178,-1
 512 0 l 1,179,-1
 512 128 l 1,176,-1
640 128 m 1,180,-1
 768 128 l 1,181,-1
 768 0 l 1,182,-1
 640 0 l 1,183,-1
 640 128 l 1,180,-1
768 128 m 1,184,-1
 896 128 l 1,185,-1
 896 0 l 1,186,-1
 768 0 l 1,187,-1
 768 128 l 1,184,-1
896 128 m 1,188,-1
 1024 128 l 1,189,-1
 1024 0 l 1,190,-1
 896 0 l 1,191,-1
 896 128 l 1,188,-1
EndSplineSet
EndChar

StartChar: two
Encoding: 50 50 16
Width: 1280
GlyphClass: 1
Flags: W
LayerCount: 2
Fore
SplineSet
128 1792 m 1,0,-1
 256 1792 l 1,1,-1
 256 1664 l 1,2,-1
 128 1664 l 1,3,-1
 128 1792 l 1,0,-1
256 1792 m 1,4,-1
 384 1792 l 1,5,-1
 384 1664 l 1,6,-1
 256 1664 l 1,7,-1
 256 1792 l 1,4,-1
384 1792 m 1,8,-1
 512 1792 l 1,9,-1
 512 1664 l 1,10,-1
 384 1664 l 1,11,-1
 384 1792 l 1,8,-1
512 1792 m 1,12,-1
 640 1792 l 1,13,-1
 640 1664 l 1,14,-1
 512 1664 l 1,15,-1
 512 1792 l 1,12,-1
640 1792 m 1,16,-1
 768 1792 l 1,17,-1
 768 1664 l 1,18,-1
 640 1664 l 1,19,-1
 640 1792 l 1,16,-1
768 1792 m 1,20,-1
 896 1792 l 1,21,-1
 896 1664 l 1,22,-1
 768 1664 l 1,23,-1
 768 1792 l 1,20,-1
0 1664 m 1,24,-1
 128 1664 l 1,25,-1
 128 1536 l 1,26,-1
 0 1536 l 1,27,-1
 0 1664 l 1,24,-1
128 1664 m 1,28,-1
 256 1664 l 1,29,-1
 256 1536 l 1,30,-1
 128 1536 l 1,31,-1
 128 1664 l 1,28,-1
256 1664 m 1,32,-1
 384 1664 l 1,33,-1
 384 1536 l 1,34,-1
 256 1536 l 1,35,-1
 256 1664 l 1,32,-1
384 1664 m 1,36,-1
 512 1664 l 1,37,-1
 512 1536 l 1,38,-1
 384 1536 l 1,39,-1
 384 1664 l 1,36,-1
512 1664 m 1,40,-1
 640 1664 l 1,41,-1
 640 1536 l 1,42,-1
 512 1536 l 1,43,-1
 512 1664 l 1,40,-1
640 1664 m 1,44,-1
 768 1664 l 1,45,-1
 768 1536 l 1,46,-1
 640 1536 l 1,47,-1
 640 1664 l 1,44,-1
768 1664 m 1,48,-1
 896 1664 l 1,49,-1
 896 1536 l 1,50,-1
 768 1536 l 1,51,-1
 768 1664 l 1,48,-1
896 1664 m 1,52,-1
 1024 1664 l 1,53,-1
 1024 1536 l 1,54,-1
 896 1536 l 1,55,-1
 896 1664 l 1,52,-1
0 1536 m 1,56,-1
 128 1536 l 1,57,-1
 128 1408 l 1,58,-1
 0 1408 l 1,59,-1
 0 1536 l 1,56,-1
128 1536 m 1,60,-1
 256 1536 l 1,61,-1
 256 1408 l 1,62,-1
 128 1408 l 1,63,-1
 128 1536 l 1,60,-1
768 1536 m 1,64,-1
 896 1536 l 1,65,-1
 896 1408 l 1,66,-1
 768 1408 l 1,67,-1
 768 1536 l 1,64,-1
896 1536 m 1,68,-1
 1024 1536 l 1,69,-1
 1024 1408 l 1,70,-1
 896 1408 l 1,71,-1
 896 1536 l 1,68,-1
0 1408 m 1,72,-1
 128 1408 l 1,73,-1
 128 1280 l 1,74,-1
 0 1280 l 1,75,-1
 0 1408 l 1,72,-1
128 1408 m 1,76,-1
 256 1408 l 1,77,-1
 256 1280 l 1,78,-1
 128 1280 l 1,79,-1
 128 1408 l 1,76,-1
768 1408 m 1,80,-1
 896 1408 l 1,81,-1
 896 1280 l 1,82,-1
 768 1280 l 1,83,-1
 768 1408 l 1,80,-1
896 1408 m 1,84,-1
 1024 1408 l 1,85,-1
 1024 1280 l 1,86,-1
 896 1280 l 1,87,-1
 896 1408 l 1,84,-1
0 1280 m 1,88,-1
 128 1280 l 1,89,-1
 128 1152 l 1,90,-1
 0 1152 l 1,91,-1
 0 1280 l 1,88,-1
128 1280 m 1,92,-1
 256 1280 l 1,93,-1
 256 1152 l 1,94,-1
 128 1152 l 1,95,-1
 128 1280 l 1,92,-1
768 1280 m 1,96,-1
 896 1280 l 1,97,-1
 896 1152 l 1,98,-1
 768 1152 l 1,99,-1
 768 1280 l 1,96,-1
896 1280 m 1,100,-1
 1024 1280 l 1,101,-1
 1024 1152 l 1,102,-1
 896 1152 l 1,103,-1
 896 1280 l 1,100,-1
768 1152 m 1,104,-1
 896 1152 l 1,105,-1
 896 1024 l 1,106,-1
 768 1024 l 1,107,-1
 768 1152 l 1,104,-1
896 1152 m 1,108,-1
 1024 1152 l 1,109,-1
 1024 1024 l 1,110,-1
 896 1024 l 1,111,-1
 896 1152 l 1,108,-1
768 1024 m 1,112,-1
 896 1024 l 1,113,-1
 896 896 l 1,114,-1
 768 896 l 1,115,-1
 768 1024 l 1,112,-1
896 1024 m 1,116,-1
 1024 1024 l 1,117,-1
 1024 896 l 1,118,-1
 896 896 l 1,119,-1
 896 1024 l 1,116,-1
640 896 m 1,120,-1
 768 896 l 1,121,-1
 768 768 l 1,122,-1
 640 768 l 1,123,-1
 640 896 l 1,120,-1
768 896 m 1,124,-1
 896 896 l 1,125,-1
 896 768 l 1,126,-1
 768 768 l 1,127,-1
 768 896 l 1,124,-1
896 896 m 1,128,-1
 1024 896 l 1,129,-1
 1024 768 l 1,130,-1
 896 768 l 1,131,-1
 896 896 l 1,128,-1
512 768 m 1,132,-1
 640 768 l 1,133,-1
 640 640 l 1,134,-1
 512 640 l 1,135,-1
 512 768 l 1,132,-1
640 768 m 1,136,-1
 768 768 l 1,137,-1
 768 640 l 1,138,-1
 640 640 l 1,139,-1
 640 768 l 1,136,-1
768 768 m 1,140,-1
 896 768 l 1,141,-1
 896 640 l 1,142,-1
 768 640 l 1,143,-1
 768 768 l 1,140,-1
384 640 m 1,144,-1
 512 640 l 1,145,-1
 512 512 l 1,146,-1
 384 512 l 1,147,-1
 384 640 l 1,144,-1
512 640 m 1,148,-1
 640 640 l 1,149,-1
 640 512 l 1,150,-1
 512 512 l 1,151,-1
 512 640 l 1,148,-1
640 640 m 1,152,-1
 768 640 l 1,153,-1
 768 512 l 1,154,-1
 640 512 l 1,155,-1
 640 640 l 1,152,-1
256 512 m 1,156,-1
 384 512 l 1,157,-1
 384 384 l 1,158,-1
 256 384 l 1,159,-1
 256 512 l 1,156,-1
384 512 m 1,160,-1
 512 512 l 1,161,-1
 512 384 l 1,162,-1
 384 384 l 1,163,-1
 384 512 l 1,160,-1
512 512 m 1,164,-1
 640 512 l 1,165,-1
 640 384 l 1,166,-1
 512 384 l 1,167,-1
 512 512 l 1,164,-1
128 384 m 1,168,-1
 256 384 l 1,169,-1
 256 256 l 1,170,-1
 128 256 l 1,171,-1
 128 384 l 1,168,-1
256 384 m 1,172,-1
 384 384 l 1,173,-1
 384 256 l 1,174,-1
 256 256 l 1,175,-1
 256 384 l 1,172,-1
384 384 m 1,176,-1
 512 384 l 1,177,-1
 512 256 l 1,178,-1
 384 256 l 1,179,-1
 384 384 l 1,176,-1
0 256 m 1,180,-1
 128 256 l 1,181,-1
 128 128 l 1,182,-1
 0 128 l 1,183,-1
 0 256 l 1,180,-1
128 256 m 1,184,-1
 256 256 l 1,185,-1
 256 128 l 1,186,-1
 128 128 l 1,187,-1
 128 256 l 1,184,-1
256 256 m 1,188,-1
 384 256 l 1,189,-1
 384 128 l 1,190,-1
 256 128 l 1,191,-1
 256 256 l 1,188,-1
384 256 m 1,192,-1
 512 256 l 1,193,-1
 512 128 l 1,194,-1
 384 128 l 1,195,-1
 384 256 l 1,192,-1
512 256 m 1,196,-1
 640 256 l 1,197,-1
 640 128 l 1,198,-1
 512 128 l 1,199,-1
 512 256 l 1,196,-1
640 256 m 1,200,-1
 768 256 l 1,201,-1
 768 128 l 1,202,-1
 640 128 l 1,203,-1
 640 256 l 1,200,-1
768 256 m 1,204,-1
 896 256 l 1,205,-1
 896 128 l 1,206,-1
 768 128 l 1,207,-1
 768 256 l 1,204,-1
896 256 m 1,208,-1
 1024 256 l 1,209,-1
 1024 128 l 1,210,-1
 896 128 l 1,211,-1
 896 256 l 1,208,-1
0 128 m 1,212,-1
 128 128 l 1,213,-1
 128 0 l 1,214,-1
 0 0 l 1,215,-1
 0 128 l 1,212,-1
128 128 m 1,216,-1
 256 128 l 1,217,-1
 256 0 l 1,218,-1
 128 0 l 1,219,-1
 128 128 l 1,216,-1
256 128 m 1,220,-1
 384 128 l 1,221,-1
 384 0 l 1,222,-1
 256 0 l 1,223,-1
 256 128 l 1,220,-1
384 128 m 1,224,-1
 512 128 l 1,225,-1
 512 0 l 1,226,-1
 384 0 l 1,227,-1
 384 128 l 1,224,-1
512 128 m 1,228,-1
 640 128 l 1,229,-1
 640 0 l 1,230,-1
 512 0 l 1,231,-1
 512 128 l 1,228,-1
640 128 m 1,232,-1
 768 128 l 1,233,-1
 768 0 l 1,234,-1
 640 0 l 1,235,-1
 640 128 l 1,232,-1
768 128 m 1,236,-1
 896 128 l 1,237,-1
 896 0 l 1,238,-1
 768 0 l 1,239,-1
 768 128 l 1,236,-1
896 128 m 1,240,-1
 1024 128 l 1,241,-1
 1024 0 l 1,242,-1
 896 0 l 1,243,-1
 896 128 l 1,240,-1
EndSplineSet
EndChar

StartChar: three
Encoding: 51 51 17
Width: 1280
GlyphClass: 1
Flags: W
LayerCount: 2
Fore
SplineSet
128 1792 m 1,0,-1
 256 1792 l 1,1,-1
 256 1664 l 1,2,-1
 128 1664 l 1,3,-1
 128 1792 l 1,0,-1
256 1792 m 1,4,-1
 384 1792 l 1,5,-1
 384 1664 l 1,6,-1
 256 1664 l 1,7,-1
 256 1792 l 1,4,-1
384 1792 m 1,8,-1
 512 1792 l 1,9,-1
 512 1664 l 1,10,-1
 384 1664 l 1,11,-1
 384 1792 l 1,8,-1
512 1792 m 1,12,-1
 640 1792 l 1,13,-1
 640 1664 l 1,14,-1
 512 1664 l 1,15,-1
 512 1792 l 1,12,-1
640 1792 m 1,16,-1
 768 1792 l 1,17,-1
 768 1664 l 1,18,-1
 640 1664 l 1,19,-1
 640 1792 l 1,16,-1
768 1792 m 1,20,-1
 896 1792 l 1,21,-1
 896 1664 l 1,22,-1
 768 1664 l 1,23,-1
 768 1792 l 1,20,-1
0 1664 m 1,24,-1
 128 1664 l 1,25,-1
 128 1536 l 1,26,-1
 0 1536 l 1,27,-1
 0 1664 l 1,24,-1
128 1664 m 1,28,-1
 256 1664 l 1,29,-1
 256 1536 l 1,30,-1
 128 1536 l 1,31,-1
 128 1664 l 1,28,-1
256 1664 m 1,32,-1
 384 1664 l 1,33,-1
 384 1536 l 1,34,-1
 256 1536 l 1,35,-1
 256 1664 l 1,32,-1
384 1664 m 1,36,-1
 512 1664 l 1,37,-1
 512 1536 l 1,38,-1
 384 1536 l 1,39,-1
 384 1664 l 1,36,-1
512 1664 m 1,40,-1
 640 1664 l 1,41,-1
 640 1536 l 1,42,-1
 512 1536 l 1,43,-1
 512 1664 l 1,40,-1
640 1664 m 1,44,-1
 768 1664 l 1,45,-1
 768 1536 l 1,46,-1
 640 1536 l 1,47,-1
 640 1664 l 1,44,-1
768 1664 m 1,48,-1
 896 1664 l 1,49,-1
 896 1536 l 1,50,-1
 768 1536 l 1,51,-1
 768 1664 l 1,48,-1
896 1664 m 1,52,-1
 1024 1664 l 1,53,-1
 1024 1536 l 1,54,-1
 896 1536 l 1,55,-1
 896 1664 l 1,52,-1
0 1536 m 1,56,-1
 128 1536 l 1,57,-1
 128 1408 l 1,58,-1
 0 1408 l 1,59,-1
 0 1536 l 1,56,-1
128 1536 m 1,60,-1
 256 1536 l 1,61,-1
 256 1408 l 1,62,-1
 128 1408 l 1,63,-1
 128 1536 l 1,60,-1
768 1536 m 1,64,-1
 896 1536 l 1,65,-1
 896 1408 l 1,66,-1
 768 1408 l 1,67,-1
 768 1536 l 1,64,-1
896 1536 m 1,68,-1
 1024 1536 l 1,69,-1
 1024 1408 l 1,70,-1
 896 1408 l 1,71,-1
 896 1536 l 1,68,-1
0 1408 m 1,72,-1
 128 1408 l 1,73,-1
 128 1280 l 1,74,-1
 0 1280 l 1,75,-1
 0 1408 l 1,72,-1
128 1408 m 1,76,-1
 256 1408 l 1,77,-1
 256 1280 l 1,78,-1
 128 1280 l 1,79,-1
 128 1408 l 1,76,-1
768 1408 m 1,80,-1
 896 1408 l 1,81,-1
 896 1280 l 1,82,-1
 768 1280 l 1,83,-1
 768 1408 l 1,80,-1
896 1408 m 1,84,-1
 1024 1408 l 1,85,-1
 1024 1280 l 1,86,-1
 896 1280 l 1,87,-1
 896 1408 l 1,84,-1
768 1280 m 1,88,-1
 896 1280 l 1,89,-1
 896 1152 l 1,90,-1
 768 1152 l 1,91,-1
 768 1280 l 1,88,-1
896 1280 m 1,92,-1
 1024 1280 l 1,93,-1
 1024 1152 l 1,94,-1
 896 1152 l 1,95,-1
 896 1280 l 1,92,-1
640 1152 m 1,96,-1
 768 1152 l 1,97,-1
 768 1024 l 1,98,-1
 640 1024 l 1,99,-1
 640 1152 l 1,96,-1
768 1152 m 1,100,-1
 896 1152 l 1,101,-1
 896 1024 l 1,102,-1
 768 1024 l 1,103,-1
 768 1152 l 1,100,-1
896 1152 m 1,104,-1
 1024 1152 l 1,105,-1
 1024 1024 l 1,106,-1
 896 1024 l 1,107,-1
 896 1152 l 1,104,-1
512 1024 m 1,108,-1
 640 1024 l 1,109,-1
 640 896 l 1,110,-1
 512 896 l 1,111,-1
 512 1024 l 1,108,-1
640 1024 m 1,112,-1
 768 1024 l 1,113,-1
 768 896 l 1,114,-1
 640 896 l 1,115,-1
 640 1024 l 1,112,-1
768 1024 m 1,116,-1
 896 1024 l 1,117,-1
 896 896 l 1,118,-1
 768 896 l 1,119,-1
 768 1024 l 1,116,-1
512 896 m 1,120,-1
 640 896 l 1,121,-1
 640 768 l 1,122,-1
 512 768 l 1,123,-1
 512 896 l 1,120,-1
640 896 m 1,124,-1
 768 896 l 1,125,-1
 768 768 l 1,126,-1
 640 768 l 1,127,-1
 640 896 l 1,124,-1
768 896 m 1,128,-1
 896 896 l 1,129,-1
 896 768 l 1,130,-1
 768 768 l 1,131,-1
 768 896 l 1,128,-1
640 768 m 1,132,-1
 768 768 l 1,133,-1
 768 640 l 1,134,-1
 640 640 l 1,135,-1
 640 768 l 1,132,-1
768 768 m 1,136,-1
 896 768 l 1,137,-1
 896 640 l 1,138,-1
 768 640 l 1,139,-1
 768 768 l 1,136,-1
896 768 m 1,140,-1
 1024 768 l 1,141,-1
 1024 640 l 1,142,-1
 896 640 l 1,143,-1
 896 768 l 1,140,-1
768 640 m 1,144,-1
 896 640 l 1,145,-1
 896 512 l 1,146,-1
 768 512 l 1,147,-1
 768 640 l 1,144,-1
896 640 m 1,148,-1
 1024 640 l 1,149,-1
 1024 512 l 1,150,-1
 896 512 l 1,151,-1
 896 640 l 1,148,-1
0 512 m 1,152,-1
 128 512 l 1,153,-1
 128 384 l 1,154,-1
 0 384 l 1,155,-1
 0 512 l 1,152,-1
128 512 m 1,156,-1
 256 512 l 1,157,-1
 256 384 l 1,158,-1
 128 384 l 1,159,-1
 128 512 l 1,156,-1
768 512 m 1,160,-1
 896 512 l 1,161,-1
 896 384 l 1,162,-1
 768 384 l 1,163,-1
 768 512 l 1,160,-1
896 512 m 1,164,-1
 1024 512 l 1,165,-1
 1024 384 l 1,166,-1
 896 384 l 1,167,-1
 896 512 l 1,164,-1
0 384 m 1,168,-1
 128 384 l 1,169,-1
 128 256 l 1,170,-1
 0 256 l 1,171,-1
 0 384 l 1,168,-1
128 384 m 1,172,-1
 256 384 l 1,173,-1
 256 256 l 1,174,-1
 128 256 l 1,175,-1
 128 384 l 1,172,-1
768 384 m 1,176,-1
 896 384 l 1,177,-1
 896 256 l 1,178,-1
 768 256 l 1,179,-1
 768 384 l 1,176,-1
896 384 m 1,180,-1
 1024 384 l 1,181,-1
 1024 256 l 1,182,-1
 896 256 l 1,183,-1
 896 384 l 1,180,-1
0 256 m 1,184,-1
 128 256 l 1,185,-1
 128 128 l 1,186,-1
 0 128 l 1,187,-1
 0 256 l 1,184,-1
128 256 m 1,188,-1
 256 256 l 1,189,-1
 256 128 l 1,190,-1
 128 128 l 1,191,-1
 128 256 l 1,188,-1
256 256 m 1,192,-1
 384 256 l 1,193,-1
 384 128 l 1,194,-1
 256 128 l 1,195,-1
 256 256 l 1,192,-1
384 256 m 1,196,-1
 512 256 l 1,197,-1
 512 128 l 1,198,-1
 384 128 l 1,199,-1
 384 256 l 1,196,-1
512 256 m 1,200,-1
 640 256 l 1,201,-1
 640 128 l 1,202,-1
 512 128 l 1,203,-1
 512 256 l 1,200,-1
640 256 m 1,204,-1
 768 256 l 1,205,-1
 768 128 l 1,206,-1
 640 128 l 1,207,-1
 640 256 l 1,204,-1
768 256 m 1,208,-1
 896 256 l 1,209,-1
 896 128 l 1,210,-1
 768 128 l 1,211,-1
 768 256 l 1,208,-1
896 256 m 1,212,-1
 1024 256 l 1,213,-1
 1024 128 l 1,214,-1
 896 128 l 1,215,-1
 896 256 l 1,212,-1
128 128 m 1,216,-1
 256 128 l 1,217,-1
 256 0 l 1,218,-1
 128 0 l 1,219,-1
 128 128 l 1,216,-1
256 128 m 1,220,-1
 384 128 l 1,221,-1
 384 0 l 1,222,-1
 256 0 l 1,223,-1
 256 128 l 1,220,-1
384 128 m 1,224,-1
 512 128 l 1,225,-1
 512 0 l 1,226,-1
 384 0 l 1,227,-1
 384 128 l 1,224,-1
512 128 m 1,228,-1
 640 128 l 1,229,-1
 640 0 l 1,230,-1
 512 0 l 1,231,-1
 512 128 l 1,228,-1
640 128 m 1,232,-1
 768 128 l 1,233,-1
 768 0 l 1,234,-1
 640 0 l 1,235,-1
 640 128 l 1,232,-1
768 128 m 1,236,-1
 896 128 l 1,237,-1
 896 0 l 1,238,-1
 768 0 l 1,239,-1
 768 128 l 1,236,-1
EndSplineSet
EndChar

StartChar: four
Encoding: 52 52 18
Width: 1280
GlyphClass: 1
Flags: W
LayerCount: 2
Fore
SplineSet
0 1792 m 1,0,-1
 128 1792 l 1,1,-1
 128 1664 l 1,2,-1
 0 1664 l 1,3,-1
 0 1792 l 1,0,-1
128 1792 m 1,4,-1
 256 1792 l 1,5,-1
 256 1664 l 1,6,-1
 128 1664 l 1,7,-1
 128 1792 l 1,4,-1
640 1792 m 1,8,-1
 768 1792 l 1,9,-1
 768 1664 l 1,10,-1
 640 1664 l 1,11,-1
 640 1792 l 1,8,-1
768 1792 m 1,12,-1
 896 1792 l 1,13,-1
 896 1664 l 1,14,-1
 768 1664 l 1,15,-1
 768 1792 l 1,12,-1
0 1664 m 1,16,-1
 128 1664 l 1,17,-1
 128 1536 l 1,18,-1
 0 1536 l 1,19,-1
 0 1664 l 1,16,-1
128 1664 m 1,20,-1
 256 1664 l 1,21,-1
 256 1536 l 1,22,-1
 128 1536 l 1,23,-1
 128 1664 l 1,20,-1
640 1664 m 1,24,-1
 768 1664 l 1,25,-1
 768 1536 l 1,26,-1
 640 1536 l 1,27,-1
 640 1664 l 1,24,-1
768 1664 m 1,28,-1
 896 1664 l 1,29,-1
 896 1536 l 1,30,-1
 768 1536 l 1,31,-1
 768 1664 l 1,28,-1
0 1536 m 1,32,-1
 128 1536 l 1,33,-1
 128 1408 l 1,34,-1
 0 1408 l 1,35,-1
 0 1536 l 1,32,-1
128 1536 m 1,36,-1
 256 1536 l 1,37,-1
 256 1408 l 1,38,-1
 128 1408 l 1,39,-1
 128 1536 l 1,36,-1
640 1536 m 1,40,-1
 768 1536 l 1,41,-1
 768 1408 l 1,42,-1
 640 1408 l 1,43,-1
 640 1536 l 1,40,-1
768 1536 m 1,44,-1
 896 1536 l 1,45,-1
 896 1408 l 1,46,-1
 768 1408 l 1,47,-1
 768 1536 l 1,44,-1
0 1408 m 1,48,-1
 128 1408 l 1,49,-1
 128 1280 l 1,50,-1
 0 1280 l 1,51,-1
 0 1408 l 1,48,-1
128 1408 m 1,52,-1
 256 1408 l 1,53,-1
 256 1280 l 1,54,-1
 128 1280 l 1,55,-1
 128 1408 l 1,52,-1
640 1408 m 1,56,-1
 768 1408 l 1,57,-1
 768 1280 l 1,58,-1
 640 1280 l 1,59,-1
 640 1408 l 1,56,-1
768 1408 m 1,60,-1
 896 1408 l 1,61,-1
 896 1280 l 1,62,-1
 768 1280 l 1,63,-1
 768 1408 l 1,60,-1
0 1280 m 1,64,-1
 128 1280 l 1,65,-1
 128 1152 l 1,66,-1
 0 1152 l 1,67,-1
 0 1280 l 1,64,-1
128 1280 m 1,68,-1
 256 1280 l 1,69,-1
 256 1152 l 1,70,-1
 128 1152 l 1,71,-1
 128 1280 l 1,68,-1
640 1280 m 1,72,-1
 768 1280 l 1,73,-1
 768 1152 l 1,74,-1
 640 1152 l 1,75,-1
 640 1280 l 1,72,-1
768 1280 m 1,76,-1
 896 1280 l 1,77,-1
 896 1152 l 1,78,-1
 768 1152 l 1,79,-1
 768 1280 l 1,76,-1
0 1152 m 1,80,-1
 128 1152 l 1,81,-1
 128 1024 l 1,82,-1
 0 1024 l 1,83,-1
 0 1152 l 1,80,-1
128 1152 m 1,84,-1
 256 1152 l 1,85,-1
 256 1024 l 1,86,-1
 128 1024 l 1,87,-1
 128 1152 l 1,84,-1
640 1152 m 1,88,-1
 768 1152 l 1,89,-1
 768 1024 l 1,90,-1
 640 1024 l 1,91,-1
 640 1152 l 1,88,-1
768 1152 m 1,92,-1
 896 1152 l 1,93,-1
 896 1024 l 1,94,-1
 768 1024 l 1,95,-1
 768 1152 l 1,92,-1
0 1024 m 1,96,-1
 128 1024 l 1,97,-1
 128 896 l 1,98,-1
 0 896 l 1,99,-1
 0 1024 l 1,96,-1
128 1024 m 1,100,-1
 256 1024 l 1,101,-1
 256 896 l 1,102,-1
 128 896 l 1,103,-1
 128 1024 l 1,100,-1
256 1024 m 1,104,-1
 384 1024 l 1,105,-1
 384 896 l 1,106,-1
 256 896 l 1,107,-1
 256 1024 l 1,104,-1
384 1024 m 1,108,-1
 512 1024 l 1,109,-1
 512 896 l 1,110,-1
 384 896 l 1,111,-1
 384 1024 l 1,108,-1
512 1024 m 1,112,-1
 640 1024 l 1,113,-1
 640 896 l 1,114,-1
 512 896 l 1,115,-1
 512 1024 l 1,112,-1
640 1024 m 1,116,-1
 768 1024 l 1,117,-1
 768 896 l 1,118,-1
 640 896 l 1,119,-1
 640 1024 l 1,116,-1
768 1024 m 1,120,-1
 896 1024 l 1,121,-1
 896 896 l 1,122,-1
 768 896 l 1,123,-1
 768 1024 l 1,120,-1
896 1024 m 1,124,-1
 1024 1024 l 1,125,-1
 1024 896 l 1,126,-1
 896 896 l 1,127,-1
 896 1024 l 1,124,-1
128 896 m 1,128,-1
 256 896 l 1,129,-1
 256 768 l 1,130,-1
 128 768 l 1,131,-1
 128 896 l 1,128,-1
256 896 m 1,132,-1
 384 896 l 1,133,-1
 384 768 l 1,134,-1
 256 768 l 1,135,-1
 256 896 l 1,132,-1
384 896 m 1,136,-1
 512 896 l 1,137,-1
 512 768 l 1,138,-1
 384 768 l 1,139,-1
 384 896 l 1,136,-1
512 896 m 1,140,-1
 640 896 l 1,141,-1
 640 768 l 1,142,-1
 512 768 l 1,143,-1
 512 896 l 1,140,-1
640 896 m 1,144,-1
 768 896 l 1,145,-1
 768 768 l 1,146,-1
 640 768 l 1,147,-1
 640 896 l 1,144,-1
768 896 m 1,148,-1
 896 896 l 1,149,-1
 896 768 l 1,150,-1
 768 768 l 1,151,-1
 768 896 l 1,148,-1
896 896 m 1,152,-1
 1024 896 l 1,153,-1
 1024 768 l 1,154,-1
 896 768 l 1,155,-1
 896 896 l 1,152,-1
640 768 m 1,156,-1
 768 768 l 1,157,-1
 768 640 l 1,158,-1
 640 640 l 1,159,-1
 640 768 l 1,156,-1
768 768 m 1,160,-1
 896 768 l 1,161,-1
 896 640 l 1,162,-1
 768 640 l 1,163,-1
 768 768 l 1,160,-1
640 640 m 1,164,-1
 768 640 l 1,165,-1
 768 512 l 1,166,-1
 640 512 l 1,167,-1
 640 640 l 1,164,-1
768 640 m 1,168,-1
 896 640 l 1,169,-1
 896 512 l 1,170,-1
 768 512 l 1,171,-1
 768 640 l 1,168,-1
640 512 m 1,172,-1
 768 512 l 1,173,-1
 768 384 l 1,174,-1
 640 384 l 1,175,-1
 640 512 l 1,172,-1
768 512 m 1,176,-1
 896 512 l 1,177,-1
 896 384 l 1,178,-1
 768 384 l 1,179,-1
 768 512 l 1,176,-1
640 384 m 1,180,-1
 768 384 l 1,181,-1
 768 256 l 1,182,-1
 640 256 l 1,183,-1
 640 384 l 1,180,-1
768 384 m 1,184,-1
 896 384 l 1,185,-1
 896 256 l 1,186,-1
 768 256 l 1,187,-1
 768 384 l 1,184,-1
640 256 m 1,188,-1
 768 256 l 1,189,-1
 768 128 l 1,190,-1
 640 128 l 1,191,-1
 640 256 l 1,188,-1
768 256 m 1,192,-1
 896 256 l 1,193,-1
 896 128 l 1,194,-1
 768 128 l 1,195,-1
 768 256 l 1,192,-1
640 128 m 1,196,-1
 768 128 l 1,197,-1
 768 0 l 1,198,-1
 640 0 l 1,199,-1
 640 128 l 1,196,-1
768 128 m 1,200,-1
 896 128 l 1,201,-1
 896 0 l 1,202,-1
 768 0 l 1,203,-1
 768 128 l 1,200,-1
EndSplineSet
EndChar

StartChar: five
Encoding: 53 53 19
Width: 1280
GlyphClass: 1
Flags: W
LayerCount: 2
Fore
SplineSet
0 1792 m 1,0,-1
 128 1792 l 1,1,-1
 128 1664 l 1,2,-1
 0 1664 l 1,3,-1
 0 1792 l 1,0,-1
128 1792 m 1,4,-1
 256 1792 l 1,5,-1
 256 1664 l 1,6,-1
 128 1664 l 1,7,-1
 128 1792 l 1,4,-1
256 1792 m 1,8,-1
 384 1792 l 1,9,-1
 384 1664 l 1,10,-1
 256 1664 l 1,11,-1
 256 1792 l 1,8,-1
384 1792 m 1,12,-1
 512 1792 l 1,13,-1
 512 1664 l 1,14,-1
 384 1664 l 1,15,-1
 384 1792 l 1,12,-1
512 1792 m 1,16,-1
 640 1792 l 1,17,-1
 640 1664 l 1,18,-1
 512 1664 l 1,19,-1
 512 1792 l 1,16,-1
640 1792 m 1,20,-1
 768 1792 l 1,21,-1
 768 1664 l 1,22,-1
 640 1664 l 1,23,-1
 640 1792 l 1,20,-1
768 1792 m 1,24,-1
 896 1792 l 1,25,-1
 896 1664 l 1,26,-1
 768 1664 l 1,27,-1
 768 1792 l 1,24,-1
896 1792 m 1,28,-1
 1024 1792 l 1,29,-1
 1024 1664 l 1,30,-1
 896 1664 l 1,31,-1
 896 1792 l 1,28,-1
0 1664 m 1,32,-1
 128 1664 l 1,33,-1
 128 1536 l 1,34,-1
 0 1536 l 1,35,-1
 0 1664 l 1,32,-1
128 1664 m 1,36,-1
 256 1664 l 1,37,-1
 256 1536 l 1,38,-1
 128 1536 l 1,39,-1
 128 1664 l 1,36,-1
256 1664 m 1,40,-1
 384 1664 l 1,41,-1
 384 1536 l 1,42,-1
 256 1536 l 1,43,-1
 256 1664 l 1,40,-1
384 1664 m 1,44,-1
 512 1664 l 1,45,-1
 512 1536 l 1,46,-1
 384 1536 l 1,47,-1
 384 1664 l 1,44,-1
512 1664 m 1,48,-1
 640 1664 l 1,49,-1
 640 1536 l 1,50,-1
 512 1536 l 1,51,-1
 512 1664 l 1,48,-1
640 1664 m 1,52,-1
 768 1664 l 1,53,-1
 768 1536 l 1,54,-1
 640 1536 l 1,55,-1
 640 1664 l 1,52,-1
768 1664 m 1,56,-1
 896 1664 l 1,57,-1
 896 1536 l 1,58,-1
 768 1536 l 1,59,-1
 768 1664 l 1,56,-1
896 1664 m 1,60,-1
 1024 1664 l 1,61,-1
 1024 1536 l 1,62,-1
 896 1536 l 1,63,-1
 896 1664 l 1,60,-1
0 1536 m 1,64,-1
 128 1536 l 1,65,-1
 128 1408 l 1,66,-1
 0 1408 l 1,67,-1
 0 1536 l 1,64,-1
128 1536 m 1,68,-1
 256 1536 l 1,69,-1
 256 1408 l 1,70,-1
 128 1408 l 1,71,-1
 128 1536 l 1,68,-1
0 1408 m 1,72,-1
 128 1408 l 1,73,-1
 128 1280 l 1,74,-1
 0 1280 l 1,75,-1
 0 1408 l 1,72,-1
128 1408 m 1,76,-1
 256 1408 l 1,77,-1
 256 1280 l 1,78,-1
 128 1280 l 1,79,-1
 128 1408 l 1,76,-1
0 1280 m 1,80,-1
 128 1280 l 1,81,-1
 128 1152 l 1,82,-1
 0 1152 l 1,83,-1
 0 1280 l 1,80,-1
128 1280 m 1,84,-1
 256 1280 l 1,85,-1
 256 1152 l 1,86,-1
 128 1152 l 1,87,-1
 128 1280 l 1,84,-1
0 1152 m 1,88,-1
 128 1152 l 1,89,-1
 128 1024 l 1,90,-1
 0 1024 l 1,91,-1
 0 1152 l 1,88,-1
128 1152 m 1,92,-1
 256 1152 l 1,93,-1
 256 1024 l 1,94,-1
 128 1024 l 1,95,-1
 128 1152 l 1,92,-1
0 1024 m 1,96,-1
 128 1024 l 1,97,-1
 128 896 l 1,98,-1
 0 896 l 1,99,-1
 0 1024 l 1,96,-1
128 1024 m 1,100,-1
 256 1024 l 1,101,-1
 256 896 l 1,102,-1
 128 896 l 1,103,-1
 128 1024 l 1,100,-1
256 1024 m 1,104,-1
 384 1024 l 1,105,-1
 384 896 l 1,106,-1
 256 896 l 1,107,-1
 256 1024 l 1,104,-1
384 1024 m 1,108,-1
 512 1024 l 1,109,-1
 512 896 l 1,110,-1
 384 896 l 1,111,-1
 384 1024 l 1,108,-1
512 1024 m 1,112,-1
 640 1024 l 1,113,-1
 640 896 l 1,114,-1
 512 896 l 1,115,-1
 512 1024 l 1,112,-1
640 1024 m 1,116,-1
 768 1024 l 1,117,-1
 768 896 l 1,118,-1
 640 896 l 1,119,-1
 640 1024 l 1,116,-1
768 1024 m 1,120,-1
 896 1024 l 1,121,-1
 896 896 l 1,122,-1
 768 896 l 1,123,-1
 768 1024 l 1,120,-1
128 896 m 1,124,-1
 256 896 l 1,125,-1
 256 768 l 1,126,-1
 128 768 l 1,127,-1
 128 896 l 1,124,-1
256 896 m 1,128,-1
 384 896 l 1,129,-1
 384 768 l 1,130,-1
 256 768 l 1,131,-1
 256 896 l 1,128,-1
384 896 m 1,132,-1
 512 896 l 1,133,-1
 512 768 l 1,134,-1
 384 768 l 1,135,-1
 384 896 l 1,132,-1
512 896 m 1,136,-1
 640 896 l 1,137,-1
 640 768 l 1,138,-1
 512 768 l 1,139,-1
 512 896 l 1,136,-1
640 896 m 1,140,-1
 768 896 l 1,141,-1
 768 768 l 1,142,-1
 640 768 l 1,143,-1
 640 896 l 1,140,-1
768 896 m 1,144,-1
 896 896 l 1,145,-1
 896 768 l 1,146,-1
 768 768 l 1,147,-1
 768 896 l 1,144,-1
896 896 m 1,148,-1
 1024 896 l 1,149,-1
 1024 768 l 1,150,-1
 896 768 l 1,151,-1
 896 896 l 1,148,-1
768 768 m 1,152,-1
 896 768 l 1,153,-1
 896 640 l 1,154,-1
 768 640 l 1,155,-1
 768 768 l 1,152,-1
896 768 m 1,156,-1
 1024 768 l 1,157,-1
 1024 640 l 1,158,-1
 896 640 l 1,159,-1
 896 768 l 1,156,-1
768 640 m 1,160,-1
 896 640 l 1,161,-1
 896 512 l 1,162,-1
 768 512 l 1,163,-1
 768 640 l 1,160,-1
896 640 m 1,164,-1
 1024 640 l 1,165,-1
 1024 512 l 1,166,-1
 896 512 l 1,167,-1
 896 640 l 1,164,-1
0 512 m 1,168,-1
 128 512 l 1,169,-1
 128 384 l 1,170,-1
 0 384 l 1,171,-1
 0 512 l 1,168,-1
128 512 m 1,172,-1
 256 512 l 1,173,-1
 256 384 l 1,174,-1
 128 384 l 1,175,-1
 128 512 l 1,172,-1
768 512 m 1,176,-1
 896 512 l 1,177,-1
 896 384 l 1,178,-1
 768 384 l 1,179,-1
 768 512 l 1,176,-1
896 512 m 1,180,-1
 1024 512 l 1,181,-1
 1024 384 l 1,182,-1
 896 384 l 1,183,-1
 896 512 l 1,180,-1
0 384 m 1,184,-1
 128 384 l 1,185,-1
 128 256 l 1,186,-1
 0 256 l 1,187,-1
 0 384 l 1,184,-1
128 384 m 1,188,-1
 256 384 l 1,189,-1
 256 256 l 1,190,-1
 128 256 l 1,191,-1
 128 384 l 1,188,-1
768 384 m 1,192,-1
 896 384 l 1,193,-1
 896 256 l 1,194,-1
 768 256 l 1,195,-1
 768 384 l 1,192,-1
896 384 m 1,196,-1
 1024 384 l 1,197,-1
 1024 256 l 1,198,-1
 896 256 l 1,199,-1
 896 384 l 1,196,-1
0 256 m 1,200,-1
 128 256 l 1,201,-1
 128 128 l 1,202,-1
 0 128 l 1,203,-1
 0 256 l 1,200,-1
128 256 m 1,204,-1
 256 256 l 1,205,-1
 256 128 l 1,206,-1
 128 128 l 1,207,-1
 128 256 l 1,204,-1
256 256 m 1,208,-1
 384 256 l 1,209,-1
 384 128 l 1,210,-1
 256 128 l 1,211,-1
 256 256 l 1,208,-1
384 256 m 1,212,-1
 512 256 l 1,213,-1
 512 128 l 1,214,-1
 384 128 l 1,215,-1
 384 256 l 1,212,-1
512 256 m 1,216,-1
 640 256 l 1,217,-1
 640 128 l 1,218,-1
 512 128 l 1,219,-1
 512 256 l 1,216,-1
640 256 m 1,220,-1
 768 256 l 1,221,-1
 768 128 l 1,222,-1
 640 128 l 1,223,-1
 640 256 l 1,220,-1
768 256 m 1,224,-1
 896 256 l 1,225,-1
 896 128 l 1,226,-1
 768 128 l 1,227,-1
 768 256 l 1,224,-1
896 256 m 1,228,-1
 1024 256 l 1,229,-1
 1024 128 l 1,230,-1
 896 128 l 1,231,-1
 896 256 l 1,228,-1
128 128 m 1,232,-1
 256 128 l 1,233,-1
 256 0 l 1,234,-1
 128 0 l 1,235,-1
 128 128 l 1,232,-1
256 128 m 1,236,-1
 384 128 l 1,237,-1
 384 0 l 1,238,-1
 256 0 l 1,239,-1
 256 128 l 1,236,-1
384 128 m 1,240,-1
 512 128 l 1,241,-1
 512 0 l 1,242,-1
 384 0 l 1,243,-1
 384 128 l 1,240,-1
512 128 m 1,244,-1
 640 128 l 1,245,-1
 640 0 l 1,246,-1
 512 0 l 1,247,-1
 512 128 l 1,244,-1
640 128 m 1,248,-1
 768 128 l 1,249,-1
 768 0 l 1,250,-1
 640 0 l 1,251,-1
 640 128 l 1,248,-1
768 128 m 1,252,-1
 896 128 l 1,253,-1
 896 0 l 1,254,-1
 768 0 l 1,255,-1
 768 128 l 1,252,-1
EndSplineSet
EndChar

StartChar: six
Encoding: 54 54 20
Width: 1280
GlyphClass: 1
Flags: W
LayerCount: 2
Fore
SplineSet
128 1792 m 1,0,-1
 256 1792 l 1,1,-1
 256 1664 l 1,2,-1
 128 1664 l 1,3,-1
 128 1792 l 1,0,-1
256 1792 m 1,4,-1
 384 1792 l 1,5,-1
 384 1664 l 1,6,-1
 256 1664 l 1,7,-1
 256 1792 l 1,4,-1
384 1792 m 1,8,-1
 512 1792 l 1,9,-1
 512 1664 l 1,10,-1
 384 1664 l 1,11,-1
 384 1792 l 1,8,-1
512 1792 m 1,12,-1
 640 1792 l 1,13,-1
 640 1664 l 1,14,-1
 512 1664 l 1,15,-1
 512 1792 l 1,12,-1
640 1792 m 1,16,-1
 768 1792 l 1,17,-1
 768 1664 l 1,18,-1
 640 1664 l 1,19,-1
 640 1792 l 1,16,-1
768 1792 m 1,20,-1
 896 1792 l 1,21,-1
 896 1664 l 1,22,-1
 768 1664 l 1,23,-1
 768 1792 l 1,20,-1
0 1664 m 1,24,-1
 128 1664 l 1,25,-1
 128 1536 l 1,26,-1
 0 1536 l 1,27,-1
 0 1664 l 1,24,-1
128 1664 m 1,28,-1
 256 1664 l 1,29,-1
 256 1536 l 1,30,-1
 128 1536 l 1,31,-1
 128 1664 l 1,28,-1
256 1664 m 1,32,-1
 384 1664 l 1,33,-1
 384 1536 l 1,34,-1
 256 1536 l 1,35,-1
 256 1664 l 1,32,-1
384 1664 m 1,36,-1
 512 1664 l 1,37,-1
 512 1536 l 1,38,-1
 384 1536 l 1,39,-1
 384 1664 l 1,36,-1
512 1664 m 1,40,-1
 640 1664 l 1,41,-1
 640 1536 l 1,42,-1
 512 1536 l 1,43,-1
 512 1664 l 1,40,-1
640 1664 m 1,44,-1
 768 1664 l 1,45,-1
 768 1536 l 1,46,-1
 640 1536 l 1,47,-1
 640 1664 l 1,44,-1
768 1664 m 1,48,-1
 896 1664 l 1,49,-1
 896 1536 l 1,50,-1
 768 1536 l 1,51,-1
 768 1664 l 1,48,-1
896 1664 m 1,52,-1
 1024 1664 l 1,53,-1
 1024 1536 l 1,54,-1
 896 1536 l 1,55,-1
 896 1664 l 1,52,-1
0 1536 m 1,56,-1
 128 1536 l 1,57,-1
 128 1408 l 1,58,-1
 0 1408 l 1,59,-1
 0 1536 l 1,56,-1
128 1536 m 1,60,-1
 256 1536 l 1,61,-1
 256 1408 l 1,62,-1
 128 1408 l 1,63,-1
 128 1536 l 1,60,-1
768 1536 m 1,64,-1
 896 1536 l 1,65,-1
 896 1408 l 1,66,-1
 768 1408 l 1,67,-1
 768 1536 l 1,64,-1
896 1536 m 1,68,-1
 1024 1536 l 1,69,-1
 1024 1408 l 1,70,-1
 896 1408 l 1,71,-1
 896 1536 l 1,68,-1
0 1408 m 1,72,-1
 128 1408 l 1,73,-1
 128 1280 l 1,74,-1
 0 1280 l 1,75,-1
 0 1408 l 1,72,-1
128 1408 m 1,76,-1
 256 1408 l 1,77,-1
 256 1280 l 1,78,-1
 128 1280 l 1,79,-1
 128 1408 l 1,76,-1
0 1280 m 1,80,-1
 128 1280 l 1,81,-1
 128 1152 l 1,82,-1
 0 1152 l 1,83,-1
 0 1280 l 1,80,-1
128 1280 m 1,84,-1
 256 1280 l 1,85,-1
 256 1152 l 1,86,-1
 128 1152 l 1,87,-1
 128 1280 l 1,84,-1
0 1152 m 1,88,-1
 128 1152 l 1,89,-1
 128 1024 l 1,90,-1
 0 1024 l 1,91,-1
 0 1152 l 1,88,-1
128 1152 m 1,92,-1
 256 1152 l 1,93,-1
 256 1024 l 1,94,-1
 128 1024 l 1,95,-1
 128 1152 l 1,92,-1
0 1024 m 1,96,-1
 128 1024 l 1,97,-1
 128 896 l 1,98,-1
 0 896 l 1,99,-1
 0 1024 l 1,96,-1
128 1024 m 1,100,-1
 256 1024 l 1,101,-1
 256 896 l 1,102,-1
 128 896 l 1,103,-1
 128 1024 l 1,100,-1
256 1024 m 1,104,-1
 384 1024 l 1,105,-1
 384 896 l 1,106,-1
 256 896 l 1,107,-1
 256 1024 l 1,104,-1
384 1024 m 1,108,-1
 512 1024 l 1,109,-1
 512 896 l 1,110,-1
 384 896 l 1,111,-1
 384 1024 l 1,108,-1
512 1024 m 1,112,-1
 640 1024 l 1,113,-1
 640 896 l 1,114,-1
 512 896 l 1,115,-1
 512 1024 l 1,112,-1
640 1024 m 1,116,-1
 768 1024 l 1,117,-1
 768 896 l 1,118,-1
 640 896 l 1,119,-1
 640 1024 l 1,116,-1
768 1024 m 1,120,-1
 896 1024 l 1,121,-1
 896 896 l 1,122,-1
 768 896 l 1,123,-1
 768 1024 l 1,120,-1
0 896 m 1,124,-1
 128 896 l 1,125,-1
 128 768 l 1,126,-1
 0 768 l 1,127,-1
 0 896 l 1,124,-1
128 896 m 1,128,-1
 256 896 l 1,129,-1
 256 768 l 1,130,-1
 128 768 l 1,131,-1
 128 896 l 1,128,-1
256 896 m 1,132,-1
 384 896 l 1,133,-1
 384 768 l 1,134,-1
 256 768 l 1,135,-1
 256 896 l 1,132,-1
384 896 m 1,136,-1
 512 896 l 1,137,-1
 512 768 l 1,138,-1
 384 768 l 1,139,-1
 384 896 l 1,136,-1
512 896 m 1,140,-1
 640 896 l 1,141,-1
 640 768 l 1,142,-1
 512 768 l 1,143,-1
 512 896 l 1,140,-1
640 896 m 1,144,-1
 768 896 l 1,145,-1
 768 768 l 1,146,-1
 640 768 l 1,147,-1
 640 896 l 1,144,-1
768 896 m 1,148,-1
 896 896 l 1,149,-1
 896 768 l 1,150,-1
 768 768 l 1,151,-1
 768 896 l 1,148,-1
896 896 m 1,152,-1
 1024 896 l 1,153,-1
 1024 768 l 1,154,-1
 896 768 l 1,155,-1
 896 896 l 1,152,-1
0 768 m 1,156,-1
 128 768 l 1,157,-1
 128 640 l 1,158,-1
 0 640 l 1,159,-1
 0 768 l 1,156,-1
128 768 m 1,160,-1
 256 768 l 1,161,-1
 256 640 l 1,162,-1
 128 640 l 1,163,-1
 128 768 l 1,160,-1
768 768 m 1,164,-1
 896 768 l 1,165,-1
 896 640 l 1,166,-1
 768 640 l 1,167,-1
 768 768 l 1,164,-1
896 768 m 1,168,-1
 1024 768 l 1,169,-1
 1024 640 l 1,170,-1
 896 640 l 1,171,-1
 896 768 l 1,168,-1
0 640 m 1,172,-1
 128 640 l 1,173,-1
 128 512 l 1,174,-1
 0 512 l 1,175,-1
 0 640 l 1,172,-1
128 640 m 1,176,-1
 256 640 l 1,177,-1
 256 512 l 1,178,-1
 128 512 l 1,179,-1
 128 640 l 1,176,-1
768 640 m 1,180,-1
 896 640 l 1,181,-1
 896 512 l 1,182,-1
 768 512 l 1,183,-1
 768 640 l 1,180,-1
896 640 m 1,184,-1
 1024 640 l 1,185,-1
 1024 512 l 1,186,-1
 896 512 l 1,187,-1
 896 640 l 1,184,-1
0 512 m 1,188,-1
 128 512 l 1,189,-1
 128 384 l 1,190,-1
 0 384 l 1,191,-1
 0 512 l 1,188,-1
128 512 m 1,192,-1
 256 512 l 1,193,-1
 256 384 l 1,194,-1
 128 384 l 1,195,-1
 128 512 l 1,192,-1
768 512 m 1,196,-1
 896 512 l 1,197,-1
 896 384 l 1,198,-1
 768 384 l 1,199,-1
 768 512 l 1,196,-1
896 512 m 1,200,-1
 1024 512 l 1,201,-1
 1024 384 l 1,202,-1
 896 384 l 1,203,-1
 896 512 l 1,200,-1
0 384 m 1,204,-1
 128 384 l 1,205,-1
 128 256 l 1,206,-1
 0 256 l 1,207,-1
 0 384 l 1,204,-1
128 384 m 1,208,-1
 256 384 l 1,209,-1
 256 256 l 1,210,-1
 128 256 l 1,211,-1
 128 384 l 1,208,-1
768 384 m 1,212,-1
 896 384 l 1,213,-1
 896 256 l 1,214,-1
 768 256 l 1,215,-1
 768 384 l 1,212,-1
896 384 m 1,216,-1
 1024 384 l 1,217,-1
 1024 256 l 1,218,-1
 896 256 l 1,219,-1
 896 384 l 1,216,-1
0 256 m 1,220,-1
 128 256 l 1,221,-1
 128 128 l 1,222,-1
 0 128 l 1,223,-1
 0 256 l 1,220,-1
128 256 m 1,224,-1
 256 256 l 1,225,-1
 256 128 l 1,226,-1
 128 128 l 1,227,-1
 128 256 l 1,224,-1
256 256 m 1,228,-1
 384 256 l 1,229,-1
 384 128 l 1,230,-1
 256 128 l 1,231,-1
 256 256 l 1,228,-1
384 256 m 1,232,-1
 512 256 l 1,233,-1
 512 128 l 1,234,-1
 384 128 l 1,235,-1
 384 256 l 1,232,-1
512 256 m 1,236,-1
 640 256 l 1,237,-1
 640 128 l 1,238,-1
 512 128 l 1,239,-1
 512 256 l 1,236,-1
640 256 m 1,240,-1
 768 256 l 1,241,-1
 768 128 l 1,242,-1
 640 128 l 1,243,-1
 640 256 l 1,240,-1
768 256 m 1,244,-1
 896 256 l 1,245,-1
 896 128 l 1,246,-1
 768 128 l 1,247,-1
 768 256 l 1,244,-1
896 256 m 1,248,-1
 1024 256 l 1,249,-1
 1024 128 l 1,250,-1
 896 128 l 1,251,-1
 896 256 l 1,248,-1
128 128 m 1,252,-1
 256 128 l 1,253,-1
 256 0 l 1,254,-1
 128 0 l 1,255,-1
 128 128 l 1,252,-1
256 128 m 1,256,-1
 384 128 l 1,257,-1
 384 0 l 1,258,-1
 256 0 l 1,259,-1
 256 128 l 1,256,-1
384 128 m 1,260,-1
 512 128 l 1,261,-1
 512 0 l 1,262,-1
 384 0 l 1,263,-1
 384 128 l 1,260,-1
512 128 m 1,264,-1
 640 128 l 1,265,-1
 640 0 l 1,266,-1
 512 0 l 1,267,-1
 512 128 l 1,264,-1
640 128 m 1,268,-1
 768 128 l 1,269,-1
 768 0 l 1,270,-1
 640 0 l 1,271,-1
 640 128 l 1,268,-1
768 128 m 1,272,-1
 896 128 l 1,273,-1
 896 0 l 1,274,-1
 768 0 l 1,275,-1
 768 128 l 1,272,-1
EndSplineSet
EndChar

StartChar: seven
Encoding: 55 55 21
Width: 1280
GlyphClass: 1
Flags: W
LayerCount: 2
Fore
SplineSet
0 1792 m 1,0,-1
 128 1792 l 1,1,-1
 128 1664 l 1,2,-1
 0 1664 l 1,3,-1
 0 1792 l 1,0,-1
128 1792 m 1,4,-1
 256 1792 l 1,5,-1
 256 1664 l 1,6,-1
 128 1664 l 1,7,-1
 128 1792 l 1,4,-1
256 1792 m 1,8,-1
 384 1792 l 1,9,-1
 384 1664 l 1,10,-1
 256 1664 l 1,11,-1
 256 1792 l 1,8,-1
384 1792 m 1,12,-1
 512 1792 l 1,13,-1
 512 1664 l 1,14,-1
 384 1664 l 1,15,-1
 384 1792 l 1,12,-1
512 1792 m 1,16,-1
 640 1792 l 1,17,-1
 640 1664 l 1,18,-1
 512 1664 l 1,19,-1
 512 1792 l 1,16,-1
640 1792 m 1,20,-1
 768 1792 l 1,21,-1
 768 1664 l 1,22,-1
 640 1664 l 1,23,-1
 640 1792 l 1,20,-1
768 1792 m 1,24,-1
 896 1792 l 1,25,-1
 896 1664 l 1,26,-1
 768 1664 l 1,27,-1
 768 1792 l 1,24,-1
896 1792 m 1,28,-1
 1024 1792 l 1,29,-1
 1024 1664 l 1,30,-1
 896 1664 l 1,31,-1
 896 1792 l 1,28,-1
0 1664 m 1,32,-1
 128 1664 l 1,33,-1
 128 1536 l 1,34,-1
 0 1536 l 1,35,-1
 0 1664 l 1,32,-1
128 1664 m 1,36,-1
 256 1664 l 1,37,-1
 256 1536 l 1,38,-1
 128 1536 l 1,39,-1
 128 1664 l 1,36,-1
256 1664 m 1,40,-1
 384 1664 l 1,41,-1
 384 1536 l 1,42,-1
 256 1536 l 1,43,-1
 256 1664 l 1,40,-1
384 1664 m 1,44,-1
 512 1664 l 1,45,-1
 512 1536 l 1,46,-1
 384 1536 l 1,47,-1
 384 1664 l 1,44,-1
512 1664 m 1,48,-1
 640 1664 l 1,49,-1
 640 1536 l 1,50,-1
 512 1536 l 1,51,-1
 512 1664 l 1,48,-1
640 1664 m 1,52,-1
 768 1664 l 1,53,-1
 768 1536 l 1,54,-1
 640 1536 l 1,55,-1
 640 1664 l 1,52,-1
768 1664 m 1,56,-1
 896 1664 l 1,57,-1
 896 1536 l 1,58,-1
 768 1536 l 1,59,-1
 768 1664 l 1,56,-1
896 1664 m 1,60,-1
 1024 1664 l 1,61,-1
 1024 1536 l 1,62,-1
 896 1536 l 1,63,-1
 896 1664 l 1,60,-1
640 1536 m 1,64,-1
 768 1536 l 1,65,-1
 768 1408 l 1,66,-1
 640 1408 l 1,67,-1
 640 1536 l 1,64,-1
768 1536 m 1,68,-1
 896 1536 l 1,69,-1
 896 1408 l 1,70,-1
 768 1408 l 1,71,-1
 768 1536 l 1,68,-1
896 1536 m 1,72,-1
 1024 1536 l 1,73,-1
 1024 1408 l 1,74,-1
 896 1408 l 1,75,-1
 896 1536 l 1,72,-1
640 1408 m 1,76,-1
 768 1408 l 1,77,-1
 768 1280 l 1,78,-1
 640 1280 l 1,79,-1
 640 1408 l 1,76,-1
768 1408 m 1,80,-1
 896 1408 l 1,81,-1
 896 1280 l 1,82,-1
 768 1280 l 1,83,-1
 768 1408 l 1,80,-1
640 1280 m 1,84,-1
 768 1280 l 1,85,-1
 768 1152 l 1,86,-1
 640 1152 l 1,87,-1
 640 1280 l 1,84,-1
768 1280 m 1,88,-1
 896 1280 l 1,89,-1
 896 1152 l 1,90,-1
 768 1152 l 1,91,-1
 768 1280 l 1,88,-1
512 1152 m 1,92,-1
 640 1152 l 1,93,-1
 640 1024 l 1,94,-1
 512 1024 l 1,95,-1
 512 1152 l 1,92,-1
640 1152 m 1,96,-1
 768 1152 l 1,97,-1
 768 1024 l 1,98,-1
 640 1024 l 1,99,-1
 640 1152 l 1,96,-1
768 1152 m 1,100,-1
 896 1152 l 1,101,-1
 896 1024 l 1,102,-1
 768 1024 l 1,103,-1
 768 1152 l 1,100,-1
512 1024 m 1,104,-1
 640 1024 l 1,105,-1
 640 896 l 1,106,-1
 512 896 l 1,107,-1
 512 1024 l 1,104,-1
640 1024 m 1,108,-1
 768 1024 l 1,109,-1
 768 896 l 1,110,-1
 640 896 l 1,111,-1
 640 1024 l 1,108,-1
512 896 m 1,112,-1
 640 896 l 1,113,-1
 640 768 l 1,114,-1
 512 768 l 1,115,-1
 512 896 l 1,112,-1
640 896 m 1,116,-1
 768 896 l 1,117,-1
 768 768 l 1,118,-1
 640 768 l 1,119,-1
 640 896 l 1,116,-1
384 768 m 1,120,-1
 512 768 l 1,121,-1
 512 640 l 1,122,-1
 384 640 l 1,123,-1
 384 768 l 1,120,-1
512 768 m 1,124,-1
 640 768 l 1,125,-1
 640 640 l 1,126,-1
 512 640 l 1,127,-1
 512 768 l 1,124,-1
640 768 m 1,128,-1
 768 768 l 1,129,-1
 768 640 l 1,130,-1
 640 640 l 1,131,-1
 640 768 l 1,128,-1
384 640 m 1,132,-1
 512 640 l 1,133,-1
 512 512 l 1,134,-1
 384 512 l 1,135,-1
 384 640 l 1,132,-1
512 640 m 1,136,-1
 640 640 l 1,137,-1
 640 512 l 1,138,-1
 512 512 l 1,139,-1
 512 640 l 1,136,-1
384 512 m 1,140,-1
 512 512 l 1,141,-1
 512 384 l 1,142,-1
 384 384 l 1,143,-1
 384 512 l 1,140,-1
512 512 m 1,144,-1
 640 512 l 1,145,-1
 640 384 l 1,146,-1
 512 384 l 1,147,-1
 512 512 l 1,144,-1
256 384 m 1,148,-1
 384 384 l 1,149,-1
 384 256 l 1,150,-1
 256 256 l 1,151,-1
 256 384 l 1,148,-1
384 384 m 1,152,-1
 512 384 l 1,153,-1
 512 256 l 1,154,-1
 384 256 l 1,155,-1
 384 384 l 1,152,-1
512 384 m 1,156,-1
 640 384 l 1,157,-1
 640 256 l 1,158,-1
 512 256 l 1,159,-1
 512 384 l 1,156,-1
256 256 m 1,160,-1
 384 256 l 1,161,-1
 384 128 l 1,162,-1
 256 128 l 1,163,-1
 256 256 l 1,160,-1
384 256 m 1,164,-1
 512 256 l 1,165,-1
 512 128 l 1,166,-1
 384 128 l 1,167,-1
 384 256 l 1,164,-1
256 128 m 1,168,-1
 384 128 l 1,169,-1
 384 0 l 1,170,-1
 256 0 l 1,171,-1
 256 128 l 1,168,-1
384 128 m 1,172,-1
 512 128 l 1,173,-1
 512 0 l 1,174,-1
 384 0 l 1,175,-1
 384 128 l 1,172,-1
EndSplineSet
EndChar

StartChar: eight
Encoding: 56 56 22
Width: 1280
GlyphClass: 1
Flags: W
LayerCount: 2
Fore
SplineSet
128 1792 m 1,0,-1
 256 1792 l 1,1,-1
 256 1664 l 1,2,-1
 128 1664 l 1,3,-1
 128 1792 l 1,0,-1
256 1792 m 1,4,-1
 384 1792 l 1,5,-1
 384 1664 l 1,6,-1
 256 1664 l 1,7,-1
 256 1792 l 1,4,-1
384 1792 m 1,8,-1
 512 1792 l 1,9,-1
 512 1664 l 1,10,-1
 384 1664 l 1,11,-1
 384 1792 l 1,8,-1
512 1792 m 1,12,-1
 640 1792 l 1,13,-1
 640 1664 l 1,14,-1
 512 1664 l 1,15,-1
 512 1792 l 1,12,-1
640 1792 m 1,16,-1
 768 1792 l 1,17,-1
 768 1664 l 1,18,-1
 640 1664 l 1,19,-1
 640 1792 l 1,16,-1
768 1792 m 1,20,-1
 896 1792 l 1,21,-1
 896 1664 l 1,22,-1
 768 1664 l 1,23,-1
 768 1792 l 1,20,-1
0 1664 m 1,24,-1
 128 1664 l 1,25,-1
 128 1536 l 1,26,-1
 0 1536 l 1,27,-1
 0 1664 l 1,24,-1
128 1664 m 1,28,-1
 256 1664 l 1,29,-1
 256 1536 l 1,30,-1
 128 1536 l 1,31,-1
 128 1664 l 1,28,-1
256 1664 m 1,32,-1
 384 1664 l 1,33,-1
 384 1536 l 1,34,-1
 256 1536 l 1,35,-1
 256 1664 l 1,32,-1
384 1664 m 1,36,-1
 512 1664 l 1,37,-1
 512 1536 l 1,38,-1
 384 1536 l 1,39,-1
 384 1664 l 1,36,-1
512 1664 m 1,40,-1
 640 1664 l 1,41,-1
 640 1536 l 1,42,-1
 512 1536 l 1,43,-1
 512 1664 l 1,40,-1
640 1664 m 1,44,-1
 768 1664 l 1,45,-1
 768 1536 l 1,46,-1
 640 1536 l 1,47,-1
 640 1664 l 1,44,-1
768 1664 m 1,48,-1
 896 1664 l 1,49,-1
 896 1536 l 1,50,-1
 768 1536 l 1,51,-1
 768 1664 l 1,48,-1
896 1664 m 1,52,-1
 1024 1664 l 1,53,-1
 1024 1536 l 1,54,-1
 896 1536 l 1,55,-1
 896 1664 l 1,52,-1
0 1536 m 1,56,-1
 128 1536 l 1,57,-1
 128 1408 l 1,58,-1
 0 1408 l 1,59,-1
 0 1536 l 1,56,-1
128 1536 m 1,60,-1
 256 1536 l 1,61,-1
 256 1408 l 1,62,-1
 128 1408 l 1,63,-1
 128 1536 l 1,60,-1
768 1536 m 1,64,-1
 896 1536 l 1,65,-1
 896 1408 l 1,66,-1
 768 1408 l 1,67,-1
 768 1536 l 1,64,-1
896 1536 m 1,68,-1
 1024 1536 l 1,69,-1
 1024 1408 l 1,70,-1
 896 1408 l 1,71,-1
 896 1536 l 1,68,-1
0 1408 m 1,72,-1
 128 1408 l 1,73,-1
 128 1280 l 1,74,-1
 0 1280 l 1,75,-1
 0 1408 l 1,72,-1
128 1408 m 1,76,-1
 256 1408 l 1,77,-1
 256 1280 l 1,78,-1
 128 1280 l 1,79,-1
 128 1408 l 1,76,-1
768 1408 m 1,80,-1
 896 1408 l 1,81,-1
 896 1280 l 1,82,-1
 768 1280 l 1,83,-1
 768 1408 l 1,80,-1
896 1408 m 1,84,-1
 1024 1408 l 1,85,-1
 1024 1280 l 1,86,-1
 896 1280 l 1,87,-1
 896 1408 l 1,84,-1
0 1280 m 1,88,-1
 128 1280 l 1,89,-1
 128 1152 l 1,90,-1
 0 1152 l 1,91,-1
 0 1280 l 1,88,-1
128 1280 m 1,92,-1
 256 1280 l 1,93,-1
 256 1152 l 1,94,-1
 128 1152 l 1,95,-1
 128 1280 l 1,92,-1
768 1280 m 1,96,-1
 896 1280 l 1,97,-1
 896 1152 l 1,98,-1
 768 1152 l 1,99,-1
 768 1280 l 1,96,-1
896 1280 m 1,100,-1
 1024 1280 l 1,101,-1
 1024 1152 l 1,102,-1
 896 1152 l 1,103,-1
 896 1280 l 1,100,-1
0 1152 m 1,104,-1
 128 1152 l 1,105,-1
 128 1024 l 1,106,-1
 0 1024 l 1,107,-1
 0 1152 l 1,104,-1
128 1152 m 1,108,-1
 256 1152 l 1,109,-1
 256 1024 l 1,110,-1
 128 1024 l 1,111,-1
 128 1152 l 1,108,-1
256 1152 m 1,112,-1
 384 1152 l 1,113,-1
 384 1024 l 1,114,-1
 256 1024 l 1,115,-1
 256 1152 l 1,112,-1
640 1152 m 1,116,-1
 768 1152 l 1,117,-1
 768 1024 l 1,118,-1
 640 1024 l 1,119,-1
 640 1152 l 1,116,-1
768 1152 m 1,120,-1
 896 1152 l 1,121,-1
 896 1024 l 1,122,-1
 768 1024 l 1,123,-1
 768 1152 l 1,120,-1
896 1152 m 1,124,-1
 1024 1152 l 1,125,-1
 1024 1024 l 1,126,-1
 896 1024 l 1,127,-1
 896 1152 l 1,124,-1
128 1024 m 1,128,-1
 256 1024 l 1,129,-1
 256 896 l 1,130,-1
 128 896 l 1,131,-1
 128 1024 l 1,128,-1
256 1024 m 1,132,-1
 384 1024 l 1,133,-1
 384 896 l 1,134,-1
 256 896 l 1,135,-1
 256 1024 l 1,132,-1
384 1024 m 1,136,-1
 512 1024 l 1,137,-1
 512 896 l 1,138,-1
 384 896 l 1,139,-1
 384 1024 l 1,136,-1
512 1024 m 1,140,-1
 640 1024 l 1,141,-1
 640 896 l 1,142,-1
 512 896 l 1,143,-1
 512 1024 l 1,140,-1
640 1024 m 1,144,-1
 768 1024 l 1,145,-1
 768 896 l 1,146,-1
 640 896 l 1,147,-1
 640 1024 l 1,144,-1
768 1024 m 1,148,-1
 896 1024 l 1,149,-1
 896 896 l 1,150,-1
 768 896 l 1,151,-1
 768 1024 l 1,148,-1
128 896 m 1,152,-1
 256 896 l 1,153,-1
 256 768 l 1,154,-1
 128 768 l 1,155,-1
 128 896 l 1,152,-1
256 896 m 1,156,-1
 384 896 l 1,157,-1
 384 768 l 1,158,-1
 256 768 l 1,159,-1
 256 896 l 1,156,-1
384 896 m 1,160,-1
 512 896 l 1,161,-1
 512 768 l 1,162,-1
 384 768 l 1,163,-1
 384 896 l 1,160,-1
512 896 m 1,164,-1
 640 896 l 1,165,-1
 640 768 l 1,166,-1
 512 768 l 1,167,-1
 512 896 l 1,164,-1
640 896 m 1,168,-1
 768 896 l 1,169,-1
 768 768 l 1,170,-1
 640 768 l 1,171,-1
 640 896 l 1,168,-1
768 896 m 1,172,-1
 896 896 l 1,173,-1
 896 768 l 1,174,-1
 768 768 l 1,175,-1
 768 896 l 1,172,-1
0 768 m 1,176,-1
 128 768 l 1,177,-1
 128 640 l 1,178,-1
 0 640 l 1,179,-1
 0 768 l 1,176,-1
128 768 m 1,180,-1
 256 768 l 1,181,-1
 256 640 l 1,182,-1
 128 640 l 1,183,-1
 128 768 l 1,180,-1
256 768 m 1,184,-1
 384 768 l 1,185,-1
 384 640 l 1,186,-1
 256 640 l 1,187,-1
 256 768 l 1,184,-1
640 768 m 1,188,-1
 768 768 l 1,189,-1
 768 640 l 1,190,-1
 640 640 l 1,191,-1
 640 768 l 1,188,-1
768 768 m 1,192,-1
 896 768 l 1,193,-1
 896 640 l 1,194,-1
 768 640 l 1,195,-1
 768 768 l 1,192,-1
896 768 m 1,196,-1
 1024 768 l 1,197,-1
 1024 640 l 1,198,-1
 896 640 l 1,199,-1
 896 768 l 1,196,-1
0 640 m 1,200,-1
 128 640 l 1,201,-1
 128 512 l 1,202,-1
 0 512 l 1,203,-1
 0 640 l 1,200,-1
128 640 m 1,204,-1
 256 640 l 1,205,-1
 256 512 l 1,206,-1
 128 512 l 1,207,-1
 128 640 l 1,204,-1
768 640 m 1,208,-1
 896 640 l 1,209,-1
 896 512 l 1,210,-1
 768 512 l 1,211,-1
 768 640 l 1,208,-1
896 640 m 1,212,-1
 1024 640 l 1,213,-1
 1024 512 l 1,214,-1
 896 512 l 1,215,-1
 896 640 l 1,212,-1
0 512 m 1,216,-1
 128 512 l 1,217,-1
 128 384 l 1,218,-1
 0 384 l 1,219,-1
 0 512 l 1,216,-1
128 512 m 1,220,-1
 256 512 l 1,221,-1
 256 384 l 1,222,-1
 128 384 l 1,223,-1
 128 512 l 1,220,-1
768 512 m 1,224,-1
 896 512 l 1,225,-1
 896 384 l 1,226,-1
 768 384 l 1,227,-1
 768 512 l 1,224,-1
896 512 m 1,228,-1
 1024 512 l 1,229,-1
 1024 384 l 1,230,-1
 896 384 l 1,231,-1
 896 512 l 1,228,-1
0 384 m 1,232,-1
 128 384 l 1,233,-1
 128 256 l 1,234,-1
 0 256 l 1,235,-1
 0 384 l 1,232,-1
128 384 m 1,236,-1
 256 384 l 1,237,-1
 256 256 l 1,238,-1
 128 256 l 1,239,-1
 128 384 l 1,236,-1
768 384 m 1,240,-1
 896 384 l 1,241,-1
 896 256 l 1,242,-1
 768 256 l 1,243,-1
 768 384 l 1,240,-1
896 384 m 1,244,-1
 1024 384 l 1,245,-1
 1024 256 l 1,246,-1
 896 256 l 1,247,-1
 896 384 l 1,244,-1
0 256 m 1,248,-1
 128 256 l 1,249,-1
 128 128 l 1,250,-1
 0 128 l 1,251,-1
 0 256 l 1,248,-1
128 256 m 1,252,-1
 256 256 l 1,253,-1
 256 128 l 1,254,-1
 128 128 l 1,255,-1
 128 256 l 1,252,-1
256 256 m 1,256,-1
 384 256 l 1,257,-1
 384 128 l 1,258,-1
 256 128 l 1,259,-1
 256 256 l 1,256,-1
384 256 m 1,260,-1
 512 256 l 1,261,-1
 512 128 l 1,262,-1
 384 128 l 1,263,-1
 384 256 l 1,260,-1
512 256 m 1,264,-1
 640 256 l 1,265,-1
 640 128 l 1,266,-1
 512 128 l 1,267,-1
 512 256 l 1,264,-1
640 256 m 1,268,-1
 768 256 l 1,269,-1
 768 128 l 1,270,-1
 640 128 l 1,271,-1
 640 256 l 1,268,-1
768 256 m 1,272,-1
 896 256 l 1,273,-1
 896 128 l 1,274,-1
 768 128 l 1,275,-1
 768 256 l 1,272,-1
896 256 m 1,276,-1
 1024 256 l 1,277,-1
 1024 128 l 1,278,-1
 896 128 l 1,279,-1
 896 256 l 1,276,-1
128 128 m 1,280,-1
 256 128 l 1,281,-1
 256 0 l 1,282,-1
 128 0 l 1,283,-1
 128 128 l 1,280,-1
256 128 m 1,284,-1
 384 128 l 1,285,-1
 384 0 l 1,286,-1
 256 0 l 1,287,-1
 256 128 l 1,284,-1
384 128 m 1,288,-1
 512 128 l 1,289,-1
 512 0 l 1,290,-1
 384 0 l 1,291,-1
 384 128 l 1,288,-1
512 128 m 1,292,-1
 640 128 l 1,293,-1
 640 0 l 1,294,-1
 512 0 l 1,295,-1
 512 128 l 1,292,-1
640 128 m 1,296,-1
 768 128 l 1,297,-1
 768 0 l 1,298,-1
 640 0 l 1,299,-1
 640 128 l 1,296,-1
768 128 m 1,300,-1
 896 128 l 1,301,-1
 896 0 l 1,302,-1
 768 0 l 1,303,-1
 768 128 l 1,300,-1
EndSplineSet
EndChar

StartChar: nine
Encoding: 57 57 23
Width: 1280
GlyphClass: 1
Flags: W
LayerCount: 2
Fore
SplineSet
128 1792 m 1,0,-1
 256 1792 l 1,1,-1
 256 1664 l 1,2,-1
 128 1664 l 1,3,-1
 128 1792 l 1,0,-1
256 1792 m 1,4,-1
 384 1792 l 1,5,-1
 384 1664 l 1,6,-1
 256 1664 l 1,7,-1
 256 1792 l 1,4,-1
384 1792 m 1,8,-1
 512 1792 l 1,9,-1
 512 1664 l 1,10,-1
 384 1664 l 1,11,-1
 384 1792 l 1,8,-1
512 1792 m 1,12,-1
 640 1792 l 1,13,-1
 640 1664 l 1,14,-1
 512 1664 l 1,15,-1
 512 1792 l 1,12,-1
640 1792 m 1,16,-1
 768 1792 l 1,17,-1
 768 1664 l 1,18,-1
 640 1664 l 1,19,-1
 640 1792 l 1,16,-1
768 1792 m 1,20,-1
 896 1792 l 1,21,-1
 896 1664 l 1,22,-1
 768 1664 l 1,23,-1
 768 1792 l 1,20,-1
0 1664 m 1,24,-1
 128 1664 l 1,25,-1
 128 1536 l 1,26,-1
 0 1536 l 1,27,-1
 0 1664 l 1,24,-1
128 1664 m 1,28,-1
 256 1664 l 1,29,-1
 256 1536 l 1,30,-1
 128 1536 l 1,31,-1
 128 1664 l 1,28,-1
256 1664 m 1,32,-1
 384 1664 l 1,33,-1
 384 1536 l 1,34,-1
 256 1536 l 1,35,-1
 256 1664 l 1,32,-1
384 1664 m 1,36,-1
 512 1664 l 1,37,-1
 512 1536 l 1,38,-1
 384 1536 l 1,39,-1
 384 1664 l 1,36,-1
512 1664 m 1,40,-1
 640 1664 l 1,41,-1
 640 1536 l 1,42,-1
 512 1536 l 1,43,-1
 512 1664 l 1,40,-1
640 1664 m 1,44,-1
 768 1664 l 1,45,-1
 768 1536 l 1,46,-1
 640 1536 l 1,47,-1
 640 1664 l 1,44,-1
768 1664 m 1,48,-1
 896 1664 l 1,49,-1
 896 1536 l 1,50,-1
 768 1536 l 1,51,-1
 768 1664 l 1,48,-1
896 1664 m 1,52,-1
 1024 1664 l 1,53,-1
 1024 1536 l 1,54,-1
 896 1536 l 1,55,-1
 896 1664 l 1,52,-1
0 1536 m 1,56,-1
 128 1536 l 1,57,-1
 128 1408 l 1,58,-1
 0 1408 l 1,59,-1
 0 1536 l 1,56,-1
128 1536 m 1,60,-1
 256 1536 l 1,61,-1
 256 1408 l 1,62,-1
 128 1408 l 1,63,-1
 128 1536 l 1,60,-1
768 1536 m 1,64,-1
 896 1536 l 1,65,-1
 896 1408 l 1,66,-1
 768 1408 l 1,67,-1
 768 1536 l 1,64,-1
896 1536 m 1,68,-1
 1024 1536 l 1,69,-1
 1024 1408 l 1,70,-1
 896 1408 l 1,71,-1
 896 1536 l 1,68,-1
0 1408 m 1,72,-1
 128 1408 l 1,73,-1
 128 1280 l 1,74,-1
 0 1280 l 1,75,-1
 0 1408 l 1,72,-1
128 1408 m 1,76,-1
 256 1408 l 1,77,-1
 256 1280 l 1,78,-1
 128 1280 l 1,79,-1
 128 1408 l 1,76,-1
768 1408 m 1,80,-1
 896 1408 l 1,81,-1
 896 1280 l 1,82,-1
 768 1280 l 1,83,-1
 768 1408 l 1,80,-1
896 1408 m 1,84,-1
 1024 1408 l 1,85,-1
 1024 1280 l 1,86,-1
 896 1280 l 1,87,-1
 896 1408 l 1,84,-1
0 1280 m 1,88,-1
 128 1280 l 1,89,-1
 128 1152 l 1,90,-1
 0 1152 l 1,91,-1
 0 1280 l 1,88,-1
128 1280 m 1,92,-1
 256 1280 l 1,93,-1
 256 1152 l 1,94,-1
 128 1152 l 1,95,-1
 128 1280 l 1,92,-1
768 1280 m 1,96,-1
 896 1280 l 1,97,-1
 896 1152 l 1,98,-1
 768 1152 l 1,99,-1
 768 1280 l 1,96,-1
896 1280 m 1,100,-1
 1024 1280 l 1,101,-1
 1024 1152 l 1,102,-1
 896 1152 l 1,103,-1
 896 1280 l 1,100,-1
0 1152 m 1,104,-1
 128 1152 l 1,105,-1
 128 1024 l 1,106,-1
 0 1024 l 1,107,-1
 0 1152 l 1,104,-1
128 1152 m 1,108,-1
 256 1152 l 1,109,-1
 256 1024 l 1,110,-1
 128 1024 l 1,111,-1
 128 1152 l 1,108,-1
768 1152 m 1,112,-1
 896 1152 l 1,113,-1
 896 1024 l 1,114,-1
 768 1024 l 1,115,-1
 768 1152 l 1,112,-1
896 1152 m 1,116,-1
 1024 1152 l 1,117,-1
 1024 1024 l 1,118,-1
 896 1024 l 1,119,-1
 896 1152 l 1,116,-1
0 1024 m 1,120,-1
 128 1024 l 1,121,-1
 128 896 l 1,122,-1
 0 896 l 1,123,-1
 0 1024 l 1,120,-1
128 1024 m 1,124,-1
 256 1024 l 1,125,-1
 256 896 l 1,126,-1
 128 896 l 1,127,-1
 128 1024 l 1,124,-1
256 1024 m 1,128,-1
 384 1024 l 1,129,-1
 384 896 l 1,130,-1
 256 896 l 1,131,-1
 256 1024 l 1,128,-1
384 1024 m 1,132,-1
 512 1024 l 1,133,-1
 512 896 l 1,134,-1
 384 896 l 1,135,-1
 384 1024 l 1,132,-1
512 1024 m 1,136,-1
 640 1024 l 1,137,-1
 640 896 l 1,138,-1
 512 896 l 1,139,-1
 512 1024 l 1,136,-1
640 1024 m 1,140,-1
 768 1024 l 1,141,-1
 768 896 l 1,142,-1
 640 896 l 1,143,-1
 640 1024 l 1,140,-1
768 1024 m 1,144,-1
 896 1024 l 1,145,-1
 896 896 l 1,146,-1
 768 896 l 1,147,-1
 768 1024 l 1,144,-1
896 1024 m 1,148,-1
 1024 1024 l 1,149,-1
 1024 896 l 1,150,-1
 896 896 l 1,151,-1
 896 1024 l 1,148,-1
128 896 m 1,152,-1
 256 896 l 1,153,-1
 256 768 l 1,154,-1
 128 768 l 1,155,-1
 128 896 l 1,152,-1
256 896 m 1,156,-1
 384 896 l 1,157,-1
 384 768 l 1,158,-1
 256 768 l 1,159,-1
 256 896 l 1,156,-1
384 896 m 1,160,-1
 512 896 l 1,161,-1
 512 768 l 1,162,-1
 384 768 l 1,163,-1
 384 896 l 1,160,-1
512 896 m 1,164,-1
 640 896 l 1,165,-1
 640 768 l 1,166,-1
 512 768 l 1,167,-1
 512 896 l 1,164,-1
640 896 m 1,168,-1
 768 896 l 1,169,-1
 768 768 l 1,170,-1
 640 768 l 1,171,-1
 640 896 l 1,168,-1
768 896 m 1,172,-1
 896 896 l 1,173,-1
 896 768 l 1,174,-1
 768 768 l 1,175,-1
 768 896 l 1,172,-1
896 896 m 1,176,-1
 1024 896 l 1,177,-1
 1024 768 l 1,178,-1
 896 768 l 1,179,-1
 896 896 l 1,176,-1
768 768 m 1,180,-1
 896 768 l 1,181,-1
 896 640 l 1,182,-1
 768 640 l 1,183,-1
 768 768 l 1,180,-1
896 768 m 1,184,-1
 1024 768 l 1,185,-1
 1024 640 l 1,186,-1
 896 640 l 1,187,-1
 896 768 l 1,184,-1
768 640 m 1,188,-1
 896 640 l 1,189,-1
 896 512 l 1,190,-1
 768 512 l 1,191,-1
 768 640 l 1,188,-1
896 640 m 1,192,-1
 1024 640 l 1,193,-1
 1024 512 l 1,194,-1
 896 512 l 1,195,-1
 896 640 l 1,192,-1
0 512 m 1,196,-1
 128 512 l 1,197,-1
 128 384 l 1,198,-1
 0 384 l 1,199,-1
 0 512 l 1,196,-1
128 512 m 1,200,-1
 256 512 l 1,201,-1
 256 384 l 1,202,-1
 128 384 l 1,203,-1
 128 512 l 1,200,-1
768 512 m 1,204,-1
 896 512 l 1,205,-1
 896 384 l 1,206,-1
 768 384 l 1,207,-1
 768 512 l 1,204,-1
896 512 m 1,208,-1
 1024 512 l 1,209,-1
 1024 384 l 1,210,-1
 896 384 l 1,211,-1
 896 512 l 1,208,-1
0 384 m 1,212,-1
 128 384 l 1,213,-1
 128 256 l 1,214,-1
 0 256 l 1,215,-1
 0 384 l 1,212,-1
128 384 m 1,216,-1
 256 384 l 1,217,-1
 256 256 l 1,218,-1
 128 256 l 1,219,-1
 128 384 l 1,216,-1
768 384 m 1,220,-1
 896 384 l 1,221,-1
 896 256 l 1,222,-1
 768 256 l 1,223,-1
 768 384 l 1,220,-1
896 384 m 1,224,-1
 1024 384 l 1,225,-1
 1024 256 l 1,226,-1
 896 256 l 1,227,-1
 896 384 l 1,224,-1
0 256 m 1,228,-1
 128 256 l 1,229,-1
 128 128 l 1,230,-1
 0 128 l 1,231,-1
 0 256 l 1,228,-1
128 256 m 1,232,-1
 256 256 l 1,233,-1
 256 128 l 1,234,-1
 128 128 l 1,235,-1
 128 256 l 1,232,-1
256 256 m 1,236,-1
 384 256 l 1,237,-1
 384 128 l 1,238,-1
 256 128 l 1,239,-1
 256 256 l 1,236,-1
384 256 m 1,240,-1
 512 256 l 1,241,-1
 512 128 l 1,242,-1
 384 128 l 1,243,-1
 384 256 l 1,240,-1
512 256 m 1,244,-1
 640 256 l 1,245,-1
 640 128 l 1,246,-1
 512 128 l 1,247,-1
 512 256 l 1,244,-1
640 256 m 1,248,-1
 768 256 l 1,249,-1
 768 128 l 1,250,-1
 640 128 l 1,251,-1
 640 256 l 1,248,-1
768 256 m 1,252,-1
 896 256 l 1,253,-1
 896 128 l 1,254,-1
 768 128 l 1,255,-1
 768 256 l 1,252,-1
896 256 m 1,256,-1
 1024 256 l 1,257,-1
 1024 128 l 1,258,-1
 896 128 l 1,259,-1
 896 256 l 1,256,-1
128 128 m 1,260,-1
 256 128 l 1,261,-1
 256 0 l 1,262,-1
 128 0 l 1,263,-1
 128 128 l 1,260,-1
256 128 m 1,264,-1
 384 128 l 1,265,-1
 384 0 l 1,266,-1
 256 0 l 1,267,-1
 256 128 l 1,264,-1
384 128 m 1,268,-1
 512 128 l 1,269,-1
 512 0 l 1,270,-1
 384 0 l 1,271,-1
 384 128 l 1,268,-1
512 128 m 1,272,-1
 640 128 l 1,273,-1
 640 0 l 1,274,-1
 512 0 l 1,275,-1
 512 128 l 1,272,-1
640 128 m 1,276,-1
 768 128 l 1,277,-1
 768 0 l 1,278,-1
 640 0 l 1,279,-1
 640 128 l 1,276,-1
768 128 m 1,280,-1
 896 128 l 1,281,-1
 896 0 l 1,282,-1
 768 0 l 1,283,-1
 768 128 l 1,280,-1
EndSplineSet
EndChar

StartChar: colon
Encoding: 58 58 24
Width: 768
GlyphClass: 1
Flags: W
LayerCount: 2
Fore
SplineSet
128 1664 m 1,0,-1
 256 1664 l 1,1,-1
 256 1536 l 1,2,-1
 128 1536 l 1,3,-1
 128 1664 l 1,0,-1
256 1664 m 1,4,-1
 384 1664 l 1,5,-1
 384 1536 l 1,6,-1
 256 1536 l 1,7,-1
 256 1664 l 1,4,-1
0 1536 m 1,8,-1
 128 1536 l 1,9,-1
 128 1408 l 1,10,-1
 0 1408 l 1,11,-1
 0 1536 l 1,8,-1
128 1536 m 1,12,-1
 256 1536 l 1,13,-1
 256 1408 l 1,14,-1
 128 1408 l 1,15,-1
 128 1536 l 1,12,-1
256 1536 m 1,16,-1
 384 1536 l 1,17,-1
 384 1408 l 1,18,-1
 256 1408 l 1,19,-1
 256 1536 l 1,16,-1
384 1536 m 1,20,-1
 512 1536 l 1,21,-1
 512 1408 l 1,22,-1
 384 1408 l 1,23,-1
 384 1536 l 1,20,-1
0 1408 m 1,24,-1
 128 1408 l 1,25,-1
 128 1280 l 1,26,-1
 0 1280 l 1,27,-1
 0 1408 l 1,24,-1
128 1408 m 1,28,-1
 256 1408 l 1,29,-1
 256 1280 l 1,30,-1
 128 1280 l 1,31,-1
 128 1408 l 1,28,-1
256 1408 m 1,32,-1
 384 1408 l 1,33,-1
 384 1280 l 1,34,-1
 256 1280 l 1,35,-1
 256 1408 l 1,32,-1
384 1408 m 1,36,-1
 512 1408 l 1,37,-1
 512 1280 l 1,38,-1
 384 1280 l 1,39,-1
 384 1408 l 1,36,-1
128 1280 m 1,40,-1
 256 1280 l 1,41,-1
 256 1152 l 1,42,-1
 128 1152 l 1,43,-1
 128 1280 l 1,40,-1
256 1280 m 1,44,-1
 384 1280 l 1,45,-1
 384 1152 l 1,46,-1
 256 1152 l 1,47,-1
 256 1280 l 1,44,-1
128 640 m 1,48,-1
 256 640 l 1,49,-1
 256 512 l 1,50,-1
 128 512 l 1,51,-1
 128 640 l 1,48,-1
256 640 m 1,52,-1
 384 640 l 1,53,-1
 384 512 l 1,54,-1
 256 512 l 1,55,-1
 256 640 l 1,52,-1
0 512 m 1,56,-1
 128 512 l 1,57,-1
 128 384 l 1,58,-1
 0 384 l 1,59,-1
 0 512 l 1,56,-1
128 512 m 1,60,-1
 256 512 l 1,61,-1
 256 384 l 1,62,-1
 128 384 l 1,63,-1
 128 512 l 1,60,-1
256 512 m 1,64,-1
 384 512 l 1,65,-1
 384 384 l 1,66,-1
 256 384 l 1,67,-1
 256 512 l 1,64,-1
384 512 m 1,68,-1
 512 512 l 1,69,-1
 512 384 l 1,70,-1
 384 384 l 1,71,-1
 384 512 l 1,68,-1
0 384 m 1,72,-1
 128 384 l 1,73,-1
 128 256 l 1,74,-1
 0 256 l 1,75,-1
 0 384 l 1,72,-1
128 384 m 1,76,-1
 256 384 l 1,77,-1
 256 256 l 1,78,-1
 128 256 l 1,79,-1
 128 384 l 1,76,-1
256 384 m 1,80,-1
 384 384 l 1,81,-1
 384 256 l 1,82,-1
 256 256 l 1,83,-1
 256 384 l 1,80,-1
384 384 m 1,84,-1
 512 384 l 1,85,-1
 512 256 l 1,86,-1
 384 256 l 1,87,-1
 384 384 l 1,84,-1
128 256 m 1,88,-1
 256 256 l 1,89,-1
 256 128 l 1,90,-1
 128 128 l 1,91,-1
 128 256 l 1,88,-1
256 256 m 1,92,-1
 384 256 l 1,93,-1
 384 128 l 1,94,-1
 256 128 l 1,95,-1
 256 256 l 1,92,-1
EndSplineSet
EndChar

StartChar: semicolon
Encoding: 59 59 25
Width: 768
GlyphClass: 1
Flags: W
LayerCount: 2
Fore
SplineSet
128 1664 m 1,0,-1
 256 1664 l 1,1,-1
 256 1536 l 1,2,-1
 128 1536 l 1,3,-1
 128 1664 l 1,0,-1
256 1664 m 1,4,-1
 384 1664 l 1,5,-1
 384 1536 l 1,6,-1
 256 1536 l 1,7,-1
 256 1664 l 1,4,-1
0 1536 m 1,8,-1
 128 1536 l 1,9,-1
 128 1408 l 1,10,-1
 0 1408 l 1,11,-1
 0 1536 l 1,8,-1
128 1536 m 1,12,-1
 256 1536 l 1,13,-1
 256 1408 l 1,14,-1
 128 1408 l 1,15,-1
 128 1536 l 1,12,-1
256 1536 m 1,16,-1
 384 1536 l 1,17,-1
 384 1408 l 1,18,-1
 256 1408 l 1,19,-1
 256 1536 l 1,16,-1
384 1536 m 1,20,-1
 512 1536 l 1,21,-1
 512 1408 l 1,22,-1
 384 1408 l 1,23,-1
 384 1536 l 1,20,-1
0 1408 m 1,24,-1
 128 1408 l 1,25,-1
 128 1280 l 1,26,-1
 0 1280 l 1,27,-1
 0 1408 l 1,24,-1
128 1408 m 1,28,-1
 256 1408 l 1,29,-1
 256 1280 l 1,30,-1
 128 1280 l 1,31,-1
 128 1408 l 1,28,-1
256 1408 m 1,32,-1
 384 1408 l 1,33,-1
 384 1280 l 1,34,-1
 256 1280 l 1,35,-1
 256 1408 l 1,32,-1
384 1408 m 1,36,-1
 512 1408 l 1,37,-1
 512 1280 l 1,38,-1
 384 1280 l 1,39,-1
 384 1408 l 1,36,-1
128 1280 m 1,40,-1
 256 1280 l 1,41,-1
 256 1152 l 1,42,-1
 128 1152 l 1,43,-1
 128 1280 l 1,40,-1
256 1280 m 1,44,-1
 384 1280 l 1,45,-1
 384 1152 l 1,46,-1
 256 1152 l 1,47,-1
 256 1280 l 1,44,-1
128 640 m 1,48,-1
 256 640 l 1,49,-1
 256 512 l 1,50,-1
 128 512 l 1,51,-1
 128 640 l 1,48,-1
256 640 m 1,52,-1
 384 640 l 1,53,-1
 384 512 l 1,54,-1
 256 512 l 1,55,-1
 256 640 l 1,52,-1
0 512 m 1,56,-1
 128 512 l 1,57,-1
 128 384 l 1,58,-1
 0 384 l 1,59,-1
 0 512 l 1,56,-1
128 512 m 1,60,-1
 256 512 l 1,61,-1
 256 384 l 1,62,-1
 128 384 l 1,63,-1
 128 512 l 1,60,-1
256 512 m 1,64,-1
 384 512 l 1,65,-1
 384 384 l 1,66,-1
 256 384 l 1,67,-1
 256 512 l 1,64,-1
384 512 m 1,68,-1
 512 512 l 1,69,-1
 512 384 l 1,70,-1
 384 384 l 1,71,-1
 384 512 l 1,68,-1
128 384 m 1,72,-1
 256 384 l 1,73,-1
 256 256 l 1,74,-1
 128 256 l 1,75,-1
 128 384 l 1,72,-1
256 384 m 1,76,-1
 384 384 l 1,77,-1
 384 256 l 1,78,-1
 256 256 l 1,79,-1
 256 384 l 1,76,-1
384 384 m 1,80,-1
 512 384 l 1,81,-1
 512 256 l 1,82,-1
 384 256 l 1,83,-1
 384 384 l 1,80,-1
256 256 m 1,84,-1
 384 256 l 1,85,-1
 384 128 l 1,86,-1
 256 128 l 1,87,-1
 256 256 l 1,84,-1
384 256 m 1,88,-1
 512 256 l 1,89,-1
 512 128 l 1,90,-1
 384 128 l 1,91,-1
 384 256 l 1,88,-1
128 128 m 1,92,-1
 256 128 l 1,93,-1
 256 0 l 1,94,-1
 128 0 l 1,95,-1
 128 128 l 1,92,-1
256 128 m 1,96,-1
 384 128 l 1,97,-1
 384 0 l 1,98,-1
 256 0 l 1,99,-1
 256 128 l 1,96,-1
EndSplineSet
EndChar

StartChar: less
Encoding: 60 60 26
Width: 896
GlyphClass: 1
Flags: W
LayerCount: 2
Fore
SplineSet
384 1408 m 1,0,-1
 512 1408 l 1,1,-1
 512 1280 l 1,2,-1
 384 1280 l 1,3,-1
 384 1408 l 1,0,-1
512 1408 m 1,4,-1
 640 1408 l 1,5,-1
 640 1280 l 1,6,-1
 512 1280 l 1,7,-1
 512 1408 l 1,4,-1
256 1280 m 1,8,-1
 384 1280 l 1,9,-1
 384 1152 l 1,10,-1
 256 1152 l 1,11,-1
 256 1280 l 1,8,-1
384 1280 m 1,12,-1
 512 1280 l 1,13,-1
 512 1152 l 1,14,-1
 384 1152 l 1,15,-1
 384 1280 l 1,12,-1
512 1280 m 1,16,-1
 640 1280 l 1,17,-1
 640 1152 l 1,18,-1
 512 1152 l 1,19,-1
 512 1280 l 1,16,-1
128 1152 m 1,20,-1
 256 1152 l 1,21,-1
 256 1024 l 1,22,-1
 128 1024 l 1,23,-1
 128 1152 l 1,20,-1
256 1152 m 1,24,-1
 384 1152 l 1,25,-1
 384 1024 l 1,26,-1
 256 1024 l 1,27,-1
 256 1152 l 1,24,-1
384 1152 m 1,28,-1
 512 1152 l 1,29,-1
 512 1024 l 1,30,-1
 384 1024 l 1,31,-1
 384 1152 l 1,28,-1
0 1024 m 1,32,-1
 128 1024 l 1,33,-1
 128 896 l 1,34,-1
 0 896 l 1,35,-1
 0 1024 l 1,32,-1
128 1024 m 1,36,-1
 256 1024 l 1,37,-1
 256 896 l 1,38,-1
 128 896 l 1,39,-1
 128 1024 l 1,36,-1
256 1024 m 1,40,-1
 384 1024 l 1,41,-1
 384 896 l 1,42,-1
 256 896 l 1,43,-1
 256 1024 l 1,40,-1
0 896 m 1,44,-1
 128 896 l 1,45,-1
 128 768 l 1,46,-1
 0 768 l 1,47,-1
 0 896 l 1,44,-1
128 896 m 1,48,-1
 256 896 l 1,49,-1
 256 768 l 1,50,-1
 128 768 l 1,51,-1
 128 896 l 1,48,-1
256 896 m 1,52,-1
 384 896 l 1,53,-1
 384 768 l 1,54,-1
 256 768 l 1,55,-1
 256 896 l 1,52,-1
128 768 m 1,56,-1
 256 768 l 1,57,-1
 256 640 l 1,58,-1
 128 640 l 1,59,-1
 128 768 l 1,56,-1
256 768 m 1,60,-1
 384 768 l 1,61,-1
 384 640 l 1,62,-1
 256 640 l 1,63,-1
 256 768 l 1,60,-1
384 768 m 1,64,-1
 512 768 l 1,65,-1
 512 640 l 1,66,-1
 384 640 l 1,67,-1
 384 768 l 1,64,-1
256 640 m 1,68,-1
 384 640 l 1,69,-1
 384 512 l 1,70,-1
 256 512 l 1,71,-1
 256 640 l 1,68,-1
384 640 m 1,72,-1
 512 640 l 1,73,-1
 512 512 l 1,74,-1
 384 512 l 1,75,-1
 384 640 l 1,72,-1
512 640 m 1,76,-1
 640 640 l 1,77,-1
 640 512 l 1,78,-1
 512 512 l 1,79,-1
 512 640 l 1,76,-1
384 512 m 1,80,-1
 512 512 l 1,81,-1
 512 384 l 1,82,-1
 384 384 l 1,83,-1
 384 512 l 1,80,-1
512 512 m 1,84,-1
 640 512 l 1,85,-1
 640 384 l 1,86,-1
 512 384 l 1,87,-1
 512 512 l 1,84,-1
EndSplineSet
EndChar

StartChar: equal
Encoding: 61 61 27
Width: 1024
GlyphClass: 1
Flags: W
LayerCount: 2
Fore
SplineSet
0 1152 m 1,0,-1
 128 1152 l 1,1,-1
 128 1024 l 1,2,-1
 0 1024 l 1,3,-1
 0 1152 l 1,0,-1
128 1152 m 1,4,-1
 256 1152 l 1,5,-1
 256 1024 l 1,6,-1
 128 1024 l 1,7,-1
 128 1152 l 1,4,-1
256 1152 m 1,8,-1
 384 1152 l 1,9,-1
 384 1024 l 1,10,-1
 256 1024 l 1,11,-1
 256 1152 l 1,8,-1
384 1152 m 1,12,-1
 512 1152 l 1,13,-1
 512 1024 l 1,14,-1
 384 1024 l 1,15,-1
 384 1152 l 1,12,-1
512 1152 m 1,16,-1
 640 1152 l 1,17,-1
 640 1024 l 1,18,-1
 512 1024 l 1,19,-1
 512 1152 l 1,16,-1
640 1152 m 1,20,-1
 768 1152 l 1,21,-1
 768 1024 l 1,22,-1
 640 1024 l 1,23,-1
 640 1152 l 1,20,-1
0 1024 m 1,24,-1
 128 1024 l 1,25,-1
 128 896 l 1,26,-1
 0 896 l 1,27,-1
 0 1024 l 1,24,-1
128 1024 m 1,28,-1
 256 1024 l 1,29,-1
 256 896 l 1,30,-1
 128 896 l 1,31,-1
 128 1024 l 1,28,-1
256 1024 m 1,32,-1
 384 1024 l 1,33,-1
 384 896 l 1,34,-1
 256 896 l 1,35,-1
 256 1024 l 1,32,-1
384 1024 m 1,36,-1
 512 1024 l 1,37,-1
 512 896 l 1,38,-1
 384 896 l 1,39,-1
 384 1024 l 1,36,-1
512 1024 m 1,40,-1
 640 1024 l 1,41,-1
 640 896 l 1,42,-1
 512 896 l 1,43,-1
 512 1024 l 1,40,-1
640 1024 m 1,44,-1
 768 1024 l 1,45,-1
 768 896 l 1,46,-1
 640 896 l 1,47,-1
 640 1024 l 1,44,-1
0 768 m 1,48,-1
 128 768 l 1,49,-1
 128 640 l 1,50,-1
 0 640 l 1,51,-1
 0 768 l 1,48,-1
128 768 m 1,52,-1
 256 768 l 1,53,-1
 256 640 l 1,54,-1
 128 640 l 1,55,-1
 128 768 l 1,52,-1
256 768 m 1,56,-1
 384 768 l 1,57,-1
 384 640 l 1,58,-1
 256 640 l 1,59,-1
 256 768 l 1,56,-1
384 768 m 1,60,-1
 512 768 l 1,61,-1
 512 640 l 1,62,-1
 384 640 l 1,63,-1
 384 768 l 1,60,-1
512 768 m 1,64,-1
 640 768 l 1,65,-1
 640 640 l 1,66,-1
 512 640 l 1,67,-1
 512 768 l 1,64,-1
640 768 m 1,68,-1
 768 768 l 1,69,-1
 768 640 l 1,70,-1
 640 640 l 1,71,-1
 640 768 l 1,68,-1
0 640 m 1,72,-1
 128 640 l 1,73,-1
 128 512 l 1,74,-1
 0 512 l 1,75,-1
 0 640 l 1,72,-1
128 640 m 1,76,-1
 256 640 l 1,77,-1
 256 512 l 1,78,-1
 128 512 l 1,79,-1
 128 640 l 1,76,-1
256 640 m 1,80,-1
 384 640 l 1,81,-1
 384 512 l 1,82,-1
 256 512 l 1,83,-1
 256 640 l 1,80,-1
384 640 m 1,84,-1
 512 640 l 1,85,-1
 512 512 l 1,86,-1
 384 512 l 1,87,-1
 384 640 l 1,84,-1
512 640 m 1,88,-1
 640 640 l 1,89,-1
 640 512 l 1,90,-1
 512 512 l 1,91,-1
 512 640 l 1,88,-1
640 640 m 1,92,-1
 768 640 l 1,93,-1
 768 512 l 1,94,-1
 640 512 l 1,95,-1
 640 640 l 1,92,-1
EndSplineSet
EndChar

StartChar: greater
Encoding: 62 62 28
Width: 896
GlyphClass: 1
Flags: W
LayerCount: 2
Fore
SplineSet
0 1408 m 1,0,-1
 128 1408 l 1,1,-1
 128 1280 l 1,2,-1
 0 1280 l 1,3,-1
 0 1408 l 1,0,-1
128 1408 m 1,4,-1
 256 1408 l 1,5,-1
 256 1280 l 1,6,-1
 128 1280 l 1,7,-1
 128 1408 l 1,4,-1
0 1280 m 1,8,-1
 128 1280 l 1,9,-1
 128 1152 l 1,10,-1
 0 1152 l 1,11,-1
 0 1280 l 1,8,-1
128 1280 m 1,12,-1
 256 1280 l 1,13,-1
 256 1152 l 1,14,-1
 128 1152 l 1,15,-1
 128 1280 l 1,12,-1
256 1280 m 1,16,-1
 384 1280 l 1,17,-1
 384 1152 l 1,18,-1
 256 1152 l 1,19,-1
 256 1280 l 1,16,-1
128 1152 m 1,20,-1
 256 1152 l 1,21,-1
 256 1024 l 1,22,-1
 128 1024 l 1,23,-1
 128 1152 l 1,20,-1
256 1152 m 1,24,-1
 384 1152 l 1,25,-1
 384 1024 l 1,26,-1
 256 1024 l 1,27,-1
 256 1152 l 1,24,-1
384 1152 m 1,28,-1
 512 1152 l 1,29,-1
 512 1024 l 1,30,-1
 384 1024 l 1,31,-1
 384 1152 l 1,28,-1
256 1024 m 1,32,-1
 384 1024 l 1,33,-1
 384 896 l 1,34,-1
 256 896 l 1,35,-1
 256 1024 l 1,32,-1
384 1024 m 1,36,-1
 512 1024 l 1,37,-1
 512 896 l 1,38,-1
 384 896 l 1,39,-1
 384 1024 l 1,36,-1
512 1024 m 1,40,-1
 640 1024 l 1,41,-1
 640 896 l 1,42,-1
 512 896 l 1,43,-1
 512 1024 l 1,40,-1
256 896 m 1,44,-1
 384 896 l 1,45,-1
 384 768 l 1,46,-1
 256 768 l 1,47,-1
 256 896 l 1,44,-1
384 896 m 1,48,-1
 512 896 l 1,49,-1
 512 768 l 1,50,-1
 384 768 l 1,51,-1
 384 896 l 1,48,-1
512 896 m 1,52,-1
 640 896 l 1,53,-1
 640 768 l 1,54,-1
 512 768 l 1,55,-1
 512 896 l 1,52,-1
128 768 m 1,56,-1
 256 768 l 1,57,-1
 256 640 l 1,58,-1
 128 640 l 1,59,-1
 128 768 l 1,56,-1
256 768 m 1,60,-1
 384 768 l 1,61,-1
 384 640 l 1,62,-1
 256 640 l 1,63,-1
 256 768 l 1,60,-1
384 768 m 1,64,-1
 512 768 l 1,65,-1
 512 640 l 1,66,-1
 384 640 l 1,67,-1
 384 768 l 1,64,-1
0 640 m 1,68,-1
 128 640 l 1,69,-1
 128 512 l 1,70,-1
 0 512 l 1,71,-1
 0 640 l 1,68,-1
128 640 m 1,72,-1
 256 640 l 1,73,-1
 256 512 l 1,74,-1
 128 512 l 1,75,-1
 128 640 l 1,72,-1
256 640 m 1,76,-1
 384 640 l 1,77,-1
 384 512 l 1,78,-1
 256 512 l 1,79,-1
 256 640 l 1,76,-1
0 512 m 1,80,-1
 128 512 l 1,81,-1
 128 384 l 1,82,-1
 0 384 l 1,83,-1
 0 512 l 1,80,-1
128 512 m 1,84,-1
 256 512 l 1,85,-1
 256 384 l 1,86,-1
 128 384 l 1,87,-1
 128 512 l 1,84,-1
EndSplineSet
EndChar

StartChar: question
Encoding: 63 63 29
Width: 1280
GlyphClass: 1
Flags: W
LayerCount: 2
Fore
SplineSet
128 1792 m 1,0,-1
 256 1792 l 1,1,-1
 256 1664 l 1,2,-1
 128 1664 l 1,3,-1
 128 1792 l 1,0,-1
256 1792 m 1,4,-1
 384 1792 l 1,5,-1
 384 1664 l 1,6,-1
 256 1664 l 1,7,-1
 256 1792 l 1,4,-1
384 1792 m 1,8,-1
 512 1792 l 1,9,-1
 512 1664 l 1,10,-1
 384 1664 l 1,11,-1
 384 1792 l 1,8,-1
512 1792 m 1,12,-1
 640 1792 l 1,13,-1
 640 1664 l 1,14,-1
 512 1664 l 1,15,-1
 512 1792 l 1,12,-1
640 1792 m 1,16,-1
 768 1792 l 1,17,-1
 768 1664 l 1,18,-1
 640 1664 l 1,19,-1
 640 1792 l 1,16,-1
768 1792 m 1,20,-1
 896 1792 l 1,21,-1
 896 1664 l 1,22,-1
 768 1664 l 1,23,-1
 768 1792 l 1,20,-1
0 1664 m 1,24,-1
 128 1664 l 1,25,-1
 128 1536 l 1,26,-1
 0 1536 l 1,27,-1
 0 1664 l 1,24,-1
128 1664 m 1,28,-1
 256 1664 l 1,29,-1
 256 1536 l 1,30,-1
 128 1536 l 1,31,-1
 128 1664 l 1,28,-1
256 1664 m 1,32,-1
 384 1664 l 1,33,-1
 384 1536 l 1,34,-1
 256 1536 l 1,35,-1
 256 1664 l 1,32,-1
384 1664 m 1,36,-1
 512 1664 l 1,37,-1
 512 1536 l 1,38,-1
 384 1536 l 1,39,-1
 384 1664 l 1,36,-1
512 1664 m 1,40,-1
 640 1664 l 1,41,-1
 640 1536 l 1,42,-1
 512 1536 l 1,43,-1
 512 1664 l 1,40,-1
640 1664 m 1,44,-1
 768 1664 l 1,45,-1
 768 1536 l 1,46,-1
 640 1536 l 1,47,-1
 640 1664 l 1,44,-1
768 1664 m 1,48,-1
 896 1664 l 1,49,-1
 896 1536 l 1,50,-1
 768 1536 l 1,51,-1
 768 1664 l 1,48,-1
896 1664 m 1,52,-1
 1024 1664 l 1,53,-1
 1024 1536 l 1,54,-1
 896 1536 l 1,55,-1
 896 1664 l 1,52,-1
0 1536 m 1,56,-1
 128 1536 l 1,57,-1
 128 1408 l 1,58,-1
 0 1408 l 1,59,-1
 0 1536 l 1,56,-1
128 1536 m 1,60,-1
 256 1536 l 1,61,-1
 256 1408 l 1,62,-1
 128 1408 l 1,63,-1
 128 1536 l 1,60,-1
768 1536 m 1,64,-1
 896 1536 l 1,65,-1
 896 1408 l 1,66,-1
 768 1408 l 1,67,-1
 768 1536 l 1,64,-1
896 1536 m 1,68,-1
 1024 1536 l 1,69,-1
 1024 1408 l 1,70,-1
 896 1408 l 1,71,-1
 896 1536 l 1,68,-1
768 1408 m 1,72,-1
 896 1408 l 1,73,-1
 896 1280 l 1,74,-1
 768 1280 l 1,75,-1
 768 1408 l 1,72,-1
896 1408 m 1,76,-1
 1024 1408 l 1,77,-1
 1024 1280 l 1,78,-1
 896 1280 l 1,79,-1
 896 1408 l 1,76,-1
768 1280 m 1,80,-1
 896 1280 l 1,81,-1
 896 1152 l 1,82,-1
 768 1152 l 1,83,-1
 768 1280 l 1,80,-1
896 1280 m 1,84,-1
 1024 1280 l 1,85,-1
 1024 1152 l 1,86,-1
 896 1152 l 1,87,-1
 896 1280 l 1,84,-1
384 1152 m 1,88,-1
 512 1152 l 1,89,-1
 512 1024 l 1,90,-1
 384 1024 l 1,91,-1
 384 1152 l 1,88,-1
512 1152 m 1,92,-1
 640 1152 l 1,93,-1
 640 1024 l 1,94,-1
 512 1024 l 1,95,-1
 512 1152 l 1,92,-1
640 1152 m 1,96,-1
 768 1152 l 1,97,-1
 768 1024 l 1,98,-1
 640 1024 l 1,99,-1
 640 1152 l 1,96,-1
768 1152 m 1,100,-1
 896 1152 l 1,101,-1
 896 1024 l 1,102,-1
 768 1024 l 1,103,-1
 768 1152 l 1,100,-1
896 1152 m 1,104,-1
 1024 1152 l 1,105,-1
 1024 1024 l 1,106,-1
 896 1024 l 1,107,-1
 896 1152 l 1,104,-1
384 1024 m 1,108,-1
 512 1024 l 1,109,-1
 512 896 l 1,110,-1
 384 896 l 1,111,-1
 384 1024 l 1,108,-1
512 1024 m 1,112,-1
 640 1024 l 1,113,-1
 640 896 l 1,114,-1
 512 896 l 1,115,-1
 512 1024 l 1,112,-1
640 1024 m 1,116,-1
 768 1024 l 1,117,-1
 768 896 l 1,118,-1
 640 896 l 1,119,-1
 640 1024 l 1,116,-1
768 1024 m 1,120,-1
 896 1024 l 1,121,-1
 896 896 l 1,122,-1
 768 896 l 1,123,-1
 768 1024 l 1,120,-1
384 896 m 1,124,-1
 512 896 l 1,125,-1
 512 768 l 1,126,-1
 384 768 l 1,127,-1
 384 896 l 1,124,-1
512 896 m 1,128,-1
 640 896 l 1,129,-1
 640 768 l 1,130,-1
 512 768 l 1,131,-1
 512 896 l 1,128,-1
384 768 m 1,132,-1
 512 768 l 1,133,-1
 512 640 l 1,134,-1
 384 640 l 1,135,-1
 384 768 l 1,132,-1
512 768 m 1,136,-1
 640 768 l 1,137,-1
 640 640 l 1,138,-1
 512 640 l 1,139,-1
 512 768 l 1,136,-1
384 640 m 1,140,-1
 512 640 l 1,141,-1
 512 512 l 1,142,-1
 384 512 l 1,143,-1
 384 640 l 1,140,-1
512 640 m 1,144,-1
 640 640 l 1,145,-1
 640 512 l 1,146,-1
 512 512 l 1,147,-1
 512 640 l 1,144,-1
384 512 m 1,148,-1
 512 512 l 1,149,-1
 512 384 l 1,150,-1
 384 384 l 1,151,-1
 384 512 l 1,148,-1
512 512 m 1,152,-1
 640 512 l 1,153,-1
 640 384 l 1,154,-1
 512 384 l 1,155,-1
 512 512 l 1,152,-1
384 256 m 1,156,-1
 512 256 l 1,157,-1
 512 128 l 1,158,-1
 384 128 l 1,159,-1
 384 256 l 1,156,-1
512 256 m 1,160,-1
 640 256 l 1,161,-1
 640 128 l 1,162,-1
 512 128 l 1,163,-1
 512 256 l 1,160,-1
384 128 m 1,164,-1
 512 128 l 1,165,-1
 512 0 l 1,166,-1
 384 0 l 1,167,-1
 384 128 l 1,164,-1
512 128 m 1,168,-1
 640 128 l 1,169,-1
 640 0 l 1,170,-1
 512 0 l 1,171,-1
 512 128 l 1,168,-1
EndSplineSet
EndChar

StartChar: A
Encoding: 65 65 30
Width: 1280
GlyphClass: 1
Flags: W
LayerCount: 2
Fore
SplineSet
128 1792 m 1,0,-1
 256 1792 l 1,1,-1
 256 1664 l 1,2,-1
 128 1664 l 1,3,-1
 128 1792 l 1,0,-1
256 1792 m 1,4,-1
 384 1792 l 1,5,-1
 384 1664 l 1,6,-1
 256 1664 l 1,7,-1
 256 1792 l 1,4,-1
384 1792 m 1,8,-1
 512 1792 l 1,9,-1
 512 1664 l 1,10,-1
 384 1664 l 1,11,-1
 384 1792 l 1,8,-1
512 1792 m 1,12,-1
 640 1792 l 1,13,-1
 640 1664 l 1,14,-1
 512 1664 l 1,15,-1
 512 1792 l 1,12,-1
640 1792 m 1,16,-1
 768 1792 l 1,17,-1
 768 1664 l 1,18,-1
 640 1664 l 1,19,-1
 640 1792 l 1,16,-1
768 1792 m 1,20,-1
 896 1792 l 1,21,-1
 896 1664 l 1,22,-1
 768 1664 l 1,23,-1
 768 1792 l 1,20,-1
0 1664 m 1,24,-1
 128 1664 l 1,25,-1
 128 1536 l 1,26,-1
 0 1536 l 1,27,-1
 0 1664 l 1,24,-1
128 1664 m 1,28,-1
 256 1664 l 1,29,-1
 256 1536 l 1,30,-1
 128 1536 l 1,31,-1
 128 1664 l 1,28,-1
256 1664 m 1,32,-1
 384 1664 l 1,33,-1
 384 1536 l 1,34,-1
 256 1536 l 1,35,-1
 256 1664 l 1,32,-1
384 1664 m 1,36,-1
 512 1664 l 1,37,-1
 512 1536 l 1,38,-1
 384 1536 l 1,39,-1
 384 1664 l 1,36,-1
512 1664 m 1,40,-1
 640 1664 l 1,41,-1
 640 1536 l 1,42,-1
 512 1536 l 1,43,-1
 512 1664 l 1,40,-1
640 1664 m 1,44,-1
 768 1664 l 1,45,-1
 768 1536 l 1,46,-1
 640 1536 l 1,47,-1
 640 1664 l 1,44,-1
768 1664 m 1,48,-1
 896 1664 l 1,49,-1
 896 1536 l 1,50,-1
 768 1536 l 1,51,-1
 768 1664 l 1,48,-1
896 1664 m 1,52,-1
 1024 1664 l 1,53,-1
 1024 1536 l 1,54,-1
 896 1536 l 1,55,-1
 896 1664 l 1,52,-1
0 1536 m 1,56,-1
 128 1536 l 1,57,-1
 128 1408 l 1,58,-1
 0 1408 l 1,59,-1
 0 1536 l 1,56,-1
128 1536 m 1,60,-1
 256 1536 l 1,61,-1
 256 1408 l 1,62,-1
 128 1408 l 1,63,-1
 128 1536 l 1,60,-1
768 1536 m 1,64,-1
 896 1536 l 1,65,-1
 896 1408 l 1,66,-1
 768 1408 l 1,67,-1
 768 1536 l 1,64,-1
896 1536 m 1,68,-1
 1024 1536 l 1,69,-1
 1024 1408 l 1,70,-1
 896 1408 l 1,71,-1
 896 1536 l 1,68,-1
0 1408 m 1,72,-1
 128 1408 l 1,73,-1
 128 1280 l 1,74,-1
 0 1280 l 1,75,-1
 0 1408 l 1,72,-1
128 1408 m 1,76,-1
 256 1408 l 1,77,-1
 256 1280 l 1,78,-1
 128 1280 l 1,79,-1
 128 1408 l 1,76,-1
768 1408 m 1,80,-1
 896 1408 l 1,81,-1
 896 1280 l 1,82,-1
 768 1280 l 1,83,-1
 768 1408 l 1,80,-1
896 1408 m 1,84,-1
 1024 1408 l 1,85,-1
 1024 1280 l 1,86,-1
 896 1280 l 1,87,-1
 896 1408 l 1,84,-1
0 1280 m 1,88,-1
 128 1280 l 1,89,-1
 128 1152 l 1,90,-1
 0 1152 l 1,91,-1
 0 1280 l 1,88,-1
128 1280 m 1,92,-1
 256 1280 l 1,93,-1
 256 1152 l 1,94,-1
 128 1152 l 1,95,-1
 128 1280 l 1,92,-1
768 1280 m 1,96,-1
 896 1280 l 1,97,-1
 896 1152 l 1,98,-1
 768 1152 l 1,99,-1
 768 1280 l 1,96,-1
896 1280 m 1,100,-1
 1024 1280 l 1,101,-1
 1024 1152 l 1,102,-1
 896 1152 l 1,103,-1
 896 1280 l 1,100,-1
0 1152 m 1,104,-1
 128 1152 l 1,105,-1
 128 1024 l 1,106,-1
 0 1024 l 1,107,-1
 0 1152 l 1,104,-1
128 1152 m 1,108,-1
 256 1152 l 1,109,-1
 256 1024 l 1,110,-1
 128 1024 l 1,111,-1
 128 1152 l 1,108,-1
256 1152 m 1,112,-1
 384 1152 l 1,113,-1
 384 1024 l 1,114,-1
 256 1024 l 1,115,-1
 256 1152 l 1,112,-1
384 1152 m 1,116,-1
 512 1152 l 1,117,-1
 512 1024 l 1,118,-1
 384 1024 l 1,119,-1
 384 1152 l 1,116,-1
512 1152 m 1,120,-1
 640 1152 l 1,121,-1
 640 1024 l 1,122,-1
 512 1024 l 1,123,-1
 512 1152 l 1,120,-1
640 1152 m 1,124,-1
 768 1152 l 1,125,-1
 768 1024 l 1,126,-1
 640 1024 l 1,127,-1
 640 1152 l 1,124,-1
768 1152 m 1,128,-1
 896 1152 l 1,129,-1
 896 1024 l 1,130,-1
 768 1024 l 1,131,-1
 768 1152 l 1,128,-1
896 1152 m 1,132,-1
 1024 1152 l 1,133,-1
 1024 1024 l 1,134,-1
 896 1024 l 1,135,-1
 896 1152 l 1,132,-1
0 1024 m 1,136,-1
 128 1024 l 1,137,-1
 128 896 l 1,138,-1
 0 896 l 1,139,-1
 0 1024 l 1,136,-1
128 1024 m 1,140,-1
 256 1024 l 1,141,-1
 256 896 l 1,142,-1
 128 896 l 1,143,-1
 128 1024 l 1,140,-1
256 1024 m 1,144,-1
 384 1024 l 1,145,-1
 384 896 l 1,146,-1
 256 896 l 1,147,-1
 256 1024 l 1,144,-1
384 1024 m 1,148,-1
 512 1024 l 1,149,-1
 512 896 l 1,150,-1
 384 896 l 1,151,-1
 384 1024 l 1,148,-1
512 1024 m 1,152,-1
 640 1024 l 1,153,-1
 640 896 l 1,154,-1
 512 896 l 1,155,-1
 512 1024 l 1,152,-1
640 1024 m 1,156,-1
 768 1024 l 1,157,-1
 768 896 l 1,158,-1
 640 896 l 1,159,-1
 640 1024 l 1,156,-1
768 1024 m 1,160,-1
 896 1024 l 1,161,-1
 896 896 l 1,162,-1
 768 896 l 1,163,-1
 768 1024 l 1,160,-1
896 1024 m 1,164,-1
 1024 1024 l 1,165,-1
 1024 896 l 1,166,-1
 896 896 l 1,167,-1
 896 1024 l 1,164,-1
0 896 m 1,168,-1
 128 896 l 1,169,-1
 128 768 l 1,170,-1
 0 768 l 1,171,-1
 0 896 l 1,168,-1
128 896 m 1,172,-1
 256 896 l 1,173,-1
 256 768 l 1,174,-1
 128 768 l 1,175,-1
 128 896 l 1,172,-1
768 896 m 1,176,-1
 896 896 l 1,177,-1
 896 768 l 1,178,-1
 768 768 l 1,179,-1
 768 896 l 1,176,-1
896 896 m 1,180,-1
 1024 896 l 1,181,-1
 1024 768 l 1,182,-1
 896 768 l 1,183,-1
 896 896 l 1,180,-1
0 768 m 1,184,-1
 128 768 l 1,185,-1
 128 640 l 1,186,-1
 0 640 l 1,187,-1
 0 768 l 1,184,-1
128 768 m 1,188,-1
 256 768 l 1,189,-1
 256 640 l 1,190,-1
 128 640 l 1,191,-1
 128 768 l 1,188,-1
768 768 m 1,192,-1
 896 768 l 1,193,-1
 896 640 l 1,194,-1
 768 640 l 1,195,-1
 768 768 l 1,192,-1
896 768 m 1,196,-1
 1024 768 l 1,197,-1
 1024 640 l 1,198,-1
 896 640 l 1,199,-1
 896 768 l 1,196,-1
0 640 m 1,200,-1
 128 640 l 1,201,-1
 128 512 l 1,202,-1
 0 512 l 1,203,-1
 0 640 l 1,200,-1
128 640 m 1,204,-1
 256 640 l 1,205,-1
 256 512 l 1,206,-1
 128 512 l 1,207,-1
 128 640 l 1,204,-1
768 640 m 1,208,-1
 896 640 l 1,209,-1
 896 512 l 1,210,-1
 768 512 l 1,211,-1
 768 640 l 1,208,-1
896 640 m 1,212,-1
 1024 640 l 1,213,-1
 1024 512 l 1,214,-1
 896 512 l 1,215,-1
 896 640 l 1,212,-1
0 512 m 1,216,-1
 128 512 l 1,217,-1
 128 384 l 1,218,-1
 0 384 l 1,219,-1
 0 512 l 1,216,-1
128 512 m 1,220,-1
 256 512 l 1,221,-1
 256 384 l 1,222,-1
 128 384 l 1,223,-1
 128 512 l 1,220,-1
768 512 m 1,224,-1
 896 512 l 1,225,-1
 896 384 l 1,226,-1
 768 384 l 1,227,-1
 768 512 l 1,224,-1
896 512 m 1,228,-1
 1024 512 l 1,229,-1
 1024 384 l 1,230,-1
 896 384 l 1,231,-1
 896 512 l 1,228,-1
0 384 m 1,232,-1
 128 384 l 1,233,-1
 128 256 l 1,234,-1
 0 256 l 1,235,-1
 0 384 l 1,232,-1
128 384 m 1,236,-1
 256 384 l 1,237,-1
 256 256 l 1,238,-1
 128 256 l 1,239,-1
 128 384 l 1,236,-1
768 384 m 1,240,-1
 896 384 l 1,241,-1
 896 256 l 1,242,-1
 768 256 l 1,243,-1
 768 384 l 1,240,-1
896 384 m 1,244,-1
 1024 384 l 1,245,-1
 1024 256 l 1,246,-1
 896 256 l 1,247,-1
 896 384 l 1,244,-1
0 256 m 1,248,-1
 128 256 l 1,249,-1
 128 128 l 1,250,-1
 0 128 l 1,251,-1
 0 256 l 1,248,-1
128 256 m 1,252,-1
 256 256 l 1,253,-1
 256 128 l 1,254,-1
 128 128 l 1,255,-1
 128 256 l 1,252,-1
768 256 m 1,256,-1
 896 256 l 1,257,-1
 896 128 l 1,258,-1
 768 128 l 1,259,-1
 768 256 l 1,256,-1
896 256 m 1,260,-1
 1024 256 l 1,261,-1
 1024 128 l 1,262,-1
 896 128 l 1,263,-1
 896 256 l 1,260,-1
0 128 m 1,264,-1
 128 128 l 1,265,-1
 128 0 l 1,266,-1
 0 0 l 1,267,-1
 0 128 l 1,264,-1
128 128 m 1,268,-1
 256 128 l 1,269,-1
 256 0 l 1,270,-1
 128 0 l 1,271,-1
 128 128 l 1,268,-1
768 128 m 1,272,-1
 896 128 l 1,273,-1
 896 0 l 1,274,-1
 768 0 l 1,275,-1
 768 128 l 1,272,-1
896 128 m 1,276,-1
 1024 128 l 1,277,-1
 1024 0 l 1,278,-1
 896 0 l 1,279,-1
 896 128 l 1,276,-1
EndSplineSet
EndChar

StartChar: B
Encoding: 66 66 31
Width: 1280
GlyphClass: 1
Flags: W
LayerCount: 2
Fore
SplineSet
0 1792 m 1,0,-1
 128 1792 l 1,1,-1
 128 1664 l 1,2,-1
 0 1664 l 1,3,-1
 0 1792 l 1,0,-1
128 1792 m 1,4,-1
 256 1792 l 1,5,-1
 256 1664 l 1,6,-1
 128 1664 l 1,7,-1
 128 1792 l 1,4,-1
256 1792 m 1,8,-1
 384 1792 l 1,9,-1
 384 1664 l 1,10,-1
 256 1664 l 1,11,-1
 256 1792 l 1,8,-1
384 1792 m 1,12,-1
 512 1792 l 1,13,-1
 512 1664 l 1,14,-1
 384 1664 l 1,15,-1
 384 1792 l 1,12,-1
512 1792 m 1,16,-1
 640 1792 l 1,17,-1
 640 1664 l 1,18,-1
 512 1664 l 1,19,-1
 512 1792 l 1,16,-1
0 1664 m 1,20,-1
 128 1664 l 1,21,-1
 128 1536 l 1,22,-1
 0 1536 l 1,23,-1
 0 1664 l 1,20,-1
128 1664 m 1,24,-1
 256 1664 l 1,25,-1
 256 1536 l 1,26,-1
 128 1536 l 1,27,-1
 128 1664 l 1,24,-1
256 1664 m 1,28,-1
 384 1664 l 1,29,-1
 384 1536 l 1,30,-1
 256 1536 l 1,31,-1
 256 1664 l 1,28,-1
384 1664 m 1,32,-1
 512 1664 l 1,33,-1
 512 1536 l 1,34,-1
 384 1536 l 1,35,-1
 384 1664 l 1,32,-1
512 1664 m 1,36,-1
 640 1664 l 1,37,-1
 640 1536 l 1,38,-1
 512 1536 l 1,39,-1
 512 1664 l 1,36,-1
640 1664 m 1,40,-1
 768 1664 l 1,41,-1
 768 1536 l 1,42,-1
 640 1536 l 1,43,-1
 640 1664 l 1,40,-1
0 1536 m 1,44,-1
 128 1536 l 1,45,-1
 128 1408 l 1,46,-1
 0 1408 l 1,47,-1
 0 1536 l 1,44,-1
128 1536 m 1,48,-1
 256 1536 l 1,49,-1
 256 1408 l 1,50,-1
 128 1408 l 1,51,-1
 128 1536 l 1,48,-1
512 1536 m 1,52,-1
 640 1536 l 1,53,-1
 640 1408 l 1,54,-1
 512 1408 l 1,55,-1
 512 1536 l 1,52,-1
640 1536 m 1,56,-1
 768 1536 l 1,57,-1
 768 1408 l 1,58,-1
 640 1408 l 1,59,-1
 640 1536 l 1,56,-1
768 1536 m 1,60,-1
 896 1536 l 1,61,-1
 896 1408 l 1,62,-1
 768 1408 l 1,63,-1
 768 1536 l 1,60,-1
0 1408 m 1,64,-1
 128 1408 l 1,65,-1
 128 1280 l 1,66,-1
 0 1280 l 1,67,-1
 0 1408 l 1,64,-1
128 1408 m 1,68,-1
 256 1408 l 1,69,-1
 256 1280 l 1,70,-1
 128 1280 l 1,71,-1
 128 1408 l 1,68,-1
640 1408 m 1,72,-1
 768 1408 l 1,73,-1
 768 1280 l 1,74,-1
 640 1280 l 1,75,-1
 640 1408 l 1,72,-1
768 1408 m 1,76,-1
 896 1408 l 1,77,-1
 896 1280 l 1,78,-1
 768 1280 l 1,79,-1
 768 1408 l 1,76,-1
0 1280 m 1,80,-1
 128 1280 l 1,81,-1
 128 1152 l 1,82,-1
 0 1152 l 1,83,-1
 0 1280 l 1,80,-1
128 1280 m 1,84,-1
 256 1280 l 1,85,-1
 256 1152 l 1,86,-1
 128 1152 l 1,87,-1
 128 1280 l 1,84,-1
640 1280 m 1,88,-1
 768 1280 l 1,89,-1
 768 1152 l 1,90,-1
 640 1152 l 1,91,-1
 640 1280 l 1,88,-1
768 1280 m 1,92,-1
 896 1280 l 1,93,-1
 896 1152 l 1,94,-1
 768 1152 l 1,95,-1
 768 1280 l 1,92,-1
0 1152 m 1,96,-1
 128 1152 l 1,97,-1
 128 1024 l 1,98,-1
 0 1024 l 1,99,-1
 0 1152 l 1,96,-1
128 1152 m 1,100,-1
 256 1152 l 1,101,-1
 256 1024 l 1,102,-1
 128 1024 l 1,103,-1
 128 1152 l 1,100,-1
512 1152 m 1,104,-1
 640 1152 l 1,105,-1
 640 1024 l 1,106,-1
 512 1024 l 1,107,-1
 512 1152 l 1,104,-1
640 1152 m 1,108,-1
 768 1152 l 1,109,-1
 768 1024 l 1,110,-1
 640 1024 l 1,111,-1
 640 1152 l 1,108,-1
0 1024 m 1,112,-1
 128 1024 l 1,113,-1
 128 896 l 1,114,-1
 0 896 l 1,115,-1
 0 1024 l 1,112,-1
128 1024 m 1,116,-1
 256 1024 l 1,117,-1
 256 896 l 1,118,-1
 128 896 l 1,119,-1
 128 1024 l 1,116,-1
256 1024 m 1,120,-1
 384 1024 l 1,121,-1
 384 896 l 1,122,-1
 256 896 l 1,123,-1
 256 1024 l 1,120,-1
384 1024 m 1,124,-1
 512 1024 l 1,125,-1
 512 896 l 1,126,-1
 384 896 l 1,127,-1
 384 1024 l 1,124,-1
512 1024 m 1,128,-1
 640 1024 l 1,129,-1
 640 896 l 1,130,-1
 512 896 l 1,131,-1
 512 1024 l 1,128,-1
640 1024 m 1,132,-1
 768 1024 l 1,133,-1
 768 896 l 1,134,-1
 640 896 l 1,135,-1
 640 1024 l 1,132,-1
0 896 m 1,136,-1
 128 896 l 1,137,-1
 128 768 l 1,138,-1
 0 768 l 1,139,-1
 0 896 l 1,136,-1
128 896 m 1,140,-1
 256 896 l 1,141,-1
 256 768 l 1,142,-1
 128 768 l 1,143,-1
 128 896 l 1,140,-1
256 896 m 1,144,-1
 384 896 l 1,145,-1
 384 768 l 1,146,-1
 256 768 l 1,147,-1
 256 896 l 1,144,-1
384 896 m 1,148,-1
 512 896 l 1,149,-1
 512 768 l 1,150,-1
 384 768 l 1,151,-1
 384 896 l 1,148,-1
512 896 m 1,152,-1
 640 896 l 1,153,-1
 640 768 l 1,154,-1
 512 768 l 1,155,-1
 512 896 l 1,152,-1
640 896 m 1,156,-1
 768 896 l 1,157,-1
 768 768 l 1,158,-1
 640 768 l 1,159,-1
 640 896 l 1,156,-1
768 896 m 1,160,-1
 896 896 l 1,161,-1
 896 768 l 1,162,-1
 768 768 l 1,163,-1
 768 896 l 1,160,-1
0 768 m 1,164,-1
 128 768 l 1,165,-1
 128 640 l 1,166,-1
 0 640 l 1,167,-1
 0 768 l 1,164,-1
128 768 m 1,168,-1
 256 768 l 1,169,-1
 256 640 l 1,170,-1
 128 640 l 1,171,-1
 128 768 l 1,168,-1
640 768 m 1,172,-1
 768 768 l 1,173,-1
 768 640 l 1,174,-1
 640 640 l 1,175,-1
 640 768 l 1,172,-1
768 768 m 1,176,-1
 896 768 l 1,177,-1
 896 640 l 1,178,-1
 768 640 l 1,179,-1
 768 768 l 1,176,-1
896 768 m 1,180,-1
 1024 768 l 1,181,-1
 1024 640 l 1,182,-1
 896 640 l 1,183,-1
 896 768 l 1,180,-1
0 640 m 1,184,-1
 128 640 l 1,185,-1
 128 512 l 1,186,-1
 0 512 l 1,187,-1
 0 640 l 1,184,-1
128 640 m 1,188,-1
 256 640 l 1,189,-1
 256 512 l 1,190,-1
 128 512 l 1,191,-1
 128 640 l 1,188,-1
768 640 m 1,192,-1
 896 640 l 1,193,-1
 896 512 l 1,194,-1
 768 512 l 1,195,-1
 768 640 l 1,192,-1
896 640 m 1,196,-1
 1024 640 l 1,197,-1
 1024 512 l 1,198,-1
 896 512 l 1,199,-1
 896 640 l 1,196,-1
0 512 m 1,200,-1
 128 512 l 1,201,-1
 128 384 l 1,202,-1
 0 384 l 1,203,-1
 0 512 l 1,200,-1
128 512 m 1,204,-1
 256 512 l 1,205,-1
 256 384 l 1,206,-1
 128 384 l 1,207,-1
 128 512 l 1,204,-1
768 512 m 1,208,-1
 896 512 l 1,209,-1
 896 384 l 1,210,-1
 768 384 l 1,211,-1
 768 512 l 1,208,-1
896 512 m 1,212,-1
 1024 512 l 1,213,-1
 1024 384 l 1,214,-1
 896 384 l 1,215,-1
 896 512 l 1,212,-1
0 384 m 1,216,-1
 128 384 l 1,217,-1
 128 256 l 1,218,-1
 0 256 l 1,219,-1
 0 384 l 1,216,-1
128 384 m 1,220,-1
 256 384 l 1,221,-1
 256 256 l 1,222,-1
 128 256 l 1,223,-1
 128 384 l 1,220,-1
640 384 m 1,224,-1
 768 384 l 1,225,-1
 768 256 l 1,226,-1
 640 256 l 1,227,-1
 640 384 l 1,224,-1
768 384 m 1,228,-1
 896 384 l 1,229,-1
 896 256 l 1,230,-1
 768 256 l 1,231,-1
 768 384 l 1,228,-1
896 384 m 1,232,-1
 1024 384 l 1,233,-1
 1024 256 l 1,234,-1
 896 256 l 1,235,-1
 896 384 l 1,232,-1
0 256 m 1,236,-1
 128 256 l 1,237,-1
 128 128 l 1,238,-1
 0 128 l 1,239,-1
 0 256 l 1,236,-1
128 256 m 1,240,-1
 256 256 l 1,241,-1
 256 128 l 1,242,-1
 128 128 l 1,243,-1
 128 256 l 1,240,-1
256 256 m 1,244,-1
 384 256 l 1,245,-1
 384 128 l 1,246,-1
 256 128 l 1,247,-1
 256 256 l 1,244,-1
384 256 m 1,248,-1
 512 256 l 1,249,-1
 512 128 l 1,250,-1
 384 128 l 1,251,-1
 384 256 l 1,248,-1
512 256 m 1,252,-1
 640 256 l 1,253,-1
 640 128 l 1,254,-1
 512 128 l 1,255,-1
 512 256 l 1,252,-1
640 256 m 1,256,-1
 768 256 l 1,257,-1
 768 128 l 1,258,-1
 640 128 l 1,259,-1
 640 256 l 1,256,-1
768 256 m 1,260,-1
 896 256 l 1,261,-1
 896 128 l 1,262,-1
 768 128 l 1,263,-1
 768 256 l 1,260,-1
0 128 m 1,264,-1
 128 128 l 1,265,-1
 128 0 l 1,266,-1
 0 0 l 1,267,-1
 0 128 l 1,264,-1
128 128 m 1,268,-1
 256 128 l 1,269,-1
 256 0 l 1,270,-1
 128 0 l 1,271,-1
 128 128 l 1,268,-1
256 128 m 1,272,-1
 384 128 l 1,273,-1
 384 0 l 1,274,-1
 256 0 l 1,275,-1
 256 128 l 1,272,-1
384 128 m 1,276,-1
 512 128 l 1,277,-1
 512 0 l 1,278,-1
 384 0 l 1,279,-1
 384 128 l 1,276,-1
512 128 m 1,280,-1
 640 128 l 1,281,-1
 640 0 l 1,282,-1
 512 0 l 1,283,-1
 512 128 l 1,280,-1
640 128 m 1,284,-1
 768 128 l 1,285,-1
 768 0 l 1,286,-1
 640 0 l 1,287,-1
 640 128 l 1,284,-1
EndSplineSet
EndChar

StartChar: C
Encoding: 67 67 32
Width: 1280
GlyphClass: 1
Flags: W
LayerCount: 2
Fore
SplineSet
256 1792 m 1,0,-1
 384 1792 l 1,1,-1
 384 1664 l 1,2,-1
 256 1664 l 1,3,-1
 256 1792 l 1,0,-1
384 1792 m 1,4,-1
 512 1792 l 1,5,-1
 512 1664 l 1,6,-1
 384 1664 l 1,7,-1
 384 1792 l 1,4,-1
512 1792 m 1,8,-1
 640 1792 l 1,9,-1
 640 1664 l 1,10,-1
 512 1664 l 1,11,-1
 512 1792 l 1,8,-1
640 1792 m 1,12,-1
 768 1792 l 1,13,-1
 768 1664 l 1,14,-1
 640 1664 l 1,15,-1
 640 1792 l 1,12,-1
768 1792 m 1,16,-1
 896 1792 l 1,17,-1
 896 1664 l 1,18,-1
 768 1664 l 1,19,-1
 768 1792 l 1,16,-1
128 1664 m 1,20,-1
 256 1664 l 1,21,-1
 256 1536 l 1,22,-1
 128 1536 l 1,23,-1
 128 1664 l 1,20,-1
256 1664 m 1,24,-1
 384 1664 l 1,25,-1
 384 1536 l 1,26,-1
 256 1536 l 1,27,-1
 256 1664 l 1,24,-1
384 1664 m 1,28,-1
 512 1664 l 1,29,-1
 512 1536 l 1,30,-1
 384 1536 l 1,31,-1
 384 1664 l 1,28,-1
512 1664 m 1,32,-1
 640 1664 l 1,33,-1
 640 1536 l 1,34,-1
 512 1536 l 1,35,-1
 512 1664 l 1,32,-1
640 1664 m 1,36,-1
 768 1664 l 1,37,-1
 768 1536 l 1,38,-1
 640 1536 l 1,39,-1
 640 1664 l 1,36,-1
768 1664 m 1,40,-1
 896 1664 l 1,41,-1
 896 1536 l 1,42,-1
 768 1536 l 1,43,-1
 768 1664 l 1,40,-1
896 1664 m 1,44,-1
 1024 1664 l 1,45,-1
 1024 1536 l 1,46,-1
 896 1536 l 1,47,-1
 896 1664 l 1,44,-1
0 1536 m 1,48,-1
 128 1536 l 1,49,-1
 128 1408 l 1,50,-1
 0 1408 l 1,51,-1
 0 1536 l 1,48,-1
128 1536 m 1,52,-1
 256 1536 l 1,53,-1
 256 1408 l 1,54,-1
 128 1408 l 1,55,-1
 128 1536 l 1,52,-1
256 1536 m 1,56,-1
 384 1536 l 1,57,-1
 384 1408 l 1,58,-1
 256 1408 l 1,59,-1
 256 1536 l 1,56,-1
768 1536 m 1,60,-1
 896 1536 l 1,61,-1
 896 1408 l 1,62,-1
 768 1408 l 1,63,-1
 768 1536 l 1,60,-1
896 1536 m 1,64,-1
 1024 1536 l 1,65,-1
 1024 1408 l 1,66,-1
 896 1408 l 1,67,-1
 896 1536 l 1,64,-1
0 1408 m 1,68,-1
 128 1408 l 1,69,-1
 128 1280 l 1,70,-1
 0 1280 l 1,71,-1
 0 1408 l 1,68,-1
128 1408 m 1,72,-1
 256 1408 l 1,73,-1
 256 1280 l 1,74,-1
 128 1280 l 1,75,-1
 128 1408 l 1,72,-1
0 1280 m 1,76,-1
 128 1280 l 1,77,-1
 128 1152 l 1,78,-1
 0 1152 l 1,79,-1
 0 1280 l 1,76,-1
128 1280 m 1,80,-1
 256 1280 l 1,81,-1
 256 1152 l 1,82,-1
 128 1152 l 1,83,-1
 128 1280 l 1,80,-1
0 1152 m 1,84,-1
 128 1152 l 1,85,-1
 128 1024 l 1,86,-1
 0 1024 l 1,87,-1
 0 1152 l 1,84,-1
128 1152 m 1,88,-1
 256 1152 l 1,89,-1
 256 1024 l 1,90,-1
 128 1024 l 1,91,-1
 128 1152 l 1,88,-1
0 1024 m 1,92,-1
 128 1024 l 1,93,-1
 128 896 l 1,94,-1
 0 896 l 1,95,-1
 0 1024 l 1,92,-1
128 1024 m 1,96,-1
 256 1024 l 1,97,-1
 256 896 l 1,98,-1
 128 896 l 1,99,-1
 128 1024 l 1,96,-1
0 896 m 1,100,-1
 128 896 l 1,101,-1
 128 768 l 1,102,-1
 0 768 l 1,103,-1
 0 896 l 1,100,-1
128 896 m 1,104,-1
 256 896 l 1,105,-1
 256 768 l 1,106,-1
 128 768 l 1,107,-1
 128 896 l 1,104,-1
0 768 m 1,108,-1
 128 768 l 1,109,-1
 128 640 l 1,110,-1
 0 640 l 1,111,-1
 0 768 l 1,108,-1
128 768 m 1,112,-1
 256 768 l 1,113,-1
 256 640 l 1,114,-1
 128 640 l 1,115,-1
 128 768 l 1,112,-1
0 640 m 1,116,-1
 128 640 l 1,117,-1
 128 512 l 1,118,-1
 0 512 l 1,119,-1
 0 640 l 1,116,-1
128 640 m 1,120,-1
 256 640 l 1,121,-1
 256 512 l 1,122,-1
 128 512 l 1,123,-1
 128 640 l 1,120,-1
0 512 m 1,124,-1
 128 512 l 1,125,-1
 128 384 l 1,126,-1
 0 384 l 1,127,-1
 0 512 l 1,124,-1
128 512 m 1,128,-1
 256 512 l 1,129,-1
 256 384 l 1,130,-1
 128 384 l 1,131,-1
 128 512 l 1,128,-1
0 384 m 1,132,-1
 128 384 l 1,133,-1
 128 256 l 1,134,-1
 0 256 l 1,135,-1
 0 384 l 1,132,-1
128 384 m 1,136,-1
 256 384 l 1,137,-1
 256 256 l 1,138,-1
 128 256 l 1,139,-1
 128 384 l 1,136,-1
256 384 m 1,140,-1
 384 384 l 1,141,-1
 384 256 l 1,142,-1
 256 256 l 1,143,-1
 256 384 l 1,140,-1
768 384 m 1,144,-1
 896 384 l 1,145,-1
 896 256 l 1,146,-1
 768 256 l 1,147,-1
 768 384 l 1,144,-1
896 384 m 1,148,-1
 1024 384 l 1,149,-1
 1024 256 l 1,150,-1
 896 256 l 1,151,-1
 896 384 l 1,148,-1
128 256 m 1,152,-1
 256 256 l 1,153,-1
 256 128 l 1,154,-1
 128 128 l 1,155,-1
 128 256 l 1,152,-1
256 256 m 1,156,-1
 384 256 l 1,157,-1
 384 128 l 1,158,-1
 256 128 l 1,159,-1
 256 256 l 1,156,-1
384 256 m 1,160,-1
 512 256 l 1,161,-1
 512 128 l 1,162,-1
 384 128 l 1,163,-1
 384 256 l 1,160,-1
512 256 m 1,164,-1
 640 256 l 1,165,-1
 640 128 l 1,166,-1
 512 128 l 1,167,-1
 512 256 l 1,164,-1
640 256 m 1,168,-1
 768 256 l 1,169,-1
 768 128 l 1,170,-1
 640 128 l 1,171,-1
 640 256 l 1,168,-1
768 256 m 1,172,-1
 896 256 l 1,173,-1
 896 128 l 1,174,-1
 768 128 l 1,175,-1
 768 256 l 1,172,-1
896 256 m 1,176,-1
 1024 256 l 1,177,-1
 1024 128 l 1,178,-1
 896 128 l 1,179,-1
 896 256 l 1,176,-1
256 128 m 1,180,-1
 384 128 l 1,181,-1
 384 0 l 1,182,-1
 256 0 l 1,183,-1
 256 128 l 1,180,-1
384 128 m 1,184,-1
 512 128 l 1,185,-1
 512 0 l 1,186,-1
 384 0 l 1,187,-1
 384 128 l 1,184,-1
512 128 m 1,188,-1
 640 128 l 1,189,-1
 640 0 l 1,190,-1
 512 0 l 1,191,-1
 512 128 l 1,188,-1
640 128 m 1,192,-1
 768 128 l 1,193,-1
 768 0 l 1,194,-1
 640 0 l 1,195,-1
 640 128 l 1,192,-1
768 128 m 1,196,-1
 896 128 l 1,197,-1
 896 0 l 1,198,-1
 768 0 l 1,199,-1
 768 128 l 1,196,-1
EndSplineSet
EndChar

StartChar: D
Encoding: 68 68 33
Width: 1280
GlyphClass: 1
Flags: W
LayerCount: 2
Fore
SplineSet
0 1792 m 1,0,-1
 128 1792 l 1,1,-1
 128 1664 l 1,2,-1
 0 1664 l 1,3,-1
 0 1792 l 1,0,-1
128 1792 m 1,4,-1
 256 1792 l 1,5,-1
 256 1664 l 1,6,-1
 128 1664 l 1,7,-1
 128 1792 l 1,4,-1
256 1792 m 1,8,-1
 384 1792 l 1,9,-1
 384 1664 l 1,10,-1
 256 1664 l 1,11,-1
 256 1792 l 1,8,-1
384 1792 m 1,12,-1
 512 1792 l 1,13,-1
 512 1664 l 1,14,-1
 384 1664 l 1,15,-1
 384 1792 l 1,12,-1
512 1792 m 1,16,-1
 640 1792 l 1,17,-1
 640 1664 l 1,18,-1
 512 1664 l 1,19,-1
 512 1792 l 1,16,-1
640 1792 m 1,20,-1
 768 1792 l 1,21,-1
 768 1664 l 1,22,-1
 640 1664 l 1,23,-1
 640 1792 l 1,20,-1
0 1664 m 1,24,-1
 128 1664 l 1,25,-1
 128 1536 l 1,26,-1
 0 1536 l 1,27,-1
 0 1664 l 1,24,-1
128 1664 m 1,28,-1
 256 1664 l 1,29,-1
 256 1536 l 1,30,-1
 128 1536 l 1,31,-1
 128 1664 l 1,28,-1
256 1664 m 1,32,-1
 384 1664 l 1,33,-1
 384 1536 l 1,34,-1
 256 1536 l 1,35,-1
 256 1664 l 1,32,-1
384 1664 m 1,36,-1
 512 1664 l 1,37,-1
 512 1536 l 1,38,-1
 384 1536 l 1,39,-1
 384 1664 l 1,36,-1
512 1664 m 1,40,-1
 640 1664 l 1,41,-1
 640 1536 l 1,42,-1
 512 1536 l 1,43,-1
 512 1664 l 1,40,-1
640 1664 m 1,44,-1
 768 1664 l 1,45,-1
 768 1536 l 1,46,-1
 640 1536 l 1,47,-1
 640 1664 l 1,44,-1
768 1664 m 1,48,-1
 896 1664 l 1,49,-1
 896 1536 l 1,50,-1
 768 1536 l 1,51,-1
 768 1664 l 1,48,-1
0 1536 m 1,52,-1
 128 1536 l 1,53,-1
 128 1408 l 1,54,-1
 0 1408 l 1,55,-1
 0 1536 l 1,52,-1
128 1536 m 1,56,-1
 256 1536 l 1,57,-1
 256 1408 l 1,58,-1
 128 1408 l 1,59,-1
 128 1536 l 1,56,-1
640 1536 m 1,60,-1
 768 1536 l 1,61,-1
 768 1408 l 1,62,-1
 640 1408 l 1,63,-1
 640 1536 l 1,60,-1
768 1536 m 1,64,-1
 896 1536 l 1,65,-1
 896 1408 l 1,66,-1
 768 1408 l 1,67,-1
 768 1536 l 1,64,-1
896 1536 m 1,68,-1
 1024 1536 l 1,69,-1
 1024 1408 l 1,70,-1
 896 1408 l 1,71,-1
 896 1536 l 1,68,-1
0 1408 m 1,72,-1
 128 1408 l 1,73,-1
 128 1280 l 1,74,-1
 0 1280 l 1,75,-1
 0 1408 l 1,72,-1
128 1408 m 1,76,-1
 256 1408 l 1,77,-1
 256 1280 l 1,78,-1
 128 1280 l 1,79,-1
 128 1408 l 1,76,-1
768 1408 m 1,80,-1
 896 1408 l 1,81,-1
 896 1280 l 1,82,-1
 768 1280 l 1,83,-1
 768 1408 l 1,80,-1
896 1408 m 1,84,-1
 1024 1408 l 1,85,-1
 1024 1280 l 1,86,-1
 896 1280 l 1,87,-1
 896 1408 l 1,84,-1
0 1280 m 1,88,-1
 128 1280 l 1,89,-1
 128 1152 l 1,90,-1
 0 1152 l 1,91,-1
 0 1280 l 1,88,-1
128 1280 m 1,92,-1
 256 1280 l 1,93,-1
 256 1152 l 1,94,-1
 128 1152 l 1,95,-1
 128 1280 l 1,92,-1
768 1280 m 1,96,-1
 896 1280 l 1,97,-1
 896 1152 l 1,98,-1
 768 1152 l 1,99,-1
 768 1280 l 1,96,-1
896 1280 m 1,100,-1
 1024 1280 l 1,101,-1
 1024 1152 l 1,102,-1
 896 1152 l 1,103,-1
 896 1280 l 1,100,-1
0 1152 m 1,104,-1
 128 1152 l 1,105,-1
 128 1024 l 1,106,-1
 0 1024 l 1,107,-1
 0 1152 l 1,104,-1
128 1152 m 1,108,-1
 256 1152 l 1,109,-1
 256 1024 l 1,110,-1
 128 1024 l 1,111,-1
 128 1152 l 1,108,-1
768 1152 m 1,112,-1
 896 1152 l 1,113,-1
 896 1024 l 1,114,-1
 768 1024 l 1,115,-1
 768 1152 l 1,112,-1
896 1152 m 1,116,-1
 1024 1152 l 1,117,-1
 1024 1024 l 1,118,-1
 896 1024 l 1,119,-1
 896 1152 l 1,116,-1
0 1024 m 1,120,-1
 128 1024 l 1,121,-1
 128 896 l 1,122,-1
 0 896 l 1,123,-1
 0 1024 l 1,120,-1
128 1024 m 1,124,-1
 256 1024 l 1,125,-1
 256 896 l 1,126,-1
 128 896 l 1,127,-1
 128 1024 l 1,124,-1
768 1024 m 1,128,-1
 896 1024 l 1,129,-1
 896 896 l 1,130,-1
 768 896 l 1,131,-1
 768 1024 l 1,128,-1
896 1024 m 1,132,-1
 1024 1024 l 1,133,-1
 1024 896 l 1,134,-1
 896 896 l 1,135,-1
 896 1024 l 1,132,-1
0 896 m 1,136,-1
 128 896 l 1,137,-1
 128 768 l 1,138,-1
 0 768 l 1,139,-1
 0 896 l 1,136,-1
128 896 m 1,140,-1
 256 896 l 1,141,-1
 256 768 l 1,142,-1
 128 768 l 1,143,-1
 128 896 l 1,140,-1
768 896 m 1,144,-1
 896 896 l 1,145,-1
 896 768 l 1,146,-1
 768 768 l 1,147,-1
 768 896 l 1,144,-1
896 896 m 1,148,-1
 1024 896 l 1,149,-1
 1024 768 l 1,150,-1
 896 768 l 1,151,-1
 896 896 l 1,148,-1
0 768 m 1,152,-1
 128 768 l 1,153,-1
 128 640 l 1,154,-1
 0 640 l 1,155,-1
 0 768 l 1,152,-1
128 768 m 1,156,-1
 256 768 l 1,157,-1
 256 640 l 1,158,-1
 128 640 l 1,159,-1
 128 768 l 1,156,-1
768 768 m 1,160,-1
 896 768 l 1,161,-1
 896 640 l 1,162,-1
 768 640 l 1,163,-1
 768 768 l 1,160,-1
896 768 m 1,164,-1
 1024 768 l 1,165,-1
 1024 640 l 1,166,-1
 896 640 l 1,167,-1
 896 768 l 1,164,-1
0 640 m 1,168,-1
 128 640 l 1,169,-1
 128 512 l 1,170,-1
 0 512 l 1,171,-1
 0 640 l 1,168,-1
128 640 m 1,172,-1
 256 640 l 1,173,-1
 256 512 l 1,174,-1
 128 512 l 1,175,-1
 128 640 l 1,172,-1
768 640 m 1,176,-1
 896 640 l 1,177,-1
 896 512 l 1,178,-1
 768 512 l 1,179,-1
 768 640 l 1,176,-1
896 640 m 1,180,-1
 1024 640 l 1,181,-1
 1024 512 l 1,182,-1
 896 512 l 1,183,-1
 896 640 l 1,180,-1
0 512 m 1,184,-1
 128 512 l 1,185,-1
 128 384 l 1,186,-1
 0 384 l 1,187,-1
 0 512 l 1,184,-1
128 512 m 1,188,-1
 256 512 l 1,189,-1
 256 384 l 1,190,-1
 128 384 l 1,191,-1
 128 512 l 1,188,-1
768 512 m 1,192,-1
 896 512 l 1,193,-1
 896 384 l 1,194,-1
 768 384 l 1,195,-1
 768 512 l 1,192,-1
896 512 m 1,196,-1
 1024 512 l 1,197,-1
 1024 384 l 1,198,-1
 896 384 l 1,199,-1
 896 512 l 1,196,-1
0 384 m 1,200,-1
 128 384 l 1,201,-1
 128 256 l 1,202,-1
 0 256 l 1,203,-1
 0 384 l 1,200,-1
128 384 m 1,204,-1
 256 384 l 1,205,-1
 256 256 l 1,206,-1
 128 256 l 1,207,-1
 128 384 l 1,204,-1
640 384 m 1,208,-1
 768 384 l 1,209,-1
 768 256 l 1,210,-1
 640 256 l 1,211,-1
 640 384 l 1,208,-1
768 384 m 1,212,-1
 896 384 l 1,213,-1
 896 256 l 1,214,-1
 768 256 l 1,215,-1
 768 384 l 1,212,-1
896 384 m 1,216,-1
 1024 384 l 1,217,-1
 1024 256 l 1,218,-1
 896 256 l 1,219,-1
 896 384 l 1,216,-1
0 256 m 1,220,-1
 128 256 l 1,221,-1
 128 128 l 1,222,-1
 0 128 l 1,223,-1
 0 256 l 1,220,-1
128 256 m 1,224,-1
 256 256 l 1,225,-1
 256 128 l 1,226,-1
 128 128 l 1,227,-1
 128 256 l 1,224,-1
256 256 m 1,228,-1
 384 256 l 1,229,-1
 384 128 l 1,230,-1
 256 128 l 1,231,-1
 256 256 l 1,228,-1
384 256 m 1,232,-1
 512 256 l 1,233,-1
 512 128 l 1,234,-1
 384 128 l 1,235,-1
 384 256 l 1,232,-1
512 256 m 1,236,-1
 640 256 l 1,237,-1
 640 128 l 1,238,-1
 512 128 l 1,239,-1
 512 256 l 1,236,-1
640 256 m 1,240,-1
 768 256 l 1,241,-1
 768 128 l 1,242,-1
 640 128 l 1,243,-1
 640 256 l 1,240,-1
768 256 m 1,244,-1
 896 256 l 1,245,-1
 896 128 l 1,246,-1
 768 128 l 1,247,-1
 768 256 l 1,244,-1
0 128 m 1,248,-1
 128 128 l 1,249,-1
 128 0 l 1,250,-1
 0 0 l 1,251,-1
 0 128 l 1,248,-1
128 128 m 1,252,-1
 256 128 l 1,253,-1
 256 0 l 1,254,-1
 128 0 l 1,255,-1
 128 128 l 1,252,-1
256 128 m 1,256,-1
 384 128 l 1,257,-1
 384 0 l 1,258,-1
 256 0 l 1,259,-1
 256 128 l 1,256,-1
384 128 m 1,260,-1
 512 128 l 1,261,-1
 512 0 l 1,262,-1
 384 0 l 1,263,-1
 384 128 l 1,260,-1
512 128 m 1,264,-1
 640 128 l 1,265,-1
 640 0 l 1,266,-1
 512 0 l 1,267,-1
 512 128 l 1,264,-1
640 128 m 1,268,-1
 768 128 l 1,269,-1
 768 0 l 1,270,-1
 640 0 l 1,271,-1
 640 128 l 1,268,-1
EndSplineSet
EndChar

StartChar: E
Encoding: 69 69 34
Width: 1280
GlyphClass: 1
Flags: W
LayerCount: 2
Fore
SplineSet
0 1792 m 1,0,-1
 128 1792 l 1,1,-1
 128 1664 l 1,2,-1
 0 1664 l 1,3,-1
 0 1792 l 1,0,-1
128 1792 m 1,4,-1
 256 1792 l 1,5,-1
 256 1664 l 1,6,-1
 128 1664 l 1,7,-1
 128 1792 l 1,4,-1
256 1792 m 1,8,-1
 384 1792 l 1,9,-1
 384 1664 l 1,10,-1
 256 1664 l 1,11,-1
 256 1792 l 1,8,-1
384 1792 m 1,12,-1
 512 1792 l 1,13,-1
 512 1664 l 1,14,-1
 384 1664 l 1,15,-1
 384 1792 l 1,12,-1
512 1792 m 1,16,-1
 640 1792 l 1,17,-1
 640 1664 l 1,18,-1
 512 1664 l 1,19,-1
 512 1792 l 1,16,-1
640 1792 m 1,20,-1
 768 1792 l 1,21,-1
 768 1664 l 1,22,-1
 640 1664 l 1,23,-1
 640 1792 l 1,20,-1
768 1792 m 1,24,-1
 896 1792 l 1,25,-1
 896 1664 l 1,26,-1
 768 1664 l 1,27,-1
 768 1792 l 1,24,-1
896 1792 m 1,28,-1
 1024 1792 l 1,29,-1
 1024 1664 l 1,30,-1
 896 1664 l 1,31,-1
 896 1792 l 1,28,-1
0 1664 m 1,32,-1
 128 1664 l 1,33,-1
 128 1536 l 1,34,-1
 0 1536 l 1,35,-1
 0 1664 l 1,32,-1
128 1664 m 1,36,-1
 256 1664 l 1,37,-1
 256 1536 l 1,38,-1
 128 1536 l 1,39,-1
 128 1664 l 1,36,-1
256 1664 m 1,40,-1
 384 1664 l 1,41,-1
 384 1536 l 1,42,-1
 256 1536 l 1,43,-1
 256 1664 l 1,40,-1
384 1664 m 1,44,-1
 512 1664 l 1,45,-1
 512 1536 l 1,46,-1
 384 1536 l 1,47,-1
 384 1664 l 1,44,-1
512 1664 m 1,48,-1
 640 1664 l 1,49,-1
 640 1536 l 1,50,-1
 512 1536 l 1,51,-1
 512 1664 l 1,48,-1
640 1664 m 1,52,-1
 768 1664 l 1,53,-1
 768 1536 l 1,54,-1
 640 1536 l 1,55,-1
 640 1664 l 1,52,-1
768 1664 m 1,56,-1
 896 1664 l 1,57,-1
 896 1536 l 1,58,-1
 768 1536 l 1,59,-1
 768 1664 l 1,56,-1
896 1664 m 1,60,-1
 1024 1664 l 1,61,-1
 1024 1536 l 1,62,-1
 896 1536 l 1,63,-1
 896 1664 l 1,60,-1
0 1536 m 1,64,-1
 128 1536 l 1,65,-1
 128 1408 l 1,66,-1
 0 1408 l 1,67,-1
 0 1536 l 1,64,-1
128 1536 m 1,68,-1
 256 1536 l 1,69,-1
 256 1408 l 1,70,-1
 128 1408 l 1,71,-1
 128 1536 l 1,68,-1
0 1408 m 1,72,-1
 128 1408 l 1,73,-1
 128 1280 l 1,74,-1
 0 1280 l 1,75,-1
 0 1408 l 1,72,-1
128 1408 m 1,76,-1
 256 1408 l 1,77,-1
 256 1280 l 1,78,-1
 128 1280 l 1,79,-1
 128 1408 l 1,76,-1
0 1280 m 1,80,-1
 128 1280 l 1,81,-1
 128 1152 l 1,82,-1
 0 1152 l 1,83,-1
 0 1280 l 1,80,-1
128 1280 m 1,84,-1
 256 1280 l 1,85,-1
 256 1152 l 1,86,-1
 128 1152 l 1,87,-1
 128 1280 l 1,84,-1
0 1152 m 1,88,-1
 128 1152 l 1,89,-1
 128 1024 l 1,90,-1
 0 1024 l 1,91,-1
 0 1152 l 1,88,-1
128 1152 m 1,92,-1
 256 1152 l 1,93,-1
 256 1024 l 1,94,-1
 128 1024 l 1,95,-1
 128 1152 l 1,92,-1
256 1152 m 1,96,-1
 384 1152 l 1,97,-1
 384 1024 l 1,98,-1
 256 1024 l 1,99,-1
 256 1152 l 1,96,-1
384 1152 m 1,100,-1
 512 1152 l 1,101,-1
 512 1024 l 1,102,-1
 384 1024 l 1,103,-1
 384 1152 l 1,100,-1
0 1024 m 1,104,-1
 128 1024 l 1,105,-1
 128 896 l 1,106,-1
 0 896 l 1,107,-1
 0 1024 l 1,104,-1
128 1024 m 1,108,-1
 256 1024 l 1,109,-1
 256 896 l 1,110,-1
 128 896 l 1,111,-1
 128 1024 l 1,108,-1
256 1024 m 1,112,-1
 384 1024 l 1,113,-1
 384 896 l 1,114,-1
 256 896 l 1,115,-1
 256 1024 l 1,112,-1
384 1024 m 1,116,-1
 512 1024 l 1,117,-1
 512 896 l 1,118,-1
 384 896 l 1,119,-1
 384 1024 l 1,116,-1
0 896 m 1,120,-1
 128 896 l 1,121,-1
 128 768 l 1,122,-1
 0 768 l 1,123,-1
 0 896 l 1,120,-1
128 896 m 1,124,-1
 256 896 l 1,125,-1
 256 768 l 1,126,-1
 128 768 l 1,127,-1
 128 896 l 1,124,-1
0 768 m 1,128,-1
 128 768 l 1,129,-1
 128 640 l 1,130,-1
 0 640 l 1,131,-1
 0 768 l 1,128,-1
128 768 m 1,132,-1
 256 768 l 1,133,-1
 256 640 l 1,134,-1
 128 640 l 1,135,-1
 128 768 l 1,132,-1
0 640 m 1,136,-1
 128 640 l 1,137,-1
 128 512 l 1,138,-1
 0 512 l 1,139,-1
 0 640 l 1,136,-1
128 640 m 1,140,-1
 256 640 l 1,141,-1
 256 512 l 1,142,-1
 128 512 l 1,143,-1
 128 640 l 1,140,-1
0 512 m 1,144,-1
 128 512 l 1,145,-1
 128 384 l 1,146,-1
 0 384 l 1,147,-1
 0 512 l 1,144,-1
128 512 m 1,148,-1
 256 512 l 1,149,-1
 256 384 l 1,150,-1
 128 384 l 1,151,-1
 128 512 l 1,148,-1
0 384 m 1,152,-1
 128 384 l 1,153,-1
 128 256 l 1,154,-1
 0 256 l 1,155,-1
 0 384 l 1,152,-1
128 384 m 1,156,-1
 256 384 l 1,157,-1
 256 256 l 1,158,-1
 128 256 l 1,159,-1
 128 384 l 1,156,-1
0 256 m 1,160,-1
 128 256 l 1,161,-1
 128 128 l 1,162,-1
 0 128 l 1,163,-1
 0 256 l 1,160,-1
128 256 m 1,164,-1
 256 256 l 1,165,-1
 256 128 l 1,166,-1
 128 128 l 1,167,-1
 128 256 l 1,164,-1
256 256 m 1,168,-1
 384 256 l 1,169,-1
 384 128 l 1,170,-1
 256 128 l 1,171,-1
 256 256 l 1,168,-1
384 256 m 1,172,-1
 512 256 l 1,173,-1
 512 128 l 1,174,-1
 384 128 l 1,175,-1
 384 256 l 1,172,-1
512 256 m 1,176,-1
 640 256 l 1,177,-1
 640 128 l 1,178,-1
 512 128 l 1,179,-1
 512 256 l 1,176,-1
640 256 m 1,180,-1
 768 256 l 1,181,-1
 768 128 l 1,182,-1
 640 128 l 1,183,-1
 640 256 l 1,180,-1
768 256 m 1,184,-1
 896 256 l 1,185,-1
 896 128 l 1,186,-1
 768 128 l 1,187,-1
 768 256 l 1,184,-1
896 256 m 1,188,-1
 1024 256 l 1,189,-1
 1024 128 l 1,190,-1
 896 128 l 1,191,-1
 896 256 l 1,188,-1
0 128 m 1,192,-1
 128 128 l 1,193,-1
 128 0 l 1,194,-1
 0 0 l 1,195,-1
 0 128 l 1,192,-1
128 128 m 1,196,-1
 256 128 l 1,197,-1
 256 0 l 1,198,-1
 128 0 l 1,199,-1
 128 128 l 1,196,-1
256 128 m 1,200,-1
 384 128 l 1,201,-1
 384 0 l 1,202,-1
 256 0 l 1,203,-1
 256 128 l 1,200,-1
384 128 m 1,204,-1
 512 128 l 1,205,-1
 512 0 l 1,206,-1
 384 0 l 1,207,-1
 384 128 l 1,204,-1
512 128 m 1,208,-1
 640 128 l 1,209,-1
 640 0 l 1,210,-1
 512 0 l 1,211,-1
 512 128 l 1,208,-1
640 128 m 1,212,-1
 768 128 l 1,213,-1
 768 0 l 1,214,-1
 640 0 l 1,215,-1
 640 128 l 1,212,-1
768 128 m 1,216,-1
 896 128 l 1,217,-1
 896 0 l 1,218,-1
 768 0 l 1,219,-1
 768 128 l 1,216,-1
896 128 m 1,220,-1
 1024 128 l 1,221,-1
 1024 0 l 1,222,-1
 896 0 l 1,223,-1
 896 128 l 1,220,-1
EndSplineSet
EndChar

StartChar: F
Encoding: 70 70 35
Width: 1280
GlyphClass: 1
Flags: W
LayerCount: 2
Fore
SplineSet
0 1792 m 1,0,-1
 128 1792 l 1,1,-1
 128 1664 l 1,2,-1
 0 1664 l 1,3,-1
 0 1792 l 1,0,-1
128 1792 m 1,4,-1
 256 1792 l 1,5,-1
 256 1664 l 1,6,-1
 128 1664 l 1,7,-1
 128 1792 l 1,4,-1
256 1792 m 1,8,-1
 384 1792 l 1,9,-1
 384 1664 l 1,10,-1
 256 1664 l 1,11,-1
 256 1792 l 1,8,-1
384 1792 m 1,12,-1
 512 1792 l 1,13,-1
 512 1664 l 1,14,-1
 384 1664 l 1,15,-1
 384 1792 l 1,12,-1
512 1792 m 1,16,-1
 640 1792 l 1,17,-1
 640 1664 l 1,18,-1
 512 1664 l 1,19,-1
 512 1792 l 1,16,-1
640 1792 m 1,20,-1
 768 1792 l 1,21,-1
 768 1664 l 1,22,-1
 640 1664 l 1,23,-1
 640 1792 l 1,20,-1
768 1792 m 1,24,-1
 896 1792 l 1,25,-1
 896 1664 l 1,26,-1
 768 1664 l 1,27,-1
 768 1792 l 1,24,-1
896 1792 m 1,28,-1
 1024 1792 l 1,29,-1
 1024 1664 l 1,30,-1
 896 1664 l 1,31,-1
 896 1792 l 1,28,-1
0 1664 m 1,32,-1
 128 1664 l 1,33,-1
 128 1536 l 1,34,-1
 0 1536 l 1,35,-1
 0 1664 l 1,32,-1
128 1664 m 1,36,-1
 256 1664 l 1,37,-1
 256 1536 l 1,38,-1
 128 1536 l 1,39,-1
 128 1664 l 1,36,-1
256 1664 m 1,40,-1
 384 1664 l 1,41,-1
 384 1536 l 1,42,-1
 256 1536 l 1,43,-1
 256 1664 l 1,40,-1
384 1664 m 1,44,-1
 512 1664 l 1,45,-1
 512 1536 l 1,46,-1
 384 1536 l 1,47,-1
 384 1664 l 1,44,-1
512 1664 m 1,48,-1
 640 1664 l 1,49,-1
 640 1536 l 1,50,-1
 512 1536 l 1,51,-1
 512 1664 l 1,48,-1
640 1664 m 1,52,-1
 768 1664 l 1,53,-1
 768 1536 l 1,54,-1
 640 1536 l 1,55,-1
 640 1664 l 1,52,-1
768 1664 m 1,56,-1
 896 1664 l 1,57,-1
 896 1536 l 1,58,-1
 768 1536 l 1,59,-1
 768 1664 l 1,56,-1
896 1664 m 1,60,-1
 1024 1664 l 1,61,-1
 1024 1536 l 1,62,-1
 896 1536 l 1,63,-1
 896 1664 l 1,60,-1
0 1536 m 1,64,-1
 128 1536 l 1,65,-1
 128 1408 l 1,66,-1
 0 1408 l 1,67,-1
 0 1536 l 1,64,-1
128 1536 m 1,68,-1
 256 1536 l 1,69,-1
 256 1408 l 1,70,-1
 128 1408 l 1,71,-1
 128 1536 l 1,68,-1
0 1408 m 1,72,-1
 128 1408 l 1,73,-1
 128 1280 l 1,74,-1
 0 1280 l 1,75,-1
 0 1408 l 1,72,-1
128 1408 m 1,76,-1
 256 1408 l 1,77,-1
 256 1280 l 1,78,-1
 128 1280 l 1,79,-1
 128 1408 l 1,76,-1
0 1280 m 1,80,-1
 128 1280 l 1,81,-1
 128 1152 l 1,82,-1
 0 1152 l 1,83,-1
 0 1280 l 1,80,-1
128 1280 m 1,84,-1
 256 1280 l 1,85,-1
 256 1152 l 1,86,-1
 128 1152 l 1,87,-1
 128 1280 l 1,84,-1
0 1152 m 1,88,-1
 128 1152 l 1,89,-1
 128 1024 l 1,90,-1
 0 1024 l 1,91,-1
 0 1152 l 1,88,-1
128 1152 m 1,92,-1
 256 1152 l 1,93,-1
 256 1024 l 1,94,-1
 128 1024 l 1,95,-1
 128 1152 l 1,92,-1
256 1152 m 1,96,-1
 384 1152 l 1,97,-1
 384 1024 l 1,98,-1
 256 1024 l 1,99,-1
 256 1152 l 1,96,-1
384 1152 m 1,100,-1
 512 1152 l 1,101,-1
 512 1024 l 1,102,-1
 384 1024 l 1,103,-1
 384 1152 l 1,100,-1
512 1152 m 1,104,-1
 640 1152 l 1,105,-1
 640 1024 l 1,106,-1
 512 1024 l 1,107,-1
 512 1152 l 1,104,-1
0 1024 m 1,108,-1
 128 1024 l 1,109,-1
 128 896 l 1,110,-1
 0 896 l 1,111,-1
 0 1024 l 1,108,-1
128 1024 m 1,112,-1
 256 1024 l 1,113,-1
 256 896 l 1,114,-1
 128 896 l 1,115,-1
 128 1024 l 1,112,-1
256 1024 m 1,116,-1
 384 1024 l 1,117,-1
 384 896 l 1,118,-1
 256 896 l 1,119,-1
 256 1024 l 1,116,-1
384 1024 m 1,120,-1
 512 1024 l 1,121,-1
 512 896 l 1,122,-1
 384 896 l 1,123,-1
 384 1024 l 1,120,-1
512 1024 m 1,124,-1
 640 1024 l 1,125,-1
 640 896 l 1,126,-1
 512 896 l 1,127,-1
 512 1024 l 1,124,-1
0 896 m 1,128,-1
 128 896 l 1,129,-1
 128 768 l 1,130,-1
 0 768 l 1,131,-1
 0 896 l 1,128,-1
128 896 m 1,132,-1
 256 896 l 1,133,-1
 256 768 l 1,134,-1
 128 768 l 1,135,-1
 128 896 l 1,132,-1
0 768 m 1,136,-1
 128 768 l 1,137,-1
 128 640 l 1,138,-1
 0 640 l 1,139,-1
 0 768 l 1,136,-1
128 768 m 1,140,-1
 256 768 l 1,141,-1
 256 640 l 1,142,-1
 128 640 l 1,143,-1
 128 768 l 1,140,-1
0 640 m 1,144,-1
 128 640 l 1,145,-1
 128 512 l 1,146,-1
 0 512 l 1,147,-1
 0 640 l 1,144,-1
128 640 m 1,148,-1
 256 640 l 1,149,-1
 256 512 l 1,150,-1
 128 512 l 1,151,-1
 128 640 l 1,148,-1
0 512 m 1,152,-1
 128 512 l 1,153,-1
 128 384 l 1,154,-1
 0 384 l 1,155,-1
 0 512 l 1,152,-1
128 512 m 1,156,-1
 256 512 l 1,157,-1
 256 384 l 1,158,-1
 128 384 l 1,159,-1
 128 512 l 1,156,-1
0 384 m 1,160,-1
 128 384 l 1,161,-1
 128 256 l 1,162,-1
 0 256 l 1,163,-1
 0 384 l 1,160,-1
128 384 m 1,164,-1
 256 384 l 1,165,-1
 256 256 l 1,166,-1
 128 256 l 1,167,-1
 128 384 l 1,164,-1
0 256 m 1,168,-1
 128 256 l 1,169,-1
 128 128 l 1,170,-1
 0 128 l 1,171,-1
 0 256 l 1,168,-1
128 256 m 1,172,-1
 256 256 l 1,173,-1
 256 128 l 1,174,-1
 128 128 l 1,175,-1
 128 256 l 1,172,-1
0 128 m 1,176,-1
 128 128 l 1,177,-1
 128 0 l 1,178,-1
 0 0 l 1,179,-1
 0 128 l 1,176,-1
128 128 m 1,180,-1
 256 128 l 1,181,-1
 256 0 l 1,182,-1
 128 0 l 1,183,-1
 128 128 l 1,180,-1
EndSplineSet
EndChar

StartChar: G
Encoding: 71 71 36
Width: 1280
GlyphClass: 1
Flags: W
LayerCount: 2
Fore
SplineSet
128 1792 m 1,0,-1
 256 1792 l 1,1,-1
 256 1664 l 1,2,-1
 128 1664 l 1,3,-1
 128 1792 l 1,0,-1
256 1792 m 1,4,-1
 384 1792 l 1,5,-1
 384 1664 l 1,6,-1
 256 1664 l 1,7,-1
 256 1792 l 1,4,-1
384 1792 m 1,8,-1
 512 1792 l 1,9,-1
 512 1664 l 1,10,-1
 384 1664 l 1,11,-1
 384 1792 l 1,8,-1
512 1792 m 1,12,-1
 640 1792 l 1,13,-1
 640 1664 l 1,14,-1
 512 1664 l 1,15,-1
 512 1792 l 1,12,-1
640 1792 m 1,16,-1
 768 1792 l 1,17,-1
 768 1664 l 1,18,-1
 640 1664 l 1,19,-1
 640 1792 l 1,16,-1
768 1792 m 1,20,-1
 896 1792 l 1,21,-1
 896 1664 l 1,22,-1
 768 1664 l 1,23,-1
 768 1792 l 1,20,-1
0 1664 m 1,24,-1
 128 1664 l 1,25,-1
 128 1536 l 1,26,-1
 0 1536 l 1,27,-1
 0 1664 l 1,24,-1
128 1664 m 1,28,-1
 256 1664 l 1,29,-1
 256 1536 l 1,30,-1
 128 1536 l 1,31,-1
 128 1664 l 1,28,-1
256 1664 m 1,32,-1
 384 1664 l 1,33,-1
 384 1536 l 1,34,-1
 256 1536 l 1,35,-1
 256 1664 l 1,32,-1
384 1664 m 1,36,-1
 512 1664 l 1,37,-1
 512 1536 l 1,38,-1
 384 1536 l 1,39,-1
 384 1664 l 1,36,-1
512 1664 m 1,40,-1
 640 1664 l 1,41,-1
 640 1536 l 1,42,-1
 512 1536 l 1,43,-1
 512 1664 l 1,40,-1
640 1664 m 1,44,-1
 768 1664 l 1,45,-1
 768 1536 l 1,46,-1
 640 1536 l 1,47,-1
 640 1664 l 1,44,-1
768 1664 m 1,48,-1
 896 1664 l 1,49,-1
 896 1536 l 1,50,-1
 768 1536 l 1,51,-1
 768 1664 l 1,48,-1
896 1664 m 1,52,-1
 1024 1664 l 1,53,-1
 1024 1536 l 1,54,-1
 896 1536 l 1,55,-1
 896 1664 l 1,52,-1
0 1536 m 1,56,-1
 128 1536 l 1,57,-1
 128 1408 l 1,58,-1
 0 1408 l 1,59,-1
 0 1536 l 1,56,-1
128 1536 m 1,60,-1
 256 1536 l 1,61,-1
 256 1408 l 1,62,-1
 128 1408 l 1,63,-1
 128 1536 l 1,60,-1
768 1536 m 1,64,-1
 896 1536 l 1,65,-1
 896 1408 l 1,66,-1
 768 1408 l 1,67,-1
 768 1536 l 1,64,-1
896 1536 m 1,68,-1
 1024 1536 l 1,69,-1
 1024 1408 l 1,70,-1
 896 1408 l 1,71,-1
 896 1536 l 1,68,-1
0 1408 m 1,72,-1
 128 1408 l 1,73,-1
 128 1280 l 1,74,-1
 0 1280 l 1,75,-1
 0 1408 l 1,72,-1
128 1408 m 1,76,-1
 256 1408 l 1,77,-1
 256 1280 l 1,78,-1
 128 1280 l 1,79,-1
 128 1408 l 1,76,-1
768 1408 m 1,80,-1
 896 1408 l 1,81,-1
 896 1280 l 1,82,-1
 768 1280 l 1,83,-1
 768 1408 l 1,80,-1
896 1408 m 1,84,-1
 1024 1408 l 1,85,-1
 1024 1280 l 1,86,-1
 896 1280 l 1,87,-1
 896 1408 l 1,84,-1
0 1280 m 1,88,-1
 128 1280 l 1,89,-1
 128 1152 l 1,90,-1
 0 1152 l 1,91,-1
 0 1280 l 1,88,-1
128 1280 m 1,92,-1
 256 1280 l 1,93,-1
 256 1152 l 1,94,-1
 128 1152 l 1,95,-1
 128 1280 l 1,92,-1
0 1152 m 1,96,-1
 128 1152 l 1,97,-1
 128 1024 l 1,98,-1
 0 1024 l 1,99,-1
 0 1152 l 1,96,-1
128 1152 m 1,100,-1
 256 1152 l 1,101,-1
 256 1024 l 1,102,-1
 128 1024 l 1,103,-1
 128 1152 l 1,100,-1
0 1024 m 1,104,-1
 128 1024 l 1,105,-1
 128 896 l 1,106,-1
 0 896 l 1,107,-1
 0 1024 l 1,104,-1
128 1024 m 1,108,-1
 256 1024 l 1,109,-1
 256 896 l 1,110,-1
 128 896 l 1,111,-1
 128 1024 l 1,108,-1
0 896 m 1,112,-1
 128 896 l 1,113,-1
 128 768 l 1,114,-1
 0 768 l 1,115,-1
 0 896 l 1,112,-1
128 896 m 1,116,-1
 256 896 l 1,117,-1
 256 768 l 1,118,-1
 128 768 l 1,119,-1
 128 896 l 1,116,-1
0 768 m 1,120,-1
 128 768 l 1,121,-1
 128 640 l 1,122,-1
 0 640 l 1,123,-1
 0 768 l 1,120,-1
128 768 m 1,124,-1
 256 768 l 1,125,-1
 256 640 l 1,126,-1
 128 640 l 1,127,-1
 128 768 l 1,124,-1
640 768 m 1,128,-1
 768 768 l 1,129,-1
 768 640 l 1,130,-1
 640 640 l 1,131,-1
 640 768 l 1,128,-1
768 768 m 1,132,-1
 896 768 l 1,133,-1
 896 640 l 1,134,-1
 768 640 l 1,135,-1
 768 768 l 1,132,-1
0 640 m 1,136,-1
 128 640 l 1,137,-1
 128 512 l 1,138,-1
 0 512 l 1,139,-1
 0 640 l 1,136,-1
128 640 m 1,140,-1
 256 640 l 1,141,-1
 256 512 l 1,142,-1
 128 512 l 1,143,-1
 128 640 l 1,140,-1
640 640 m 1,144,-1
 768 640 l 1,145,-1
 768 512 l 1,146,-1
 640 512 l 1,147,-1
 640 640 l 1,144,-1
768 640 m 1,148,-1
 896 640 l 1,149,-1
 896 512 l 1,150,-1
 768 512 l 1,151,-1
 768 640 l 1,148,-1
896 640 m 1,152,-1
 1024 640 l 1,153,-1
 1024 512 l 1,154,-1
 896 512 l 1,155,-1
 896 640 l 1,152,-1
0 512 m 1,156,-1
 128 512 l 1,157,-1
 128 384 l 1,158,-1
 0 384 l 1,159,-1
 0 512 l 1,156,-1
128 512 m 1,160,-1
 256 512 l 1,161,-1
 256 384 l 1,162,-1
 128 384 l 1,163,-1
 128 512 l 1,160,-1
768 512 m 1,164,-1
 896 512 l 1,165,-1
 896 384 l 1,166,-1
 768 384 l 1,167,-1
 768 512 l 1,164,-1
896 512 m 1,168,-1
 1024 512 l 1,169,-1
 1024 384 l 1,170,-1
 896 384 l 1,171,-1
 896 512 l 1,168,-1
0 384 m 1,172,-1
 128 384 l 1,173,-1
 128 256 l 1,174,-1
 0 256 l 1,175,-1
 0 384 l 1,172,-1
128 384 m 1,176,-1
 256 384 l 1,177,-1
 256 256 l 1,178,-1
 128 256 l 1,179,-1
 128 384 l 1,176,-1
768 384 m 1,180,-1
 896 384 l 1,181,-1
 896 256 l 1,182,-1
 768 256 l 1,183,-1
 768 384 l 1,180,-1
896 384 m 1,184,-1
 1024 384 l 1,185,-1
 1024 256 l 1,186,-1
 896 256 l 1,187,-1
 896 384 l 1,184,-1
0 256 m 1,188,-1
 128 256 l 1,189,-1
 128 128 l 1,190,-1
 0 128 l 1,191,-1
 0 256 l 1,188,-1
128 256 m 1,192,-1
 256 256 l 1,193,-1
 256 128 l 1,194,-1
 128 128 l 1,195,-1
 128 256 l 1,192,-1
256 256 m 1,196,-1
 384 256 l 1,197,-1
 384 128 l 1,198,-1
 256 128 l 1,199,-1
 256 256 l 1,196,-1
384 256 m 1,200,-1
 512 256 l 1,201,-1
 512 128 l 1,202,-1
 384 128 l 1,203,-1
 384 256 l 1,200,-1
512 256 m 1,204,-1
 640 256 l 1,205,-1
 640 128 l 1,206,-1
 512 128 l 1,207,-1
 512 256 l 1,204,-1
640 256 m 1,208,-1
 768 256 l 1,209,-1
 768 128 l 1,210,-1
 640 128 l 1,211,-1
 640 256 l 1,208,-1
768 256 m 1,212,-1
 896 256 l 1,213,-1
 896 128 l 1,214,-1
 768 128 l 1,215,-1
 768 256 l 1,212,-1
896 256 m 1,216,-1
 1024 256 l 1,217,-1
 1024 128 l 1,218,-1
 896 128 l 1,219,-1
 896 256 l 1,216,-1
128 128 m 1,220,-1
 256 128 l 1,221,-1
 256 0 l 1,222,-1
 128 0 l 1,223,-1
 128 128 l 1,220,-1
256 128 m 1,224,-1
 384 128 l 1,225,-1
 384 0 l 1,226,-1
 256 0 l 1,227,-1
 256 128 l 1,224,-1
384 128 m 1,228,-1
 512 128 l 1,229,-1
 512 0 l 1,230,-1
 384 0 l 1,231,-1
 384 128 l 1,228,-1
512 128 m 1,232,-1
 640 128 l 1,233,-1
 640 0 l 1,234,-1
 512 0 l 1,235,-1
 512 128 l 1,232,-1
640 128 m 1,236,-1
 768 128 l 1,237,-1
 768 0 l 1,238,-1
 640 0 l 1,239,-1
 640 128 l 1,236,-1
768 128 m 1,240,-1
 896 128 l 1,241,-1
 896 0 l 1,242,-1
 768 0 l 1,243,-1
 768 128 l 1,240,-1
EndSplineSet
EndChar

StartChar: H
Encoding: 72 72 37
Width: 1280
GlyphClass: 1
Flags: W
LayerCount: 2
Fore
SplineSet
0 1792 m 1,0,-1
 128 1792 l 1,1,-1
 128 1664 l 1,2,-1
 0 1664 l 1,3,-1
 0 1792 l 1,0,-1
128 1792 m 1,4,-1
 256 1792 l 1,5,-1
 256 1664 l 1,6,-1
 128 1664 l 1,7,-1
 128 1792 l 1,4,-1
768 1792 m 1,8,-1
 896 1792 l 1,9,-1
 896 1664 l 1,10,-1
 768 1664 l 1,11,-1
 768 1792 l 1,8,-1
896 1792 m 1,12,-1
 1024 1792 l 1,13,-1
 1024 1664 l 1,14,-1
 896 1664 l 1,15,-1
 896 1792 l 1,12,-1
0 1664 m 1,16,-1
 128 1664 l 1,17,-1
 128 1536 l 1,18,-1
 0 1536 l 1,19,-1
 0 1664 l 1,16,-1
128 1664 m 1,20,-1
 256 1664 l 1,21,-1
 256 1536 l 1,22,-1
 128 1536 l 1,23,-1
 128 1664 l 1,20,-1
768 1664 m 1,24,-1
 896 1664 l 1,25,-1
 896 1536 l 1,26,-1
 768 1536 l 1,27,-1
 768 1664 l 1,24,-1
896 1664 m 1,28,-1
 1024 1664 l 1,29,-1
 1024 1536 l 1,30,-1
 896 1536 l 1,31,-1
 896 1664 l 1,28,-1
0 1536 m 1,32,-1
 128 1536 l 1,33,-1
 128 1408 l 1,34,-1
 0 1408 l 1,35,-1
 0 1536 l 1,32,-1
128 1536 m 1,36,-1
 256 1536 l 1,37,-1
 256 1408 l 1,38,-1
 128 1408 l 1,39,-1
 128 1536 l 1,36,-1
768 1536 m 1,40,-1
 896 1536 l 1,41,-1
 896 1408 l 1,42,-1
 768 1408 l 1,43,-1
 768 1536 l 1,40,-1
896 1536 m 1,44,-1
 1024 1536 l 1,45,-1
 1024 1408 l 1,46,-1
 896 1408 l 1,47,-1
 896 1536 l 1,44,-1
0 1408 m 1,48,-1
 128 1408 l 1,49,-1
 128 1280 l 1,50,-1
 0 1280 l 1,51,-1
 0 1408 l 1,48,-1
128 1408 m 1,52,-1
 256 1408 l 1,53,-1
 256 1280 l 1,54,-1
 128 1280 l 1,55,-1
 128 1408 l 1,52,-1
768 1408 m 1,56,-1
 896 1408 l 1,57,-1
 896 1280 l 1,58,-1
 768 1280 l 1,59,-1
 768 1408 l 1,56,-1
896 1408 m 1,60,-1
 1024 1408 l 1,61,-1
 1024 1280 l 1,62,-1
 896 1280 l 1,63,-1
 896 1408 l 1,60,-1
0 1280 m 1,64,-1
 128 1280 l 1,65,-1
 128 1152 l 1,66,-1
 0 1152 l 1,67,-1
 0 1280 l 1,64,-1
128 1280 m 1,68,-1
 256 1280 l 1,69,-1
 256 1152 l 1,70,-1
 128 1152 l 1,71,-1
 128 1280 l 1,68,-1
768 1280 m 1,72,-1
 896 1280 l 1,73,-1
 896 1152 l 1,74,-1
 768 1152 l 1,75,-1
 768 1280 l 1,72,-1
896 1280 m 1,76,-1
 1024 1280 l 1,77,-1
 1024 1152 l 1,78,-1
 896 1152 l 1,79,-1
 896 1280 l 1,76,-1
0 1152 m 1,80,-1
 128 1152 l 1,81,-1
 128 1024 l 1,82,-1
 0 1024 l 1,83,-1
 0 1152 l 1,80,-1
128 1152 m 1,84,-1
 256 1152 l 1,85,-1
 256 1024 l 1,86,-1
 128 1024 l 1,87,-1
 128 1152 l 1,84,-1
256 1152 m 1,88,-1
 384 1152 l 1,89,-1
 384 1024 l 1,90,-1
 256 1024 l 1,91,-1
 256 1152 l 1,88,-1
384 1152 m 1,92,-1
 512 1152 l 1,93,-1
 512 1024 l 1,94,-1
 384 1024 l 1,95,-1
 384 1152 l 1,92,-1
512 1152 m 1,96,-1
 640 1152 l 1,97,-1
 640 1024 l 1,98,-1
 512 1024 l 1,99,-1
 512 1152 l 1,96,-1
640 1152 m 1,100,-1
 768 1152 l 1,101,-1
 768 1024 l 1,102,-1
 640 1024 l 1,103,-1
 640 1152 l 1,100,-1
768 1152 m 1,104,-1
 896 1152 l 1,105,-1
 896 1024 l 1,106,-1
 768 1024 l 1,107,-1
 768 1152 l 1,104,-1
896 1152 m 1,108,-1
 1024 1152 l 1,109,-1
 1024 1024 l 1,110,-1
 896 1024 l 1,111,-1
 896 1152 l 1,108,-1
0 1024 m 1,112,-1
 128 1024 l 1,113,-1
 128 896 l 1,114,-1
 0 896 l 1,115,-1
 0 1024 l 1,112,-1
128 1024 m 1,116,-1
 256 1024 l 1,117,-1
 256 896 l 1,118,-1
 128 896 l 1,119,-1
 128 1024 l 1,116,-1
256 1024 m 1,120,-1
 384 1024 l 1,121,-1
 384 896 l 1,122,-1
 256 896 l 1,123,-1
 256 1024 l 1,120,-1
384 1024 m 1,124,-1
 512 1024 l 1,125,-1
 512 896 l 1,126,-1
 384 896 l 1,127,-1
 384 1024 l 1,124,-1
512 1024 m 1,128,-1
 640 1024 l 1,129,-1
 640 896 l 1,130,-1
 512 896 l 1,131,-1
 512 1024 l 1,128,-1
640 1024 m 1,132,-1
 768 1024 l 1,133,-1
 768 896 l 1,134,-1
 640 896 l 1,135,-1
 640 1024 l 1,132,-1
768 1024 m 1,136,-1
 896 1024 l 1,137,-1
 896 896 l 1,138,-1
 768 896 l 1,139,-1
 768 1024 l 1,136,-1
896 1024 m 1,140,-1
 1024 1024 l 1,141,-1
 1024 896 l 1,142,-1
 896 896 l 1,143,-1
 896 1024 l 1,140,-1
0 896 m 1,144,-1
 128 896 l 1,145,-1
 128 768 l 1,146,-1
 0 768 l 1,147,-1
 0 896 l 1,144,-1
128 896 m 1,148,-1
 256 896 l 1,149,-1
 256 768 l 1,150,-1
 128 768 l 1,151,-1
 128 896 l 1,148,-1
768 896 m 1,152,-1
 896 896 l 1,153,-1
 896 768 l 1,154,-1
 768 768 l 1,155,-1
 768 896 l 1,152,-1
896 896 m 1,156,-1
 1024 896 l 1,157,-1
 1024 768 l 1,158,-1
 896 768 l 1,159,-1
 896 896 l 1,156,-1
0 768 m 1,160,-1
 128 768 l 1,161,-1
 128 640 l 1,162,-1
 0 640 l 1,163,-1
 0 768 l 1,160,-1
128 768 m 1,164,-1
 256 768 l 1,165,-1
 256 640 l 1,166,-1
 128 640 l 1,167,-1
 128 768 l 1,164,-1
768 768 m 1,168,-1
 896 768 l 1,169,-1
 896 640 l 1,170,-1
 768 640 l 1,171,-1
 768 768 l 1,168,-1
896 768 m 1,172,-1
 1024 768 l 1,173,-1
 1024 640 l 1,174,-1
 896 640 l 1,175,-1
 896 768 l 1,172,-1
0 640 m 1,176,-1
 128 640 l 1,177,-1
 128 512 l 1,178,-1
 0 512 l 1,179,-1
 0 640 l 1,176,-1
128 640 m 1,180,-1
 256 640 l 1,181,-1
 256 512 l 1,182,-1
 128 512 l 1,183,-1
 128 640 l 1,180,-1
768 640 m 1,184,-1
 896 640 l 1,185,-1
 896 512 l 1,186,-1
 768 512 l 1,187,-1
 768 640 l 1,184,-1
896 640 m 1,188,-1
 1024 640 l 1,189,-1
 1024 512 l 1,190,-1
 896 512 l 1,191,-1
 896 640 l 1,188,-1
0 512 m 1,192,-1
 128 512 l 1,193,-1
 128 384 l 1,194,-1
 0 384 l 1,195,-1
 0 512 l 1,192,-1
128 512 m 1,196,-1
 256 512 l 1,197,-1
 256 384 l 1,198,-1
 128 384 l 1,199,-1
 128 512 l 1,196,-1
768 512 m 1,200,-1
 896 512 l 1,201,-1
 896 384 l 1,202,-1
 768 384 l 1,203,-1
 768 512 l 1,200,-1
896 512 m 1,204,-1
 1024 512 l 1,205,-1
 1024 384 l 1,206,-1
 896 384 l 1,207,-1
 896 512 l 1,204,-1
0 384 m 1,208,-1
 128 384 l 1,209,-1
 128 256 l 1,210,-1
 0 256 l 1,211,-1
 0 384 l 1,208,-1
128 384 m 1,212,-1
 256 384 l 1,213,-1
 256 256 l 1,214,-1
 128 256 l 1,215,-1
 128 384 l 1,212,-1
768 384 m 1,216,-1
 896 384 l 1,217,-1
 896 256 l 1,218,-1
 768 256 l 1,219,-1
 768 384 l 1,216,-1
896 384 m 1,220,-1
 1024 384 l 1,221,-1
 1024 256 l 1,222,-1
 896 256 l 1,223,-1
 896 384 l 1,220,-1
0 256 m 1,224,-1
 128 256 l 1,225,-1
 128 128 l 1,226,-1
 0 128 l 1,227,-1
 0 256 l 1,224,-1
128 256 m 1,228,-1
 256 256 l 1,229,-1
 256 128 l 1,230,-1
 128 128 l 1,231,-1
 128 256 l 1,228,-1
768 256 m 1,232,-1
 896 256 l 1,233,-1
 896 128 l 1,234,-1
 768 128 l 1,235,-1
 768 256 l 1,232,-1
896 256 m 1,236,-1
 1024 256 l 1,237,-1
 1024 128 l 1,238,-1
 896 128 l 1,239,-1
 896 256 l 1,236,-1
0 128 m 1,240,-1
 128 128 l 1,241,-1
 128 0 l 1,242,-1
 0 0 l 1,243,-1
 0 128 l 1,240,-1
128 128 m 1,244,-1
 256 128 l 1,245,-1
 256 0 l 1,246,-1
 128 0 l 1,247,-1
 128 128 l 1,244,-1
768 128 m 1,248,-1
 896 128 l 1,249,-1
 896 0 l 1,250,-1
 768 0 l 1,251,-1
 768 128 l 1,248,-1
896 128 m 1,252,-1
 1024 128 l 1,253,-1
 1024 0 l 1,254,-1
 896 0 l 1,255,-1
 896 128 l 1,252,-1
EndSplineSet
EndChar

StartChar: I
Encoding: 73 73 38
Width: 1280
GlyphClass: 1
Flags: W
LayerCount: 2
Fore
SplineSet
0 1792 m 1,0,-1
 128 1792 l 1,1,-1
 128 1664 l 1,2,-1
 0 1664 l 1,3,-1
 0 1792 l 1,0,-1
128 1792 m 1,4,-1
 256 1792 l 1,5,-1
 256 1664 l 1,6,-1
 128 1664 l 1,7,-1
 128 1792 l 1,4,-1
256 1792 m 1,8,-1
 384 1792 l 1,9,-1
 384 1664 l 1,10,-1
 256 1664 l 1,11,-1
 256 1792 l 1,8,-1
384 1792 m 1,12,-1
 512 1792 l 1,13,-1
 512 1664 l 1,14,-1
 384 1664 l 1,15,-1
 384 1792 l 1,12,-1
512 1792 m 1,16,-1
 640 1792 l 1,17,-1
 640 1664 l 1,18,-1
 512 1664 l 1,19,-1
 512 1792 l 1,16,-1
640 1792 m 1,20,-1
 768 1792 l 1,21,-1
 768 1664 l 1,22,-1
 640 1664 l 1,23,-1
 640 1792 l 1,20,-1
768 1792 m 1,24,-1
 896 1792 l 1,25,-1
 896 1664 l 1,26,-1
 768 1664 l 1,27,-1
 768 1792 l 1,24,-1
896 1792 m 1,28,-1
 1024 1792 l 1,29,-1
 1024 1664 l 1,30,-1
 896 1664 l 1,31,-1
 896 1792 l 1,28,-1
0 1664 m 1,32,-1
 128 1664 l 1,33,-1
 128 1536 l 1,34,-1
 0 1536 l 1,35,-1
 0 1664 l 1,32,-1
128 1664 m 1,36,-1
 256 1664 l 1,37,-1
 256 1536 l 1,38,-1
 128 1536 l 1,39,-1
 128 1664 l 1,36,-1
256 1664 m 1,40,-1
 384 1664 l 1,41,-1
 384 1536 l 1,42,-1
 256 1536 l 1,43,-1
 256 1664 l 1,40,-1
384 1664 m 1,44,-1
 512 1664 l 1,45,-1
 512 1536 l 1,46,-1
 384 1536 l 1,47,-1
 384 1664 l 1,44,-1
512 1664 m 1,48,-1
 640 1664 l 1,49,-1
 640 1536 l 1,50,-1
 512 1536 l 1,51,-1
 512 1664 l 1,48,-1
640 1664 m 1,52,-1
 768 1664 l 1,53,-1
 768 1536 l 1,54,-1
 640 1536 l 1,55,-1
 640 1664 l 1,52,-1
768 1664 m 1,56,-1
 896 1664 l 1,57,-1
 896 1536 l 1,58,-1
 768 1536 l 1,59,-1
 768 1664 l 1,56,-1
896 1664 m 1,60,-1
 1024 1664 l 1,61,-1
 1024 1536 l 1,62,-1
 896 1536 l 1,63,-1
 896 1664 l 1,60,-1
384 1536 m 1,64,-1
 512 1536 l 1,65,-1
 512 1408 l 1,66,-1
 384 1408 l 1,67,-1
 384 1536 l 1,64,-1
512 1536 m 1,68,-1
 640 1536 l 1,69,-1
 640 1408 l 1,70,-1
 512 1408 l 1,71,-1
 512 1536 l 1,68,-1
384 1408 m 1,72,-1
 512 1408 l 1,73,-1
 512 1280 l 1,74,-1
 384 1280 l 1,75,-1
 384 1408 l 1,72,-1
512 1408 m 1,76,-1
 640 1408 l 1,77,-1
 640 1280 l 1,78,-1
 512 1280 l 1,79,-1
 512 1408 l 1,76,-1
384 1280 m 1,80,-1
 512 1280 l 1,81,-1
 512 1152 l 1,82,-1
 384 1152 l 1,83,-1
 384 1280 l 1,80,-1
512 1280 m 1,84,-1
 640 1280 l 1,85,-1
 640 1152 l 1,86,-1
 512 1152 l 1,87,-1
 512 1280 l 1,84,-1
384 1152 m 1,88,-1
 512 1152 l 1,89,-1
 512 1024 l 1,90,-1
 384 1024 l 1,91,-1
 384 1152 l 1,88,-1
512 1152 m 1,92,-1
 640 1152 l 1,93,-1
 640 1024 l 1,94,-1
 512 1024 l 1,95,-1
 512 1152 l 1,92,-1
384 1024 m 1,96,-1
 512 1024 l 1,97,-1
 512 896 l 1,98,-1
 384 896 l 1,99,-1
 384 1024 l 1,96,-1
512 1024 m 1,100,-1
 640 1024 l 1,101,-1
 640 896 l 1,102,-1
 512 896 l 1,103,-1
 512 1024 l 1,100,-1
384 896 m 1,104,-1
 512 896 l 1,105,-1
 512 768 l 1,106,-1
 384 768 l 1,107,-1
 384 896 l 1,104,-1
512 896 m 1,108,-1
 640 896 l 1,109,-1
 640 768 l 1,110,-1
 512 768 l 1,111,-1
 512 896 l 1,108,-1
384 768 m 1,112,-1
 512 768 l 1,113,-1
 512 640 l 1,114,-1
 384 640 l 1,115,-1
 384 768 l 1,112,-1
512 768 m 1,116,-1
 640 768 l 1,117,-1
 640 640 l 1,118,-1
 512 640 l 1,119,-1
 512 768 l 1,116,-1
384 640 m 1,120,-1
 512 640 l 1,121,-1
 512 512 l 1,122,-1
 384 512 l 1,123,-1
 384 640 l 1,120,-1
512 640 m 1,124,-1
 640 640 l 1,125,-1
 640 512 l 1,126,-1
 512 512 l 1,127,-1
 512 640 l 1,124,-1
384 512 m 1,128,-1
 512 512 l 1,129,-1
 512 384 l 1,130,-1
 384 384 l 1,131,-1
 384 512 l 1,128,-1
512 512 m 1,132,-1
 640 512 l 1,133,-1
 640 384 l 1,134,-1
 512 384 l 1,135,-1
 512 512 l 1,132,-1
384 384 m 1,136,-1
 512 384 l 1,137,-1
 512 256 l 1,138,-1
 384 256 l 1,139,-1
 384 384 l 1,136,-1
512 384 m 1,140,-1
 640 384 l 1,141,-1
 640 256 l 1,142,-1
 512 256 l 1,143,-1
 512 384 l 1,140,-1
0 256 m 1,144,-1
 128 256 l 1,145,-1
 128 128 l 1,146,-1
 0 128 l 1,147,-1
 0 256 l 1,144,-1
128 256 m 1,148,-1
 256 256 l 1,149,-1
 256 128 l 1,150,-1
 128 128 l 1,151,-1
 128 256 l 1,148,-1
256 256 m 1,152,-1
 384 256 l 1,153,-1
 384 128 l 1,154,-1
 256 128 l 1,155,-1
 256 256 l 1,152,-1
384 256 m 1,156,-1
 512 256 l 1,157,-1
 512 128 l 1,158,-1
 384 128 l 1,159,-1
 384 256 l 1,156,-1
512 256 m 1,160,-1
 640 256 l 1,161,-1
 640 128 l 1,162,-1
 512 128 l 1,163,-1
 512 256 l 1,160,-1
640 256 m 1,164,-1
 768 256 l 1,165,-1
 768 128 l 1,166,-1
 640 128 l 1,167,-1
 640 256 l 1,164,-1
768 256 m 1,168,-1
 896 256 l 1,169,-1
 896 128 l 1,170,-1
 768 128 l 1,171,-1
 768 256 l 1,168,-1
896 256 m 1,172,-1
 1024 256 l 1,173,-1
 1024 128 l 1,174,-1
 896 128 l 1,175,-1
 896 256 l 1,172,-1
0 128 m 1,176,-1
 128 128 l 1,177,-1
 128 0 l 1,178,-1
 0 0 l 1,179,-1
 0 128 l 1,176,-1
128 128 m 1,180,-1
 256 128 l 1,181,-1
 256 0 l 1,182,-1
 128 0 l 1,183,-1
 128 128 l 1,180,-1
256 128 m 1,184,-1
 384 128 l 1,185,-1
 384 0 l 1,186,-1
 256 0 l 1,187,-1
 256 128 l 1,184,-1
384 128 m 1,188,-1
 512 128 l 1,189,-1
 512 0 l 1,190,-1
 384 0 l 1,191,-1
 384 128 l 1,188,-1
512 128 m 1,192,-1
 640 128 l 1,193,-1
 640 0 l 1,194,-1
 512 0 l 1,195,-1
 512 128 l 1,192,-1
640 128 m 1,196,-1
 768 128 l 1,197,-1
 768 0 l 1,198,-1
 640 0 l 1,199,-1
 640 128 l 1,196,-1
768 128 m 1,200,-1
 896 128 l 1,201,-1
 896 0 l 1,202,-1
 768 0 l 1,203,-1
 768 128 l 1,200,-1
896 128 m 1,204,-1
 1024 128 l 1,205,-1
 1024 0 l 1,206,-1
 896 0 l 1,207,-1
 896 128 l 1,204,-1
EndSplineSet
EndChar

StartChar: J
Encoding: 74 74 39
Width: 1280
GlyphClass: 1
Flags: W
LayerCount: 2
Fore
SplineSet
128 1792 m 1,0,-1
 256 1792 l 1,1,-1
 256 1664 l 1,2,-1
 128 1664 l 1,3,-1
 128 1792 l 1,0,-1
256 1792 m 1,4,-1
 384 1792 l 1,5,-1
 384 1664 l 1,6,-1
 256 1664 l 1,7,-1
 256 1792 l 1,4,-1
384 1792 m 1,8,-1
 512 1792 l 1,9,-1
 512 1664 l 1,10,-1
 384 1664 l 1,11,-1
 384 1792 l 1,8,-1
512 1792 m 1,12,-1
 640 1792 l 1,13,-1
 640 1664 l 1,14,-1
 512 1664 l 1,15,-1
 512 1792 l 1,12,-1
640 1792 m 1,16,-1
 768 1792 l 1,17,-1
 768 1664 l 1,18,-1
 640 1664 l 1,19,-1
 640 1792 l 1,16,-1
768 1792 m 1,20,-1
 896 1792 l 1,21,-1
 896 1664 l 1,22,-1
 768 1664 l 1,23,-1
 768 1792 l 1,20,-1
128 1664 m 1,24,-1
 256 1664 l 1,25,-1
 256 1536 l 1,26,-1
 128 1536 l 1,27,-1
 128 1664 l 1,24,-1
256 1664 m 1,28,-1
 384 1664 l 1,29,-1
 384 1536 l 1,30,-1
 256 1536 l 1,31,-1
 256 1664 l 1,28,-1
384 1664 m 1,32,-1
 512 1664 l 1,33,-1
 512 1536 l 1,34,-1
 384 1536 l 1,35,-1
 384 1664 l 1,32,-1
512 1664 m 1,36,-1
 640 1664 l 1,37,-1
 640 1536 l 1,38,-1
 512 1536 l 1,39,-1
 512 1664 l 1,36,-1
640 1664 m 1,40,-1
 768 1664 l 1,41,-1
 768 1536 l 1,42,-1
 640 1536 l 1,43,-1
 640 1664 l 1,40,-1
768 1664 m 1,44,-1
 896 1664 l 1,45,-1
 896 1536 l 1,46,-1
 768 1536 l 1,47,-1
 768 1664 l 1,44,-1
896 1664 m 1,48,-1
 1024 1664 l 1,49,-1
 1024 1536 l 1,50,-1
 896 1536 l 1,51,-1
 896 1664 l 1,48,-1
768 1536 m 1,52,-1
 896 1536 l 1,53,-1
 896 1408 l 1,54,-1
 768 1408 l 1,55,-1
 768 1536 l 1,52,-1
896 1536 m 1,56,-1
 1024 1536 l 1,57,-1
 1024 1408 l 1,58,-1
 896 1408 l 1,59,-1
 896 1536 l 1,56,-1
768 1408 m 1,60,-1
 896 1408 l 1,61,-1
 896 1280 l 1,62,-1
 768 1280 l 1,63,-1
 768 1408 l 1,60,-1
896 1408 m 1,64,-1
 1024 1408 l 1,65,-1
 1024 1280 l 1,66,-1
 896 1280 l 1,67,-1
 896 1408 l 1,64,-1
768 1280 m 1,68,-1
 896 1280 l 1,69,-1
 896 1152 l 1,70,-1
 768 1152 l 1,71,-1
 768 1280 l 1,68,-1
896 1280 m 1,72,-1
 1024 1280 l 1,73,-1
 1024 1152 l 1,74,-1
 896 1152 l 1,75,-1
 896 1280 l 1,72,-1
768 1152 m 1,76,-1
 896 1152 l 1,77,-1
 896 1024 l 1,78,-1
 768 1024 l 1,79,-1
 768 1152 l 1,76,-1
896 1152 m 1,80,-1
 1024 1152 l 1,81,-1
 1024 1024 l 1,82,-1
 896 1024 l 1,83,-1
 896 1152 l 1,80,-1
768 1024 m 1,84,-1
 896 1024 l 1,85,-1
 896 896 l 1,86,-1
 768 896 l 1,87,-1
 768 1024 l 1,84,-1
896 1024 m 1,88,-1
 1024 1024 l 1,89,-1
 1024 896 l 1,90,-1
 896 896 l 1,91,-1
 896 1024 l 1,88,-1
768 896 m 1,92,-1
 896 896 l 1,93,-1
 896 768 l 1,94,-1
 768 768 l 1,95,-1
 768 896 l 1,92,-1
896 896 m 1,96,-1
 1024 896 l 1,97,-1
 1024 768 l 1,98,-1
 896 768 l 1,99,-1
 896 896 l 1,96,-1
768 768 m 1,100,-1
 896 768 l 1,101,-1
 896 640 l 1,102,-1
 768 640 l 1,103,-1
 768 768 l 1,100,-1
896 768 m 1,104,-1
 1024 768 l 1,105,-1
 1024 640 l 1,106,-1
 896 640 l 1,107,-1
 896 768 l 1,104,-1
0 640 m 1,108,-1
 128 640 l 1,109,-1
 128 512 l 1,110,-1
 0 512 l 1,111,-1
 0 640 l 1,108,-1
128 640 m 1,112,-1
 256 640 l 1,113,-1
 256 512 l 1,114,-1
 128 512 l 1,115,-1
 128 640 l 1,112,-1
768 640 m 1,116,-1
 896 640 l 1,117,-1
 896 512 l 1,118,-1
 768 512 l 1,119,-1
 768 640 l 1,116,-1
896 640 m 1,120,-1
 1024 640 l 1,121,-1
 1024 512 l 1,122,-1
 896 512 l 1,123,-1
 896 640 l 1,120,-1
0 512 m 1,124,-1
 128 512 l 1,125,-1
 128 384 l 1,126,-1
 0 384 l 1,127,-1
 0 512 l 1,124,-1
128 512 m 1,128,-1
 256 512 l 1,129,-1
 256 384 l 1,130,-1
 128 384 l 1,131,-1
 128 512 l 1,128,-1
768 512 m 1,132,-1
 896 512 l 1,133,-1
 896 384 l 1,134,-1
 768 384 l 1,135,-1
 768 512 l 1,132,-1
896 512 m 1,136,-1
 1024 512 l 1,137,-1
 1024 384 l 1,138,-1
 896 384 l 1,139,-1
 896 512 l 1,136,-1
0 384 m 1,140,-1
 128 384 l 1,141,-1
 128 256 l 1,142,-1
 0 256 l 1,143,-1
 0 384 l 1,140,-1
128 384 m 1,144,-1
 256 384 l 1,145,-1
 256 256 l 1,146,-1
 128 256 l 1,147,-1
 128 384 l 1,144,-1
256 384 m 1,148,-1
 384 384 l 1,149,-1
 384 256 l 1,150,-1
 256 256 l 1,151,-1
 256 384 l 1,148,-1
640 384 m 1,152,-1
 768 384 l 1,153,-1
 768 256 l 1,154,-1
 640 256 l 1,155,-1
 640 384 l 1,152,-1
768 384 m 1,156,-1
 896 384 l 1,157,-1
 896 256 l 1,158,-1
 768 256 l 1,159,-1
 768 384 l 1,156,-1
896 384 m 1,160,-1
 1024 384 l 1,161,-1
 1024 256 l 1,162,-1
 896 256 l 1,163,-1
 896 384 l 1,160,-1
128 256 m 1,164,-1
 256 256 l 1,165,-1
 256 128 l 1,166,-1
 128 128 l 1,167,-1
 128 256 l 1,164,-1
256 256 m 1,168,-1
 384 256 l 1,169,-1
 384 128 l 1,170,-1
 256 128 l 1,171,-1
 256 256 l 1,168,-1
384 256 m 1,172,-1
 512 256 l 1,173,-1
 512 128 l 1,174,-1
 384 128 l 1,175,-1
 384 256 l 1,172,-1
512 256 m 1,176,-1
 640 256 l 1,177,-1
 640 128 l 1,178,-1
 512 128 l 1,179,-1
 512 256 l 1,176,-1
640 256 m 1,180,-1
 768 256 l 1,181,-1
 768 128 l 1,182,-1
 640 128 l 1,183,-1
 640 256 l 1,180,-1
768 256 m 1,184,-1
 896 256 l 1,185,-1
 896 128 l 1,186,-1
 768 128 l 1,187,-1
 768 256 l 1,184,-1
256 128 m 1,188,-1
 384 128 l 1,189,-1
 384 0 l 1,190,-1
 256 0 l 1,191,-1
 256 128 l 1,188,-1
384 128 m 1,192,-1
 512 128 l 1,193,-1
 512 0 l 1,194,-1
 384 0 l 1,195,-1
 384 128 l 1,192,-1
512 128 m 1,196,-1
 640 128 l 1,197,-1
 640 0 l 1,198,-1
 512 0 l 1,199,-1
 512 128 l 1,196,-1
640 128 m 1,200,-1
 768 128 l 1,201,-1
 768 0 l 1,202,-1
 640 0 l 1,203,-1
 640 128 l 1,200,-1
EndSplineSet
EndChar

StartChar: K
Encoding: 75 75 40
Width: 1152
GlyphClass: 1
Flags: W
LayerCount: 2
Fore
SplineSet
0 1792 m 1,0,-1
 128 1792 l 1,1,-1
 128 1664 l 1,2,-1
 0 1664 l 1,3,-1
 0 1792 l 1,0,-1
128 1792 m 1,4,-1
 256 1792 l 1,5,-1
 256 1664 l 1,6,-1
 128 1664 l 1,7,-1
 128 1792 l 1,4,-1
640 1792 m 1,8,-1
 768 1792 l 1,9,-1
 768 1664 l 1,10,-1
 640 1664 l 1,11,-1
 640 1792 l 1,8,-1
768 1792 m 1,12,-1
 896 1792 l 1,13,-1
 896 1664 l 1,14,-1
 768 1664 l 1,15,-1
 768 1792 l 1,12,-1
0 1664 m 1,16,-1
 128 1664 l 1,17,-1
 128 1536 l 1,18,-1
 0 1536 l 1,19,-1
 0 1664 l 1,16,-1
128 1664 m 1,20,-1
 256 1664 l 1,21,-1
 256 1536 l 1,22,-1
 128 1536 l 1,23,-1
 128 1664 l 1,20,-1
640 1664 m 1,24,-1
 768 1664 l 1,25,-1
 768 1536 l 1,26,-1
 640 1536 l 1,27,-1
 640 1664 l 1,24,-1
768 1664 m 1,28,-1
 896 1664 l 1,29,-1
 896 1536 l 1,30,-1
 768 1536 l 1,31,-1
 768 1664 l 1,28,-1
0 1536 m 1,32,-1
 128 1536 l 1,33,-1
 128 1408 l 1,34,-1
 0 1408 l 1,35,-1
 0 1536 l 1,32,-1
128 1536 m 1,36,-1
 256 1536 l 1,37,-1
 256 1408 l 1,38,-1
 128 1408 l 1,39,-1
 128 1536 l 1,36,-1
640 1536 m 1,40,-1
 768 1536 l 1,41,-1
 768 1408 l 1,42,-1
 640 1408 l 1,43,-1
 640 1536 l 1,40,-1
768 1536 m 1,44,-1
 896 1536 l 1,45,-1
 896 1408 l 1,46,-1
 768 1408 l 1,47,-1
 768 1536 l 1,44,-1
0 1408 m 1,48,-1
 128 1408 l 1,49,-1
 128 1280 l 1,50,-1
 0 1280 l 1,51,-1
 0 1408 l 1,48,-1
128 1408 m 1,52,-1
 256 1408 l 1,53,-1
 256 1280 l 1,54,-1
 128 1280 l 1,55,-1
 128 1408 l 1,52,-1
512 1408 m 1,56,-1
 640 1408 l 1,57,-1
 640 1280 l 1,58,-1
 512 1280 l 1,59,-1
 512 1408 l 1,56,-1
640 1408 m 1,60,-1
 768 1408 l 1,61,-1
 768 1280 l 1,62,-1
 640 1280 l 1,63,-1
 640 1408 l 1,60,-1
768 1408 m 1,64,-1
 896 1408 l 1,65,-1
 896 1280 l 1,66,-1
 768 1280 l 1,67,-1
 768 1408 l 1,64,-1
0 1280 m 1,68,-1
 128 1280 l 1,69,-1
 128 1152 l 1,70,-1
 0 1152 l 1,71,-1
 0 1280 l 1,68,-1
128 1280 m 1,72,-1
 256 1280 l 1,73,-1
 256 1152 l 1,74,-1
 128 1152 l 1,75,-1
 128 1280 l 1,72,-1
256 1280 m 1,76,-1
 384 1280 l 1,77,-1
 384 1152 l 1,78,-1
 256 1152 l 1,79,-1
 256 1280 l 1,76,-1
384 1280 m 1,80,-1
 512 1280 l 1,81,-1
 512 1152 l 1,82,-1
 384 1152 l 1,83,-1
 384 1280 l 1,80,-1
512 1280 m 1,84,-1
 640 1280 l 1,85,-1
 640 1152 l 1,86,-1
 512 1152 l 1,87,-1
 512 1280 l 1,84,-1
640 1280 m 1,88,-1
 768 1280 l 1,89,-1
 768 1152 l 1,90,-1
 640 1152 l 1,91,-1
 640 1280 l 1,88,-1
0 1152 m 1,92,-1
 128 1152 l 1,93,-1
 128 1024 l 1,94,-1
 0 1024 l 1,95,-1
 0 1152 l 1,92,-1
128 1152 m 1,96,-1
 256 1152 l 1,97,-1
 256 1024 l 1,98,-1
 128 1024 l 1,99,-1
 128 1152 l 1,96,-1
256 1152 m 1,100,-1
 384 1152 l 1,101,-1
 384 1024 l 1,102,-1
 256 1024 l 1,103,-1
 256 1152 l 1,100,-1
384 1152 m 1,104,-1
 512 1152 l 1,105,-1
 512 1024 l 1,106,-1
 384 1024 l 1,107,-1
 384 1152 l 1,104,-1
512 1152 m 1,108,-1
 640 1152 l 1,109,-1
 640 1024 l 1,110,-1
 512 1024 l 1,111,-1
 512 1152 l 1,108,-1
0 1024 m 1,112,-1
 128 1024 l 1,113,-1
 128 896 l 1,114,-1
 0 896 l 1,115,-1
 0 1024 l 1,112,-1
128 1024 m 1,116,-1
 256 1024 l 1,117,-1
 256 896 l 1,118,-1
 128 896 l 1,119,-1
 128 1024 l 1,116,-1
256 1024 m 1,120,-1
 384 1024 l 1,121,-1
 384 896 l 1,122,-1
 256 896 l 1,123,-1
 256 1024 l 1,120,-1
384 1024 m 1,124,-1
 512 1024 l 1,125,-1
 512 896 l 1,126,-1
 384 896 l 1,127,-1
 384 1024 l 1,124,-1
512 1024 m 1,128,-1
 640 1024 l 1,129,-1
 640 896 l 1,130,-1
 512 896 l 1,131,-1
 512 1024 l 1,128,-1
640 1024 m 1,132,-1
 768 1024 l 1,133,-1
 768 896 l 1,134,-1
 640 896 l 1,135,-1
 640 1024 l 1,132,-1
0 896 m 1,136,-1
 128 896 l 1,137,-1
 128 768 l 1,138,-1
 0 768 l 1,139,-1
 0 896 l 1,136,-1
128 896 m 1,140,-1
 256 896 l 1,141,-1
 256 768 l 1,142,-1
 128 768 l 1,143,-1
 128 896 l 1,140,-1
512 896 m 1,144,-1
 640 896 l 1,145,-1
 640 768 l 1,146,-1
 512 768 l 1,147,-1
 512 896 l 1,144,-1
640 896 m 1,148,-1
 768 896 l 1,149,-1
 768 768 l 1,150,-1
 640 768 l 1,151,-1
 640 896 l 1,148,-1
768 896 m 1,152,-1
 896 896 l 1,153,-1
 896 768 l 1,154,-1
 768 768 l 1,155,-1
 768 896 l 1,152,-1
0 768 m 1,156,-1
 128 768 l 1,157,-1
 128 640 l 1,158,-1
 0 640 l 1,159,-1
 0 768 l 1,156,-1
128 768 m 1,160,-1
 256 768 l 1,161,-1
 256 640 l 1,162,-1
 128 640 l 1,163,-1
 128 768 l 1,160,-1
640 768 m 1,164,-1
 768 768 l 1,165,-1
 768 640 l 1,166,-1
 640 640 l 1,167,-1
 640 768 l 1,164,-1
768 768 m 1,168,-1
 896 768 l 1,169,-1
 896 640 l 1,170,-1
 768 640 l 1,171,-1
 768 768 l 1,168,-1
0 640 m 1,172,-1
 128 640 l 1,173,-1
 128 512 l 1,174,-1
 0 512 l 1,175,-1
 0 640 l 1,172,-1
128 640 m 1,176,-1
 256 640 l 1,177,-1
 256 512 l 1,178,-1
 128 512 l 1,179,-1
 128 640 l 1,176,-1
640 640 m 1,180,-1
 768 640 l 1,181,-1
 768 512 l 1,182,-1
 640 512 l 1,183,-1
 640 640 l 1,180,-1
768 640 m 1,184,-1
 896 640 l 1,185,-1
 896 512 l 1,186,-1
 768 512 l 1,187,-1
 768 640 l 1,184,-1
0 512 m 1,188,-1
 128 512 l 1,189,-1
 128 384 l 1,190,-1
 0 384 l 1,191,-1
 0 512 l 1,188,-1
128 512 m 1,192,-1
 256 512 l 1,193,-1
 256 384 l 1,194,-1
 128 384 l 1,195,-1
 128 512 l 1,192,-1
640 512 m 1,196,-1
 768 512 l 1,197,-1
 768 384 l 1,198,-1
 640 384 l 1,199,-1
 640 512 l 1,196,-1
768 512 m 1,200,-1
 896 512 l 1,201,-1
 896 384 l 1,202,-1
 768 384 l 1,203,-1
 768 512 l 1,200,-1
0 384 m 1,204,-1
 128 384 l 1,205,-1
 128 256 l 1,206,-1
 0 256 l 1,207,-1
 0 384 l 1,204,-1
128 384 m 1,208,-1
 256 384 l 1,209,-1
 256 256 l 1,210,-1
 128 256 l 1,211,-1
 128 384 l 1,208,-1
640 384 m 1,212,-1
 768 384 l 1,213,-1
 768 256 l 1,214,-1
 640 256 l 1,215,-1
 640 384 l 1,212,-1
768 384 m 1,216,-1
 896 384 l 1,217,-1
 896 256 l 1,218,-1
 768 256 l 1,219,-1
 768 384 l 1,216,-1
0 256 m 1,220,-1
 128 256 l 1,221,-1
 128 128 l 1,222,-1
 0 128 l 1,223,-1
 0 256 l 1,220,-1
128 256 m 1,224,-1
 256 256 l 1,225,-1
 256 128 l 1,226,-1
 128 128 l 1,227,-1
 128 256 l 1,224,-1
640 256 m 1,228,-1
 768 256 l 1,229,-1
 768 128 l 1,230,-1
 640 128 l 1,231,-1
 640 256 l 1,228,-1
768 256 m 1,232,-1
 896 256 l 1,233,-1
 896 128 l 1,234,-1
 768 128 l 1,235,-1
 768 256 l 1,232,-1
0 128 m 1,236,-1
 128 128 l 1,237,-1
 128 0 l 1,238,-1
 0 0 l 1,239,-1
 0 128 l 1,236,-1
128 128 m 1,240,-1
 256 128 l 1,241,-1
 256 0 l 1,242,-1
 128 0 l 1,243,-1
 128 128 l 1,240,-1
640 128 m 1,244,-1
 768 128 l 1,245,-1
 768 0 l 1,246,-1
 640 0 l 1,247,-1
 640 128 l 1,244,-1
768 128 m 1,248,-1
 896 128 l 1,249,-1
 896 0 l 1,250,-1
 768 0 l 1,251,-1
 768 128 l 1,248,-1
EndSplineSet
EndChar

StartChar: L
Encoding: 76 76 41
Width: 1280
GlyphClass: 1
Flags: W
LayerCount: 2
Fore
SplineSet
0 1792 m 1,0,-1
 128 1792 l 1,1,-1
 128 1664 l 1,2,-1
 0 1664 l 1,3,-1
 0 1792 l 1,0,-1
128 1792 m 1,4,-1
 256 1792 l 1,5,-1
 256 1664 l 1,6,-1
 128 1664 l 1,7,-1
 128 1792 l 1,4,-1
0 1664 m 1,8,-1
 128 1664 l 1,9,-1
 128 1536 l 1,10,-1
 0 1536 l 1,11,-1
 0 1664 l 1,8,-1
128 1664 m 1,12,-1
 256 1664 l 1,13,-1
 256 1536 l 1,14,-1
 128 1536 l 1,15,-1
 128 1664 l 1,12,-1
0 1536 m 1,16,-1
 128 1536 l 1,17,-1
 128 1408 l 1,18,-1
 0 1408 l 1,19,-1
 0 1536 l 1,16,-1
128 1536 m 1,20,-1
 256 1536 l 1,21,-1
 256 1408 l 1,22,-1
 128 1408 l 1,23,-1
 128 1536 l 1,20,-1
0 1408 m 1,24,-1
 128 1408 l 1,25,-1
 128 1280 l 1,26,-1
 0 1280 l 1,27,-1
 0 1408 l 1,24,-1
128 1408 m 1,28,-1
 256 1408 l 1,29,-1
 256 1280 l 1,30,-1
 128 1280 l 1,31,-1
 128 1408 l 1,28,-1
0 1280 m 1,32,-1
 128 1280 l 1,33,-1
 128 1152 l 1,34,-1
 0 1152 l 1,35,-1
 0 1280 l 1,32,-1
128 1280 m 1,36,-1
 256 1280 l 1,37,-1
 256 1152 l 1,38,-1
 128 1152 l 1,39,-1
 128 1280 l 1,36,-1
0 1152 m 1,40,-1
 128 1152 l 1,41,-1
 128 1024 l 1,42,-1
 0 1024 l 1,43,-1
 0 1152 l 1,40,-1
128 1152 m 1,44,-1
 256 1152 l 1,45,-1
 256 1024 l 1,46,-1
 128 1024 l 1,47,-1
 128 1152 l 1,44,-1
0 1024 m 1,48,-1
 128 1024 l 1,49,-1
 128 896 l 1,50,-1
 0 896 l 1,51,-1
 0 1024 l 1,48,-1
128 1024 m 1,52,-1
 256 1024 l 1,53,-1
 256 896 l 1,54,-1
 128 896 l 1,55,-1
 128 1024 l 1,52,-1
0 896 m 1,56,-1
 128 896 l 1,57,-1
 128 768 l 1,58,-1
 0 768 l 1,59,-1
 0 896 l 1,56,-1
128 896 m 1,60,-1
 256 896 l 1,61,-1
 256 768 l 1,62,-1
 128 768 l 1,63,-1
 128 896 l 1,60,-1
0 768 m 1,64,-1
 128 768 l 1,65,-1
 128 640 l 1,66,-1
 0 640 l 1,67,-1
 0 768 l 1,64,-1
128 768 m 1,68,-1
 256 768 l 1,69,-1
 256 640 l 1,70,-1
 128 640 l 1,71,-1
 128 768 l 1,68,-1
0 640 m 1,72,-1
 128 640 l 1,73,-1
 128 512 l 1,74,-1
 0 512 l 1,75,-1
 0 640 l 1,72,-1
128 640 m 1,76,-1
 256 640 l 1,77,-1
 256 512 l 1,78,-1
 128 512 l 1,79,-1
 128 640 l 1,76,-1
0 512 m 1,80,-1
 128 512 l 1,81,-1
 128 384 l 1,82,-1
 0 384 l 1,83,-1
 0 512 l 1,80,-1
128 512 m 1,84,-1
 256 512 l 1,85,-1
 256 384 l 1,86,-1
 128 384 l 1,87,-1
 128 512 l 1,84,-1
0 384 m 1,88,-1
 128 384 l 1,89,-1
 128 256 l 1,90,-1
 0 256 l 1,91,-1
 0 384 l 1,88,-1
128 384 m 1,92,-1
 256 384 l 1,93,-1
 256 256 l 1,94,-1
 128 256 l 1,95,-1
 128 384 l 1,92,-1
0 256 m 1,96,-1
 128 256 l 1,97,-1
 128 128 l 1,98,-1
 0 128 l 1,99,-1
 0 256 l 1,96,-1
128 256 m 1,100,-1
 256 256 l 1,101,-1
 256 128 l 1,102,-1
 128 128 l 1,103,-1
 128 256 l 1,100,-1
256 256 m 1,104,-1
 384 256 l 1,105,-1
 384 128 l 1,106,-1
 256 128 l 1,107,-1
 256 256 l 1,104,-1
384 256 m 1,108,-1
 512 256 l 1,109,-1
 512 128 l 1,110,-1
 384 128 l 1,111,-1
 384 256 l 1,108,-1
512 256 m 1,112,-1
 640 256 l 1,113,-1
 640 128 l 1,114,-1
 512 128 l 1,115,-1
 512 256 l 1,112,-1
640 256 m 1,116,-1
 768 256 l 1,117,-1
 768 128 l 1,118,-1
 640 128 l 1,119,-1
 640 256 l 1,116,-1
768 256 m 1,120,-1
 896 256 l 1,121,-1
 896 128 l 1,122,-1
 768 128 l 1,123,-1
 768 256 l 1,120,-1
896 256 m 1,124,-1
 1024 256 l 1,125,-1
 1024 128 l 1,126,-1
 896 128 l 1,127,-1
 896 256 l 1,124,-1
0 128 m 1,128,-1
 128 128 l 1,129,-1
 128 0 l 1,130,-1
 0 0 l 1,131,-1
 0 128 l 1,128,-1
128 128 m 1,132,-1
 256 128 l 1,133,-1
 256 0 l 1,134,-1
 128 0 l 1,135,-1
 128 128 l 1,132,-1
256 128 m 1,136,-1
 384 128 l 1,137,-1
 384 0 l 1,138,-1
 256 0 l 1,139,-1
 256 128 l 1,136,-1
384 128 m 1,140,-1
 512 128 l 1,141,-1
 512 0 l 1,142,-1
 384 0 l 1,143,-1
 384 128 l 1,140,-1
512 128 m 1,144,-1
 640 128 l 1,145,-1
 640 0 l 1,146,-1
 512 0 l 1,147,-1
 512 128 l 1,144,-1
640 128 m 1,148,-1
 768 128 l 1,149,-1
 768 0 l 1,150,-1
 640 0 l 1,151,-1
 640 128 l 1,148,-1
768 128 m 1,152,-1
 896 128 l 1,153,-1
 896 0 l 1,154,-1
 768 0 l 1,155,-1
 768 128 l 1,152,-1
896 128 m 1,156,-1
 1024 128 l 1,157,-1
 1024 0 l 1,158,-1
 896 0 l 1,159,-1
 896 128 l 1,156,-1
EndSplineSet
EndChar

StartChar: M
Encoding: 77 77 42
Width: 1280
GlyphClass: 1
Flags: W
LayerCount: 2
Fore
SplineSet
0 1792 m 1,0,-1
 128 1792 l 1,1,-1
 128 1664 l 1,2,-1
 0 1664 l 1,3,-1
 0 1792 l 1,0,-1
128 1792 m 1,4,-1
 256 1792 l 1,5,-1
 256 1664 l 1,6,-1
 128 1664 l 1,7,-1
 128 1792 l 1,4,-1
768 1792 m 1,8,-1
 896 1792 l 1,9,-1
 896 1664 l 1,10,-1
 768 1664 l 1,11,-1
 768 1792 l 1,8,-1
896 1792 m 1,12,-1
 1024 1792 l 1,13,-1
 1024 1664 l 1,14,-1
 896 1664 l 1,15,-1
 896 1792 l 1,12,-1
0 1664 m 1,16,-1
 128 1664 l 1,17,-1
 128 1536 l 1,18,-1
 0 1536 l 1,19,-1
 0 1664 l 1,16,-1
128 1664 m 1,20,-1
 256 1664 l 1,21,-1
 256 1536 l 1,22,-1
 128 1536 l 1,23,-1
 128 1664 l 1,20,-1
768 1664 m 1,24,-1
 896 1664 l 1,25,-1
 896 1536 l 1,26,-1
 768 1536 l 1,27,-1
 768 1664 l 1,24,-1
896 1664 m 1,28,-1
 1024 1664 l 1,29,-1
 1024 1536 l 1,30,-1
 896 1536 l 1,31,-1
 896 1664 l 1,28,-1
0 1536 m 1,32,-1
 128 1536 l 1,33,-1
 128 1408 l 1,34,-1
 0 1408 l 1,35,-1
 0 1536 l 1,32,-1
128 1536 m 1,36,-1
 256 1536 l 1,37,-1
 256 1408 l 1,38,-1
 128 1408 l 1,39,-1
 128 1536 l 1,36,-1
256 1536 m 1,40,-1
 384 1536 l 1,41,-1
 384 1408 l 1,42,-1
 256 1408 l 1,43,-1
 256 1536 l 1,40,-1
640 1536 m 1,44,-1
 768 1536 l 1,45,-1
 768 1408 l 1,46,-1
 640 1408 l 1,47,-1
 640 1536 l 1,44,-1
768 1536 m 1,48,-1
 896 1536 l 1,49,-1
 896 1408 l 1,50,-1
 768 1408 l 1,51,-1
 768 1536 l 1,48,-1
896 1536 m 1,52,-1
 1024 1536 l 1,53,-1
 1024 1408 l 1,54,-1
 896 1408 l 1,55,-1
 896 1536 l 1,52,-1
0 1408 m 1,56,-1
 128 1408 l 1,57,-1
 128 1280 l 1,58,-1
 0 1280 l 1,59,-1
 0 1408 l 1,56,-1
128 1408 m 1,60,-1
 256 1408 l 1,61,-1
 256 1280 l 1,62,-1
 128 1280 l 1,63,-1
 128 1408 l 1,60,-1
256 1408 m 1,64,-1
 384 1408 l 1,65,-1
 384 1280 l 1,66,-1
 256 1280 l 1,67,-1
 256 1408 l 1,64,-1
384 1408 m 1,68,-1
 512 1408 l 1,69,-1
 512 1280 l 1,70,-1
 384 1280 l 1,71,-1
 384 1408 l 1,68,-1
512 1408 m 1,72,-1
 640 1408 l 1,73,-1
 640 1280 l 1,74,-1
 512 1280 l 1,75,-1
 512 1408 l 1,72,-1
640 1408 m 1,76,-1
 768 1408 l 1,77,-1
 768 1280 l 1,78,-1
 640 1280 l 1,79,-1
 640 1408 l 1,76,-1
768 1408 m 1,80,-1
 896 1408 l 1,81,-1
 896 1280 l 1,82,-1
 768 1280 l 1,83,-1
 768 1408 l 1,80,-1
896 1408 m 1,84,-1
 1024 1408 l 1,85,-1
 1024 1280 l 1,86,-1
 896 1280 l 1,87,-1
 896 1408 l 1,84,-1
0 1280 m 1,88,-1
 128 1280 l 1,89,-1
 128 1152 l 1,90,-1
 0 1152 l 1,91,-1
 0 1280 l 1,88,-1
128 1280 m 1,92,-1
 256 1280 l 1,93,-1
 256 1152 l 1,94,-1
 128 1152 l 1,95,-1
 128 1280 l 1,92,-1
256 1280 m 1,96,-1
 384 1280 l 1,97,-1
 384 1152 l 1,98,-1
 256 1152 l 1,99,-1
 256 1280 l 1,96,-1
384 1280 m 1,100,-1
 512 1280 l 1,101,-1
 512 1152 l 1,102,-1
 384 1152 l 1,103,-1
 384 1280 l 1,100,-1
512 1280 m 1,104,-1
 640 1280 l 1,105,-1
 640 1152 l 1,106,-1
 512 1152 l 1,107,-1
 512 1280 l 1,104,-1
640 1280 m 1,108,-1
 768 1280 l 1,109,-1
 768 1152 l 1,110,-1
 640 1152 l 1,111,-1
 640 1280 l 1,108,-1
768 1280 m 1,112,-1
 896 1280 l 1,113,-1
 896 1152 l 1,114,-1
 768 1152 l 1,115,-1
 768 1280 l 1,112,-1
896 1280 m 1,116,-1
 1024 1280 l 1,117,-1
 1024 1152 l 1,118,-1
 896 1152 l 1,119,-1
 896 1280 l 1,116,-1
0 1152 m 1,120,-1
 128 1152 l 1,121,-1
 128 1024 l 1,122,-1
 0 1024 l 1,123,-1
 0 1152 l 1,120,-1
128 1152 m 1,124,-1
 256 1152 l 1,125,-1
 256 1024 l 1,126,-1
 128 1024 l 1,127,-1
 128 1152 l 1,124,-1
384 1152 m 1,128,-1
 512 1152 l 1,129,-1
 512 1024 l 1,130,-1
 384 1024 l 1,131,-1
 384 1152 l 1,128,-1
512 1152 m 1,132,-1
 640 1152 l 1,133,-1
 640 1024 l 1,134,-1
 512 1024 l 1,135,-1
 512 1152 l 1,132,-1
768 1152 m 1,136,-1
 896 1152 l 1,137,-1
 896 1024 l 1,138,-1
 768 1024 l 1,139,-1
 768 1152 l 1,136,-1
896 1152 m 1,140,-1
 1024 1152 l 1,141,-1
 1024 1024 l 1,142,-1
 896 1024 l 1,143,-1
 896 1152 l 1,140,-1
0 1024 m 1,144,-1
 128 1024 l 1,145,-1
 128 896 l 1,146,-1
 0 896 l 1,147,-1
 0 1024 l 1,144,-1
128 1024 m 1,148,-1
 256 1024 l 1,149,-1
 256 896 l 1,150,-1
 128 896 l 1,151,-1
 128 1024 l 1,148,-1
768 1024 m 1,152,-1
 896 1024 l 1,153,-1
 896 896 l 1,154,-1
 768 896 l 1,155,-1
 768 1024 l 1,152,-1
896 1024 m 1,156,-1
 1024 1024 l 1,157,-1
 1024 896 l 1,158,-1
 896 896 l 1,159,-1
 896 1024 l 1,156,-1
0 896 m 1,160,-1
 128 896 l 1,161,-1
 128 768 l 1,162,-1
 0 768 l 1,163,-1
 0 896 l 1,160,-1
128 896 m 1,164,-1
 256 896 l 1,165,-1
 256 768 l 1,166,-1
 128 768 l 1,167,-1
 128 896 l 1,164,-1
768 896 m 1,168,-1
 896 896 l 1,169,-1
 896 768 l 1,170,-1
 768 768 l 1,171,-1
 768 896 l 1,168,-1
896 896 m 1,172,-1
 1024 896 l 1,173,-1
 1024 768 l 1,174,-1
 896 768 l 1,175,-1
 896 896 l 1,172,-1
0 768 m 1,176,-1
 128 768 l 1,177,-1
 128 640 l 1,178,-1
 0 640 l 1,179,-1
 0 768 l 1,176,-1
128 768 m 1,180,-1
 256 768 l 1,181,-1
 256 640 l 1,182,-1
 128 640 l 1,183,-1
 128 768 l 1,180,-1
768 768 m 1,184,-1
 896 768 l 1,185,-1
 896 640 l 1,186,-1
 768 640 l 1,187,-1
 768 768 l 1,184,-1
896 768 m 1,188,-1
 1024 768 l 1,189,-1
 1024 640 l 1,190,-1
 896 640 l 1,191,-1
 896 768 l 1,188,-1
0 640 m 1,192,-1
 128 640 l 1,193,-1
 128 512 l 1,194,-1
 0 512 l 1,195,-1
 0 640 l 1,192,-1
128 640 m 1,196,-1
 256 640 l 1,197,-1
 256 512 l 1,198,-1
 128 512 l 1,199,-1
 128 640 l 1,196,-1
768 640 m 1,200,-1
 896 640 l 1,201,-1
 896 512 l 1,202,-1
 768 512 l 1,203,-1
 768 640 l 1,200,-1
896 640 m 1,204,-1
 1024 640 l 1,205,-1
 1024 512 l 1,206,-1
 896 512 l 1,207,-1
 896 640 l 1,204,-1
0 512 m 1,208,-1
 128 512 l 1,209,-1
 128 384 l 1,210,-1
 0 384 l 1,211,-1
 0 512 l 1,208,-1
128 512 m 1,212,-1
 256 512 l 1,213,-1
 256 384 l 1,214,-1
 128 384 l 1,215,-1
 128 512 l 1,212,-1
768 512 m 1,216,-1
 896 512 l 1,217,-1
 896 384 l 1,218,-1
 768 384 l 1,219,-1
 768 512 l 1,216,-1
896 512 m 1,220,-1
 1024 512 l 1,221,-1
 1024 384 l 1,222,-1
 896 384 l 1,223,-1
 896 512 l 1,220,-1
0 384 m 1,224,-1
 128 384 l 1,225,-1
 128 256 l 1,226,-1
 0 256 l 1,227,-1
 0 384 l 1,224,-1
128 384 m 1,228,-1
 256 384 l 1,229,-1
 256 256 l 1,230,-1
 128 256 l 1,231,-1
 128 384 l 1,228,-1
768 384 m 1,232,-1
 896 384 l 1,233,-1
 896 256 l 1,234,-1
 768 256 l 1,235,-1
 768 384 l 1,232,-1
896 384 m 1,236,-1
 1024 384 l 1,237,-1
 1024 256 l 1,238,-1
 896 256 l 1,239,-1
 896 384 l 1,236,-1
0 256 m 1,240,-1
 128 256 l 1,241,-1
 128 128 l 1,242,-1
 0 128 l 1,243,-1
 0 256 l 1,240,-1
128 256 m 1,244,-1
 256 256 l 1,245,-1
 256 128 l 1,246,-1
 128 128 l 1,247,-1
 128 256 l 1,244,-1
768 256 m 1,248,-1
 896 256 l 1,249,-1
 896 128 l 1,250,-1
 768 128 l 1,251,-1
 768 256 l 1,248,-1
896 256 m 1,252,-1
 1024 256 l 1,253,-1
 1024 128 l 1,254,-1
 896 128 l 1,255,-1
 896 256 l 1,252,-1
0 128 m 1,256,-1
 128 128 l 1,257,-1
 128 0 l 1,258,-1
 0 0 l 1,259,-1
 0 128 l 1,256,-1
128 128 m 1,260,-1
 256 128 l 1,261,-1
 256 0 l 1,262,-1
 128 0 l 1,263,-1
 128 128 l 1,260,-1
768 128 m 1,264,-1
 896 128 l 1,265,-1
 896 0 l 1,266,-1
 768 0 l 1,267,-1
 768 128 l 1,264,-1
896 128 m 1,268,-1
 1024 128 l 1,269,-1
 1024 0 l 1,270,-1
 896 0 l 1,271,-1
 896 128 l 1,268,-1
EndSplineSet
EndChar

StartChar: N
Encoding: 78 78 43
Width: 1280
GlyphClass: 1
Flags: W
LayerCount: 2
Fore
SplineSet
0 1792 m 1,0,-1
 128 1792 l 1,1,-1
 128 1664 l 1,2,-1
 0 1664 l 1,3,-1
 0 1792 l 1,0,-1
128 1792 m 1,4,-1
 256 1792 l 1,5,-1
 256 1664 l 1,6,-1
 128 1664 l 1,7,-1
 128 1792 l 1,4,-1
768 1792 m 1,8,-1
 896 1792 l 1,9,-1
 896 1664 l 1,10,-1
 768 1664 l 1,11,-1
 768 1792 l 1,8,-1
896 1792 m 1,12,-1
 1024 1792 l 1,13,-1
 1024 1664 l 1,14,-1
 896 1664 l 1,15,-1
 896 1792 l 1,12,-1
0 1664 m 1,16,-1
 128 1664 l 1,17,-1
 128 1536 l 1,18,-1
 0 1536 l 1,19,-1
 0 1664 l 1,16,-1
128 1664 m 1,20,-1
 256 1664 l 1,21,-1
 256 1536 l 1,22,-1
 128 1536 l 1,23,-1
 128 1664 l 1,20,-1
768 1664 m 1,24,-1
 896 1664 l 1,25,-1
 896 1536 l 1,26,-1
 768 1536 l 1,27,-1
 768 1664 l 1,24,-1
896 1664 m 1,28,-1
 1024 1664 l 1,29,-1
 1024 1536 l 1,30,-1
 896 1536 l 1,31,-1
 896 1664 l 1,28,-1
0 1536 m 1,32,-1
 128 1536 l 1,33,-1
 128 1408 l 1,34,-1
 0 1408 l 1,35,-1
 0 1536 l 1,32,-1
128 1536 m 1,36,-1
 256 1536 l 1,37,-1
 256 1408 l 1,38,-1
 128 1408 l 1,39,-1
 128 1536 l 1,36,-1
768 1536 m 1,40,-1
 896 1536 l 1,41,-1
 896 1408 l 1,42,-1
 768 1408 l 1,43,-1
 768 1536 l 1,40,-1
896 1536 m 1,44,-1
 1024 1536 l 1,45,-1
 1024 1408 l 1,46,-1
 896 1408 l 1,47,-1
 896 1536 l 1,44,-1
0 1408 m 1,48,-1
 128 1408 l 1,49,-1
 128 1280 l 1,50,-1
 0 1280 l 1,51,-1
 0 1408 l 1,48,-1
128 1408 m 1,52,-1
 256 1408 l 1,53,-1
 256 1280 l 1,54,-1
 128 1280 l 1,55,-1
 128 1408 l 1,52,-1
768 1408 m 1,56,-1
 896 1408 l 1,57,-1
 896 1280 l 1,58,-1
 768 1280 l 1,59,-1
 768 1408 l 1,56,-1
896 1408 m 1,60,-1
 1024 1408 l 1,61,-1
 1024 1280 l 1,62,-1
 896 1280 l 1,63,-1
 896 1408 l 1,60,-1
0 1280 m 1,64,-1
 128 1280 l 1,65,-1
 128 1152 l 1,66,-1
 0 1152 l 1,67,-1
 0 1280 l 1,64,-1
128 1280 m 1,68,-1
 256 1280 l 1,69,-1
 256 1152 l 1,70,-1
 128 1152 l 1,71,-1
 128 1280 l 1,68,-1
768 1280 m 1,72,-1
 896 1280 l 1,73,-1
 896 1152 l 1,74,-1
 768 1152 l 1,75,-1
 768 1280 l 1,72,-1
896 1280 m 1,76,-1
 1024 1280 l 1,77,-1
 1024 1152 l 1,78,-1
 896 1152 l 1,79,-1
 896 1280 l 1,76,-1
0 1152 m 1,80,-1
 128 1152 l 1,81,-1
 128 1024 l 1,82,-1
 0 1024 l 1,83,-1
 0 1152 l 1,80,-1
128 1152 m 1,84,-1
 256 1152 l 1,85,-1
 256 1024 l 1,86,-1
 128 1024 l 1,87,-1
 128 1152 l 1,84,-1
256 1152 m 1,88,-1
 384 1152 l 1,89,-1
 384 1024 l 1,90,-1
 256 1024 l 1,91,-1
 256 1152 l 1,88,-1
768 1152 m 1,92,-1
 896 1152 l 1,93,-1
 896 1024 l 1,94,-1
 768 1024 l 1,95,-1
 768 1152 l 1,92,-1
896 1152 m 1,96,-1
 1024 1152 l 1,97,-1
 1024 1024 l 1,98,-1
 896 1024 l 1,99,-1
 896 1152 l 1,96,-1
0 1024 m 1,100,-1
 128 1024 l 1,101,-1
 128 896 l 1,102,-1
 0 896 l 1,103,-1
 0 1024 l 1,100,-1
128 1024 m 1,104,-1
 256 1024 l 1,105,-1
 256 896 l 1,106,-1
 128 896 l 1,107,-1
 128 1024 l 1,104,-1
256 1024 m 1,108,-1
 384 1024 l 1,109,-1
 384 896 l 1,110,-1
 256 896 l 1,111,-1
 256 1024 l 1,108,-1
384 1024 m 1,112,-1
 512 1024 l 1,113,-1
 512 896 l 1,114,-1
 384 896 l 1,115,-1
 384 1024 l 1,112,-1
768 1024 m 1,116,-1
 896 1024 l 1,117,-1
 896 896 l 1,118,-1
 768 896 l 1,119,-1
 768 1024 l 1,116,-1
896 1024 m 1,120,-1
 1024 1024 l 1,121,-1
 1024 896 l 1,122,-1
 896 896 l 1,123,-1
 896 1024 l 1,120,-1
0 896 m 1,124,-1
 128 896 l 1,125,-1
 128 768 l 1,126,-1
 0 768 l 1,127,-1
 0 896 l 1,124,-1
128 896 m 1,128,-1
 256 896 l 1,129,-1
 256 768 l 1,130,-1
 128 768 l 1,131,-1
 128 896 l 1,128,-1
256 896 m 1,132,-1
 384 896 l 1,133,-1
 384 768 l 1,134,-1
 256 768 l 1,135,-1
 256 896 l 1,132,-1
384 896 m 1,136,-1
 512 896 l 1,137,-1
 512 768 l 1,138,-1
 384 768 l 1,139,-1
 384 896 l 1,136,-1
512 896 m 1,140,-1
 640 896 l 1,141,-1
 640 768 l 1,142,-1
 512 768 l 1,143,-1
 512 896 l 1,140,-1
768 896 m 1,144,-1
 896 896 l 1,145,-1
 896 768 l 1,146,-1
 768 768 l 1,147,-1
 768 896 l 1,144,-1
896 896 m 1,148,-1
 1024 896 l 1,149,-1
 1024 768 l 1,150,-1
 896 768 l 1,151,-1
 896 896 l 1,148,-1
0 768 m 1,152,-1
 128 768 l 1,153,-1
 128 640 l 1,154,-1
 0 640 l 1,155,-1
 0 768 l 1,152,-1
128 768 m 1,156,-1
 256 768 l 1,157,-1
 256 640 l 1,158,-1
 128 640 l 1,159,-1
 128 768 l 1,156,-1
384 768 m 1,160,-1
 512 768 l 1,161,-1
 512 640 l 1,162,-1
 384 640 l 1,163,-1
 384 768 l 1,160,-1
512 768 m 1,164,-1
 640 768 l 1,165,-1
 640 640 l 1,166,-1
 512 640 l 1,167,-1
 512 768 l 1,164,-1
640 768 m 1,168,-1
 768 768 l 1,169,-1
 768 640 l 1,170,-1
 640 640 l 1,171,-1
 640 768 l 1,168,-1
768 768 m 1,172,-1
 896 768 l 1,173,-1
 896 640 l 1,174,-1
 768 640 l 1,175,-1
 768 768 l 1,172,-1
896 768 m 1,176,-1
 1024 768 l 1,177,-1
 1024 640 l 1,178,-1
 896 640 l 1,179,-1
 896 768 l 1,176,-1
0 640 m 1,180,-1
 128 640 l 1,181,-1
 128 512 l 1,182,-1
 0 512 l 1,183,-1
 0 640 l 1,180,-1
128 640 m 1,184,-1
 256 640 l 1,185,-1
 256 512 l 1,186,-1
 128 512 l 1,187,-1
 128 640 l 1,184,-1
512 640 m 1,188,-1
 640 640 l 1,189,-1
 640 512 l 1,190,-1
 512 512 l 1,191,-1
 512 640 l 1,188,-1
640 640 m 1,192,-1
 768 640 l 1,193,-1
 768 512 l 1,194,-1
 640 512 l 1,195,-1
 640 640 l 1,192,-1
768 640 m 1,196,-1
 896 640 l 1,197,-1
 896 512 l 1,198,-1
 768 512 l 1,199,-1
 768 640 l 1,196,-1
896 640 m 1,200,-1
 1024 640 l 1,201,-1
 1024 512 l 1,202,-1
 896 512 l 1,203,-1
 896 640 l 1,200,-1
0 512 m 1,204,-1
 128 512 l 1,205,-1
 128 384 l 1,206,-1
 0 384 l 1,207,-1
 0 512 l 1,204,-1
128 512 m 1,208,-1
 256 512 l 1,209,-1
 256 384 l 1,210,-1
 128 384 l 1,211,-1
 128 512 l 1,208,-1
640 512 m 1,212,-1
 768 512 l 1,213,-1
 768 384 l 1,214,-1
 640 384 l 1,215,-1
 640 512 l 1,212,-1
768 512 m 1,216,-1
 896 512 l 1,217,-1
 896 384 l 1,218,-1
 768 384 l 1,219,-1
 768 512 l 1,216,-1
896 512 m 1,220,-1
 1024 512 l 1,221,-1
 1024 384 l 1,222,-1
 896 384 l 1,223,-1
 896 512 l 1,220,-1
0 384 m 1,224,-1
 128 384 l 1,225,-1
 128 256 l 1,226,-1
 0 256 l 1,227,-1
 0 384 l 1,224,-1
128 384 m 1,228,-1
 256 384 l 1,229,-1
 256 256 l 1,230,-1
 128 256 l 1,231,-1
 128 384 l 1,228,-1
768 384 m 1,232,-1
 896 384 l 1,233,-1
 896 256 l 1,234,-1
 768 256 l 1,235,-1
 768 384 l 1,232,-1
896 384 m 1,236,-1
 1024 384 l 1,237,-1
 1024 256 l 1,238,-1
 896 256 l 1,239,-1
 896 384 l 1,236,-1
0 256 m 1,240,-1
 128 256 l 1,241,-1
 128 128 l 1,242,-1
 0 128 l 1,243,-1
 0 256 l 1,240,-1
128 256 m 1,244,-1
 256 256 l 1,245,-1
 256 128 l 1,246,-1
 128 128 l 1,247,-1
 128 256 l 1,244,-1
768 256 m 1,248,-1
 896 256 l 1,249,-1
 896 128 l 1,250,-1
 768 128 l 1,251,-1
 768 256 l 1,248,-1
896 256 m 1,252,-1
 1024 256 l 1,253,-1
 1024 128 l 1,254,-1
 896 128 l 1,255,-1
 896 256 l 1,252,-1
0 128 m 1,256,-1
 128 128 l 1,257,-1
 128 0 l 1,258,-1
 0 0 l 1,259,-1
 0 128 l 1,256,-1
128 128 m 1,260,-1
 256 128 l 1,261,-1
 256 0 l 1,262,-1
 128 0 l 1,263,-1
 128 128 l 1,260,-1
768 128 m 1,264,-1
 896 128 l 1,265,-1
 896 0 l 1,266,-1
 768 0 l 1,267,-1
 768 128 l 1,264,-1
896 128 m 1,268,-1
 1024 128 l 1,269,-1
 1024 0 l 1,270,-1
 896 0 l 1,271,-1
 896 128 l 1,268,-1
EndSplineSet
EndChar

StartChar: O
Encoding: 79 79 44
Width: 1280
GlyphClass: 1
Flags: W
LayerCount: 2
Fore
SplineSet
128 1792 m 1,0,-1
 256 1792 l 1,1,-1
 256 1664 l 1,2,-1
 128 1664 l 1,3,-1
 128 1792 l 1,0,-1
256 1792 m 1,4,-1
 384 1792 l 1,5,-1
 384 1664 l 1,6,-1
 256 1664 l 1,7,-1
 256 1792 l 1,4,-1
384 1792 m 1,8,-1
 512 1792 l 1,9,-1
 512 1664 l 1,10,-1
 384 1664 l 1,11,-1
 384 1792 l 1,8,-1
512 1792 m 1,12,-1
 640 1792 l 1,13,-1
 640 1664 l 1,14,-1
 512 1664 l 1,15,-1
 512 1792 l 1,12,-1
640 1792 m 1,16,-1
 768 1792 l 1,17,-1
 768 1664 l 1,18,-1
 640 1664 l 1,19,-1
 640 1792 l 1,16,-1
768 1792 m 1,20,-1
 896 1792 l 1,21,-1
 896 1664 l 1,22,-1
 768 1664 l 1,23,-1
 768 1792 l 1,20,-1
0 1664 m 1,24,-1
 128 1664 l 1,25,-1
 128 1536 l 1,26,-1
 0 1536 l 1,27,-1
 0 1664 l 1,24,-1
128 1664 m 1,28,-1
 256 1664 l 1,29,-1
 256 1536 l 1,30,-1
 128 1536 l 1,31,-1
 128 1664 l 1,28,-1
256 1664 m 1,32,-1
 384 1664 l 1,33,-1
 384 1536 l 1,34,-1
 256 1536 l 1,35,-1
 256 1664 l 1,32,-1
384 1664 m 1,36,-1
 512 1664 l 1,37,-1
 512 1536 l 1,38,-1
 384 1536 l 1,39,-1
 384 1664 l 1,36,-1
512 1664 m 1,40,-1
 640 1664 l 1,41,-1
 640 1536 l 1,42,-1
 512 1536 l 1,43,-1
 512 1664 l 1,40,-1
640 1664 m 1,44,-1
 768 1664 l 1,45,-1
 768 1536 l 1,46,-1
 640 1536 l 1,47,-1
 640 1664 l 1,44,-1
768 1664 m 1,48,-1
 896 1664 l 1,49,-1
 896 1536 l 1,50,-1
 768 1536 l 1,51,-1
 768 1664 l 1,48,-1
896 1664 m 1,52,-1
 1024 1664 l 1,53,-1
 1024 1536 l 1,54,-1
 896 1536 l 1,55,-1
 896 1664 l 1,52,-1
0 1536 m 1,56,-1
 128 1536 l 1,57,-1
 128 1408 l 1,58,-1
 0 1408 l 1,59,-1
 0 1536 l 1,56,-1
128 1536 m 1,60,-1
 256 1536 l 1,61,-1
 256 1408 l 1,62,-1
 128 1408 l 1,63,-1
 128 1536 l 1,60,-1
768 1536 m 1,64,-1
 896 1536 l 1,65,-1
 896 1408 l 1,66,-1
 768 1408 l 1,67,-1
 768 1536 l 1,64,-1
896 1536 m 1,68,-1
 1024 1536 l 1,69,-1
 1024 1408 l 1,70,-1
 896 1408 l 1,71,-1
 896 1536 l 1,68,-1
0 1408 m 1,72,-1
 128 1408 l 1,73,-1
 128 1280 l 1,74,-1
 0 1280 l 1,75,-1
 0 1408 l 1,72,-1
128 1408 m 1,76,-1
 256 1408 l 1,77,-1
 256 1280 l 1,78,-1
 128 1280 l 1,79,-1
 128 1408 l 1,76,-1
768 1408 m 1,80,-1
 896 1408 l 1,81,-1
 896 1280 l 1,82,-1
 768 1280 l 1,83,-1
 768 1408 l 1,80,-1
896 1408 m 1,84,-1
 1024 1408 l 1,85,-1
 1024 1280 l 1,86,-1
 896 1280 l 1,87,-1
 896 1408 l 1,84,-1
0 1280 m 1,88,-1
 128 1280 l 1,89,-1
 128 1152 l 1,90,-1
 0 1152 l 1,91,-1
 0 1280 l 1,88,-1
128 1280 m 1,92,-1
 256 1280 l 1,93,-1
 256 1152 l 1,94,-1
 128 1152 l 1,95,-1
 128 1280 l 1,92,-1
768 1280 m 1,96,-1
 896 1280 l 1,97,-1
 896 1152 l 1,98,-1
 768 1152 l 1,99,-1
 768 1280 l 1,96,-1
896 1280 m 1,100,-1
 1024 1280 l 1,101,-1
 1024 1152 l 1,102,-1
 896 1152 l 1,103,-1
 896 1280 l 1,100,-1
0 1152 m 1,104,-1
 128 1152 l 1,105,-1
 128 1024 l 1,106,-1
 0 1024 l 1,107,-1
 0 1152 l 1,104,-1
128 1152 m 1,108,-1
 256 1152 l 1,109,-1
 256 1024 l 1,110,-1
 128 1024 l 1,111,-1
 128 1152 l 1,108,-1
768 1152 m 1,112,-1
 896 1152 l 1,113,-1
 896 1024 l 1,114,-1
 768 1024 l 1,115,-1
 768 1152 l 1,112,-1
896 1152 m 1,116,-1
 1024 1152 l 1,117,-1
 1024 1024 l 1,118,-1
 896 1024 l 1,119,-1
 896 1152 l 1,116,-1
0 1024 m 1,120,-1
 128 1024 l 1,121,-1
 128 896 l 1,122,-1
 0 896 l 1,123,-1
 0 1024 l 1,120,-1
128 1024 m 1,124,-1
 256 1024 l 1,125,-1
 256 896 l 1,126,-1
 128 896 l 1,127,-1
 128 1024 l 1,124,-1
768 1024 m 1,128,-1
 896 1024 l 1,129,-1
 896 896 l 1,130,-1
 768 896 l 1,131,-1
 768 1024 l 1,128,-1
896 1024 m 1,132,-1
 1024 1024 l 1,133,-1
 1024 896 l 1,134,-1
 896 896 l 1,135,-1
 896 1024 l 1,132,-1
0 896 m 1,136,-1
 128 896 l 1,137,-1
 128 768 l 1,138,-1
 0 768 l 1,139,-1
 0 896 l 1,136,-1
128 896 m 1,140,-1
 256 896 l 1,141,-1
 256 768 l 1,142,-1
 128 768 l 1,143,-1
 128 896 l 1,140,-1
768 896 m 1,144,-1
 896 896 l 1,145,-1
 896 768 l 1,146,-1
 768 768 l 1,147,-1
 768 896 l 1,144,-1
896 896 m 1,148,-1
 1024 896 l 1,149,-1
 1024 768 l 1,150,-1
 896 768 l 1,151,-1
 896 896 l 1,148,-1
0 768 m 1,152,-1
 128 768 l 1,153,-1
 128 640 l 1,154,-1
 0 640 l 1,155,-1
 0 768 l 1,152,-1
128 768 m 1,156,-1
 256 768 l 1,157,-1
 256 640 l 1,158,-1
 128 640 l 1,159,-1
 128 768 l 1,156,-1
768 768 m 1,160,-1
 896 768 l 1,161,-1
 896 640 l 1,162,-1
 768 640 l 1,163,-1
 768 768 l 1,160,-1
896 768 m 1,164,-1
 1024 768 l 1,165,-1
 1024 640 l 1,166,-1
 896 640 l 1,167,-1
 896 768 l 1,164,-1
0 640 m 1,168,-1
 128 640 l 1,169,-1
 128 512 l 1,170,-1
 0 512 l 1,171,-1
 0 640 l 1,168,-1
128 640 m 1,172,-1
 256 640 l 1,173,-1
 256 512 l 1,174,-1
 128 512 l 1,175,-1
 128 640 l 1,172,-1
768 640 m 1,176,-1
 896 640 l 1,177,-1
 896 512 l 1,178,-1
 768 512 l 1,179,-1
 768 640 l 1,176,-1
896 640 m 1,180,-1
 1024 640 l 1,181,-1
 1024 512 l 1,182,-1
 896 512 l 1,183,-1
 896 640 l 1,180,-1
0 512 m 1,184,-1
 128 512 l 1,185,-1
 128 384 l 1,186,-1
 0 384 l 1,187,-1
 0 512 l 1,184,-1
128 512 m 1,188,-1
 256 512 l 1,189,-1
 256 384 l 1,190,-1
 128 384 l 1,191,-1
 128 512 l 1,188,-1
768 512 m 1,192,-1
 896 512 l 1,193,-1
 896 384 l 1,194,-1
 768 384 l 1,195,-1
 768 512 l 1,192,-1
896 512 m 1,196,-1
 1024 512 l 1,197,-1
 1024 384 l 1,198,-1
 896 384 l 1,199,-1
 896 512 l 1,196,-1
0 384 m 1,200,-1
 128 384 l 1,201,-1
 128 256 l 1,202,-1
 0 256 l 1,203,-1
 0 384 l 1,200,-1
128 384 m 1,204,-1
 256 384 l 1,205,-1
 256 256 l 1,206,-1
 128 256 l 1,207,-1
 128 384 l 1,204,-1
768 384 m 1,208,-1
 896 384 l 1,209,-1
 896 256 l 1,210,-1
 768 256 l 1,211,-1
 768 384 l 1,208,-1
896 384 m 1,212,-1
 1024 384 l 1,213,-1
 1024 256 l 1,214,-1
 896 256 l 1,215,-1
 896 384 l 1,212,-1
0 256 m 1,216,-1
 128 256 l 1,217,-1
 128 128 l 1,218,-1
 0 128 l 1,219,-1
 0 256 l 1,216,-1
128 256 m 1,220,-1
 256 256 l 1,221,-1
 256 128 l 1,222,-1
 128 128 l 1,223,-1
 128 256 l 1,220,-1
256 256 m 1,224,-1
 384 256 l 1,225,-1
 384 128 l 1,226,-1
 256 128 l 1,227,-1
 256 256 l 1,224,-1
384 256 m 1,228,-1
 512 256 l 1,229,-1
 512 128 l 1,230,-1
 384 128 l 1,231,-1
 384 256 l 1,228,-1
512 256 m 1,232,-1
 640 256 l 1,233,-1
 640 128 l 1,234,-1
 512 128 l 1,235,-1
 512 256 l 1,232,-1
640 256 m 1,236,-1
 768 256 l 1,237,-1
 768 128 l 1,238,-1
 640 128 l 1,239,-1
 640 256 l 1,236,-1
768 256 m 1,240,-1
 896 256 l 1,241,-1
 896 128 l 1,242,-1
 768 128 l 1,243,-1
 768 256 l 1,240,-1
896 256 m 1,244,-1
 1024 256 l 1,245,-1
 1024 128 l 1,246,-1
 896 128 l 1,247,-1
 896 256 l 1,244,-1
128 128 m 1,248,-1
 256 128 l 1,249,-1
 256 0 l 1,250,-1
 128 0 l 1,251,-1
 128 128 l 1,248,-1
256 128 m 1,252,-1
 384 128 l 1,253,-1
 384 0 l 1,254,-1
 256 0 l 1,255,-1
 256 128 l 1,252,-1
384 128 m 1,256,-1
 512 128 l 1,257,-1
 512 0 l 1,258,-1
 384 0 l 1,259,-1
 384 128 l 1,256,-1
512 128 m 1,260,-1
 640 128 l 1,261,-1
 640 0 l 1,262,-1
 512 0 l 1,263,-1
 512 128 l 1,260,-1
640 128 m 1,264,-1
 768 128 l 1,265,-1
 768 0 l 1,266,-1
 640 0 l 1,267,-1
 640 128 l 1,264,-1
768 128 m 1,268,-1
 896 128 l 1,269,-1
 896 0 l 1,270,-1
 768 0 l 1,271,-1
 768 128 l 1,268,-1
EndSplineSet
EndChar

StartChar: P
Encoding: 80 80 45
Width: 1280
GlyphClass: 1
Flags: W
LayerCount: 2
Fore
SplineSet
0 1792 m 1,0,-1
 128 1792 l 1,1,-1
 128 1664 l 1,2,-1
 0 1664 l 1,3,-1
 0 1792 l 1,0,-1
128 1792 m 1,4,-1
 256 1792 l 1,5,-1
 256 1664 l 1,6,-1
 128 1664 l 1,7,-1
 128 1792 l 1,4,-1
256 1792 m 1,8,-1
 384 1792 l 1,9,-1
 384 1664 l 1,10,-1
 256 1664 l 1,11,-1
 256 1792 l 1,8,-1
384 1792 m 1,12,-1
 512 1792 l 1,13,-1
 512 1664 l 1,14,-1
 384 1664 l 1,15,-1
 384 1792 l 1,12,-1
512 1792 m 1,16,-1
 640 1792 l 1,17,-1
 640 1664 l 1,18,-1
 512 1664 l 1,19,-1
 512 1792 l 1,16,-1
640 1792 m 1,20,-1
 768 1792 l 1,21,-1
 768 1664 l 1,22,-1
 640 1664 l 1,23,-1
 640 1792 l 1,20,-1
768 1792 m 1,24,-1
 896 1792 l 1,25,-1
 896 1664 l 1,26,-1
 768 1664 l 1,27,-1
 768 1792 l 1,24,-1
0 1664 m 1,28,-1
 128 1664 l 1,29,-1
 128 1536 l 1,30,-1
 0 1536 l 1,31,-1
 0 1664 l 1,28,-1
128 1664 m 1,32,-1
 256 1664 l 1,33,-1
 256 1536 l 1,34,-1
 128 1536 l 1,35,-1
 128 1664 l 1,32,-1
256 1664 m 1,36,-1
 384 1664 l 1,37,-1
 384 1536 l 1,38,-1
 256 1536 l 1,39,-1
 256 1664 l 1,36,-1
384 1664 m 1,40,-1
 512 1664 l 1,41,-1
 512 1536 l 1,42,-1
 384 1536 l 1,43,-1
 384 1664 l 1,40,-1
512 1664 m 1,44,-1
 640 1664 l 1,45,-1
 640 1536 l 1,46,-1
 512 1536 l 1,47,-1
 512 1664 l 1,44,-1
640 1664 m 1,48,-1
 768 1664 l 1,49,-1
 768 1536 l 1,50,-1
 640 1536 l 1,51,-1
 640 1664 l 1,48,-1
768 1664 m 1,52,-1
 896 1664 l 1,53,-1
 896 1536 l 1,54,-1
 768 1536 l 1,55,-1
 768 1664 l 1,52,-1
896 1664 m 1,56,-1
 1024 1664 l 1,57,-1
 1024 1536 l 1,58,-1
 896 1536 l 1,59,-1
 896 1664 l 1,56,-1
0 1536 m 1,60,-1
 128 1536 l 1,61,-1
 128 1408 l 1,62,-1
 0 1408 l 1,63,-1
 0 1536 l 1,60,-1
128 1536 m 1,64,-1
 256 1536 l 1,65,-1
 256 1408 l 1,66,-1
 128 1408 l 1,67,-1
 128 1536 l 1,64,-1
768 1536 m 1,68,-1
 896 1536 l 1,69,-1
 896 1408 l 1,70,-1
 768 1408 l 1,71,-1
 768 1536 l 1,68,-1
896 1536 m 1,72,-1
 1024 1536 l 1,73,-1
 1024 1408 l 1,74,-1
 896 1408 l 1,75,-1
 896 1536 l 1,72,-1
0 1408 m 1,76,-1
 128 1408 l 1,77,-1
 128 1280 l 1,78,-1
 0 1280 l 1,79,-1
 0 1408 l 1,76,-1
128 1408 m 1,80,-1
 256 1408 l 1,81,-1
 256 1280 l 1,82,-1
 128 1280 l 1,83,-1
 128 1408 l 1,80,-1
768 1408 m 1,84,-1
 896 1408 l 1,85,-1
 896 1280 l 1,86,-1
 768 1280 l 1,87,-1
 768 1408 l 1,84,-1
896 1408 m 1,88,-1
 1024 1408 l 1,89,-1
 1024 1280 l 1,90,-1
 896 1280 l 1,91,-1
 896 1408 l 1,88,-1
0 1280 m 1,92,-1
 128 1280 l 1,93,-1
 128 1152 l 1,94,-1
 0 1152 l 1,95,-1
 0 1280 l 1,92,-1
128 1280 m 1,96,-1
 256 1280 l 1,97,-1
 256 1152 l 1,98,-1
 128 1152 l 1,99,-1
 128 1280 l 1,96,-1
768 1280 m 1,100,-1
 896 1280 l 1,101,-1
 896 1152 l 1,102,-1
 768 1152 l 1,103,-1
 768 1280 l 1,100,-1
896 1280 m 1,104,-1
 1024 1280 l 1,105,-1
 1024 1152 l 1,106,-1
 896 1152 l 1,107,-1
 896 1280 l 1,104,-1
0 1152 m 1,108,-1
 128 1152 l 1,109,-1
 128 1024 l 1,110,-1
 0 1024 l 1,111,-1
 0 1152 l 1,108,-1
128 1152 m 1,112,-1
 256 1152 l 1,113,-1
 256 1024 l 1,114,-1
 128 1024 l 1,115,-1
 128 1152 l 1,112,-1
256 1152 m 1,116,-1
 384 1152 l 1,117,-1
 384 1024 l 1,118,-1
 256 1024 l 1,119,-1
 256 1152 l 1,116,-1
384 1152 m 1,120,-1
 512 1152 l 1,121,-1
 512 1024 l 1,122,-1
 384 1024 l 1,123,-1
 384 1152 l 1,120,-1
512 1152 m 1,124,-1
 640 1152 l 1,125,-1
 640 1024 l 1,126,-1
 512 1024 l 1,127,-1
 512 1152 l 1,124,-1
640 1152 m 1,128,-1
 768 1152 l 1,129,-1
 768 1024 l 1,130,-1
 640 1024 l 1,131,-1
 640 1152 l 1,128,-1
768 1152 m 1,132,-1
 896 1152 l 1,133,-1
 896 1024 l 1,134,-1
 768 1024 l 1,135,-1
 768 1152 l 1,132,-1
896 1152 m 1,136,-1
 1024 1152 l 1,137,-1
 1024 1024 l 1,138,-1
 896 1024 l 1,139,-1
 896 1152 l 1,136,-1
0 1024 m 1,140,-1
 128 1024 l 1,141,-1
 128 896 l 1,142,-1
 0 896 l 1,143,-1
 0 1024 l 1,140,-1
128 1024 m 1,144,-1
 256 1024 l 1,145,-1
 256 896 l 1,146,-1
 128 896 l 1,147,-1
 128 1024 l 1,144,-1
256 1024 m 1,148,-1
 384 1024 l 1,149,-1
 384 896 l 1,150,-1
 256 896 l 1,151,-1
 256 1024 l 1,148,-1
384 1024 m 1,152,-1
 512 1024 l 1,153,-1
 512 896 l 1,154,-1
 384 896 l 1,155,-1
 384 1024 l 1,152,-1
512 1024 m 1,156,-1
 640 1024 l 1,157,-1
 640 896 l 1,158,-1
 512 896 l 1,159,-1
 512 1024 l 1,156,-1
640 1024 m 1,160,-1
 768 1024 l 1,161,-1
 768 896 l 1,162,-1
 640 896 l 1,163,-1
 640 1024 l 1,160,-1
768 1024 m 1,164,-1
 896 1024 l 1,165,-1
 896 896 l 1,166,-1
 768 896 l 1,167,-1
 768 1024 l 1,164,-1
0 896 m 1,168,-1
 128 896 l 1,169,-1
 128 768 l 1,170,-1
 0 768 l 1,171,-1
 0 896 l 1,168,-1
128 896 m 1,172,-1
 256 896 l 1,173,-1
 256 768 l 1,174,-1
 128 768 l 1,175,-1
 128 896 l 1,172,-1
0 768 m 1,176,-1
 128 768 l 1,177,-1
 128 640 l 1,178,-1
 0 640 l 1,179,-1
 0 768 l 1,176,-1
128 768 m 1,180,-1
 256 768 l 1,181,-1
 256 640 l 1,182,-1
 128 640 l 1,183,-1
 128 768 l 1,180,-1
0 640 m 1,184,-1
 128 640 l 1,185,-1
 128 512 l 1,186,-1
 0 512 l 1,187,-1
 0 640 l 1,184,-1
128 640 m 1,188,-1
 256 640 l 1,189,-1
 256 512 l 1,190,-1
 128 512 l 1,191,-1
 128 640 l 1,188,-1
0 512 m 1,192,-1
 128 512 l 1,193,-1
 128 384 l 1,194,-1
 0 384 l 1,195,-1
 0 512 l 1,192,-1
128 512 m 1,196,-1
 256 512 l 1,197,-1
 256 384 l 1,198,-1
 128 384 l 1,199,-1
 128 512 l 1,196,-1
0 384 m 1,200,-1
 128 384 l 1,201,-1
 128 256 l 1,202,-1
 0 256 l 1,203,-1
 0 384 l 1,200,-1
128 384 m 1,204,-1
 256 384 l 1,205,-1
 256 256 l 1,206,-1
 128 256 l 1,207,-1
 128 384 l 1,204,-1
0 256 m 1,208,-1
 128 256 l 1,209,-1
 128 128 l 1,210,-1
 0 128 l 1,211,-1
 0 256 l 1,208,-1
128 256 m 1,212,-1
 256 256 l 1,213,-1
 256 128 l 1,214,-1
 128 128 l 1,215,-1
 128 256 l 1,212,-1
0 128 m 1,216,-1
 128 128 l 1,217,-1
 128 0 l 1,218,-1
 0 0 l 1,219,-1
 0 128 l 1,216,-1
128 128 m 1,220,-1
 256 128 l 1,221,-1
 256 0 l 1,222,-1
 128 0 l 1,223,-1
 128 128 l 1,220,-1
EndSplineSet
EndChar

